<svg width="115" height="115" viewBox="0 0 115 115" fill="none" xmlns="http://www.w3.org/2000/svg">
<circle cx="57.5" cy="57.5" r="57.5" fill="#E916AE" fill-opacity="0.72"/>
<path d="M56.0801 73.0913C56.194 73.0571 56.2453 73.1483 56.2339 73.3647C56.2225 73.5698 56.137 73.7977 55.9775 74.0483C55.8066 74.3332 55.5674 74.749 55.2598 75.2959C54.9635 75.8314 54.599 76.515 54.166 77.3467C53.7331 78.1784 53.2318 79.1639 52.6621 80.3032C52.0924 81.4312 51.4487 82.7357 50.731 84.2168C50.1613 85.3789 49.5859 86.5524 49.0049 87.7373C48.4238 88.9222 47.8656 90.0729 47.3301 91.1895C46.7946 92.306 46.3047 93.3656 45.8604 94.3682C45.416 95.3708 45.0457 96.2708 44.7495 97.0684C44.7153 97.1595 44.6356 97.2165 44.5103 97.2393C44.3963 97.2734 44.3109 97.2734 44.2539 97.2393C44.2197 97.2165 44.2026 97.1823 44.2026 97.1367C44.214 97.1025 44.2197 97.0684 44.2197 97.0342C44.2083 96.9544 44.1912 96.9259 44.1685 96.9487C44.1457 96.9601 44.1001 96.9886 44.0317 97.0342C43.9748 97.0911 43.8893 97.1481 43.7754 97.2051C43.6615 97.262 43.5076 97.2962 43.314 97.3076C43.0861 97.3076 42.938 97.2677 42.8696 97.188C42.8127 97.1082 42.7272 96.9544 42.6133 96.7266C42.5905 96.6696 42.4823 96.3563 42.2886 95.7866C42.0949 95.217 41.8442 94.4764 41.5366 93.5649C41.2404 92.6421 40.8929 91.5882 40.4941 90.4033C40.0954 89.2184 39.6738 87.9823 39.2295 86.6948C38.7965 85.396 38.3522 84.0915 37.8965 82.7812C37.4408 81.4596 36.9964 80.2121 36.5635 79.0386C36.1305 77.8537 35.7261 76.7827 35.3501 75.8257C34.9855 74.8687 34.6665 74.0996 34.3931 73.5186C34.3361 73.416 34.3475 73.2964 34.4272 73.1597C34.5184 73.0116 34.6323 72.9204 34.769 72.8862C34.8602 72.8521 34.9342 72.8634 34.9912 72.9204C35.0482 72.966 35.1051 72.9888 35.1621 72.9888C35.2077 72.9888 35.2533 72.9717 35.2988 72.9375C35.3558 72.8919 35.4071 72.8521 35.4526 72.8179C35.5096 72.7723 35.5609 72.7381 35.6064 72.7153C35.652 72.6812 35.6976 72.6698 35.7432 72.6812C35.7773 72.6925 35.8172 72.7039 35.8628 72.7153C35.9425 72.7381 36.0451 72.7381 36.1704 72.7153C36.216 72.6698 36.2729 72.6299 36.3413 72.5957L36.478 72.5273C36.6034 72.4932 36.7116 72.4818 36.8027 72.4932C36.9053 72.5046 36.985 72.4932 37.042 72.459C37.1217 72.4248 37.1844 72.3906 37.23 72.3564C37.2869 72.3109 37.3382 72.2881 37.3838 72.2881C37.4294 72.2881 37.4806 72.3223 37.5376 72.3906C37.606 72.459 37.6971 72.59 37.811 72.7837C37.868 72.909 37.9876 73.228 38.1699 73.7407C38.3636 74.2534 38.5972 74.8971 38.8706 75.6719C39.144 76.4352 39.4517 77.3068 39.7935 78.2866C40.1353 79.255 40.4884 80.2747 40.853 81.3457C41.2176 82.4053 41.5822 83.4819 41.9468 84.5757C42.3228 85.658 42.6816 86.7062 43.0234 87.7202C43.3652 88.7228 43.6729 89.6571 43.9463 90.5229C44.2311 91.3774 44.4647 92.1009 44.647 92.6934C44.8976 92.0781 45.2223 91.3262 45.6211 90.4375C46.0312 89.5374 46.4756 88.5633 46.9541 87.5151C47.444 86.467 47.9567 85.3732 48.4922 84.2339C49.0277 83.0946 49.5575 81.9723 50.0815 80.8672C50.6056 79.762 51.1069 78.7082 51.5854 77.7056C52.0754 76.703 52.5083 75.82 52.8843 75.0566C53.2603 74.2819 53.5679 73.661 53.8071 73.1938C54.0464 72.7153 54.1888 72.4476 54.2344 72.3906C54.3369 72.2311 54.4167 72.1685 54.4736 72.2026C54.542 72.2254 54.6217 72.2539 54.7129 72.2881C54.8154 72.3223 54.8724 72.3564 54.8838 72.3906C54.8952 72.4248 54.9009 72.459 54.9009 72.4932C54.9009 72.516 54.9123 72.5444 54.9351 72.5786C54.9578 72.6014 55.0262 72.6242 55.1401 72.647C55.2199 72.647 55.2769 72.6641 55.311 72.6982C55.3452 72.721 55.3794 72.7552 55.4136 72.8008C55.4591 72.835 55.5104 72.8748 55.5674 72.9204C55.6243 72.9546 55.7155 72.9774 55.8408 72.9888C55.8864 73.0002 55.9149 73.0116 55.9263 73.0229C55.9491 73.0343 55.9604 73.0514 55.9604 73.0742C55.9718 73.0856 55.9832 73.097 55.9946 73.1084C56.006 73.1084 56.0345 73.1027 56.0801 73.0913ZM64.8643 96.8975C64.8643 97 64.7788 97.1253 64.6079 97.2734C64.437 97.4215 64.2205 97.4956 63.9585 97.4956C63.8787 97.4956 63.7306 97.4557 63.5142 97.376C63.3091 97.2962 63.0926 97.1766 62.8647 97.0171C62.6369 96.869 62.4318 96.6867 62.2495 96.4702C62.0672 96.2424 61.9704 95.986 61.959 95.7012C61.9362 95.5758 61.9248 95.4049 61.9248 95.1885C61.9248 94.9606 61.9248 94.6986 61.9248 94.4023C61.9248 93.9466 61.9248 93.4396 61.9248 92.8813C61.9248 92.3231 61.9362 91.7591 61.959 91.1895C61.8792 91.5996 61.7824 92.0269 61.6685 92.4712C61.5545 92.9041 61.4121 93.3371 61.2412 93.77C61.0703 94.203 60.8709 94.6302 60.6431 95.0518C60.4152 95.4733 60.1532 95.8778 59.8569 96.2651C59.6974 96.4702 59.5265 96.6468 59.3442 96.7949C59.1733 96.9316 59.0024 97.0456 58.8315 97.1367C58.6606 97.2393 58.5011 97.3133 58.353 97.3589C58.2049 97.4045 58.091 97.4272 58.0112 97.4272C57.9657 97.4272 57.8574 97.376 57.6865 97.2734C57.527 97.1823 57.3333 97.0627 57.1055 96.9146C56.889 96.755 56.6554 96.5841 56.4048 96.4019C56.1541 96.2082 55.9149 96.0202 55.687 95.8379C55.4591 95.6442 55.2541 95.4676 55.0718 95.3081C54.8895 95.1372 54.7585 95.0005 54.6787 94.8979C54.599 94.784 54.5249 94.5903 54.4565 94.3169C54.3996 94.0435 54.3483 93.7074 54.3027 93.3086C54.2572 92.9098 54.2173 92.4598 54.1831 91.9585C54.1603 91.4572 54.1489 90.9217 54.1489 90.3521C54.1489 90.0444 54.1546 89.6457 54.166 89.1558C54.1774 88.6659 54.2002 88.1418 54.2344 87.5835C54.2686 87.0138 54.3084 86.4442 54.354 85.8745C54.411 85.2935 54.4736 84.7751 54.542 84.3193C54.6217 83.8522 54.7129 83.4762 54.8154 83.1914C54.918 82.8952 55.0376 82.7471 55.1743 82.7471C55.2655 82.7471 55.425 82.7756 55.6528 82.8325C55.8807 82.8781 56.1143 82.9009 56.3535 82.9009C56.7067 82.9009 56.9517 82.8724 57.0884 82.8154C57.2365 82.7471 57.3447 82.7129 57.4131 82.7129C57.527 82.7129 57.584 82.8097 57.584 83.0034C57.584 83.0604 57.584 83.1174 57.584 83.1743C57.584 83.2199 57.5726 83.2769 57.5498 83.3452C57.5384 83.4136 57.5099 83.5902 57.4644 83.875C57.4302 84.1598 57.3846 84.5244 57.3276 84.9688C57.2707 85.4131 57.2137 85.9144 57.1567 86.4727C57.0998 87.0195 57.0428 87.5949 56.9858 88.1987C56.9403 88.8026 56.9004 89.4121 56.8662 90.0273C56.832 90.6426 56.8149 91.2293 56.8149 91.7876C56.8149 92.1636 56.8206 92.5396 56.832 92.9155C56.8548 93.2915 56.889 93.6333 56.9346 93.9409C56.9801 94.2485 57.0428 94.4992 57.1226 94.6929C57.2023 94.8752 57.2992 94.9663 57.4131 94.9663C57.5156 94.9663 57.658 94.9207 57.8403 94.8296C58.034 94.7271 58.2562 94.5277 58.5068 94.2314C58.7689 93.9352 59.0537 93.5137 59.3613 92.9668C59.6689 92.4199 59.9993 91.6965 60.3525 90.7964C60.7171 89.8849 61.0931 88.7741 61.4805 87.4639C61.8792 86.1423 62.2837 84.57 62.6938 82.7471C62.6938 82.7129 62.7109 82.6901 62.7451 82.6787C62.7907 82.6559 62.842 82.6445 62.8989 82.6445C63.047 82.6445 63.235 82.6616 63.4629 82.6958C63.6908 82.7186 63.9072 82.7585 64.1123 82.8154C64.3288 82.861 64.5111 82.918 64.6592 82.9863C64.8187 83.0547 64.8984 83.1287 64.8984 83.2085C64.8984 83.7212 64.8757 84.2795 64.8301 84.8833C64.7845 85.4871 64.7332 86.1138 64.6763 86.7632C64.6193 87.4012 64.568 88.0563 64.5225 88.7285C64.4769 89.4007 64.4541 90.0672 64.4541 90.728C64.4541 91.9129 64.4883 93.0465 64.5566 94.1289C64.6364 95.1999 64.7389 96.1227 64.8643 96.8975ZM79.0317 90.7622C79.0317 90.8875 79.0374 91.0356 79.0488 91.2065C79.0602 91.3774 79.0659 91.5711 79.0659 91.7876C79.0659 92.061 79.026 92.4028 78.9463 92.813C78.8665 93.2118 78.7355 93.6333 78.5532 94.0776C78.3823 94.522 78.1488 94.9663 77.8525 95.4106C77.5563 95.855 77.1917 96.2537 76.7588 96.6069C76.3258 96.9601 75.8132 97.245 75.2207 97.4614C74.6396 97.6893 73.9731 97.8032 73.2212 97.8032C72.549 97.8032 71.8597 97.6722 71.1533 97.4102C70.4583 97.1595 69.8203 96.7664 69.2393 96.231C68.6696 95.6841 68.1968 94.9948 67.8208 94.1631C67.4562 93.32 67.2739 92.3174 67.2739 91.1553C67.2739 90.4261 67.3651 89.7083 67.5474 89.002C67.741 88.2956 67.9917 87.6291 68.2993 87.0024C68.6183 86.3758 68.9886 85.8005 69.4102 85.2764C69.8431 84.7409 70.2931 84.2852 70.7603 83.9092C71.2388 83.5218 71.7287 83.2199 72.23 83.0034C72.7427 82.7869 73.2383 82.6787 73.7168 82.6787C74.5485 82.6787 75.2321 82.8097 75.7676 83.0718C76.3145 83.3338 76.7474 83.6585 77.0664 84.0459C77.3854 84.4333 77.6076 84.8491 77.7329 85.2935C77.8696 85.7264 77.938 86.1195 77.938 86.4727C77.938 86.8145 77.8525 87.2075 77.6816 87.6519C77.5221 88.0848 77.2544 88.5007 76.8784 88.8994C76.5024 89.2868 76.0125 89.6172 75.4087 89.8906C74.8049 90.1527 74.0643 90.2837 73.187 90.2837C72.7199 90.2837 72.2983 90.221 71.9224 90.0957C71.5578 89.959 71.2331 89.7938 70.9482 89.6001C70.6634 89.395 70.4185 89.1785 70.2134 88.9507C70.0197 88.7114 69.8545 88.4893 69.7178 88.2842C69.5127 88.9906 69.4102 89.8166 69.4102 90.7622C69.4102 91.4116 69.5013 91.9984 69.6836 92.5225C69.8773 93.0352 70.1393 93.4738 70.4697 93.8384C70.8001 94.203 71.1932 94.4821 71.6489 94.6758C72.1047 94.8695 72.606 94.9663 73.1528 94.9663C73.8364 94.9663 74.4346 94.8524 74.9473 94.6245C75.46 94.3853 75.9043 94.089 76.2803 93.7358C76.6676 93.3826 76.998 93.001 77.2715 92.5908C77.5563 92.1693 77.8013 91.7876 78.0063 91.4458C78.2114 91.0926 78.388 90.8021 78.5361 90.5742C78.6956 90.3464 78.8494 90.2381 78.9976 90.2495C79.0659 90.2495 79.1001 90.3065 79.1001 90.4204C79.1001 90.4774 79.0944 90.5343 79.083 90.5913C79.0716 90.6483 79.0545 90.7052 79.0317 90.7622ZM73.8877 84.4048C73.6826 84.4048 73.4149 84.4504 73.0845 84.5415C72.7655 84.6213 72.4237 84.7694 72.0591 84.9858C71.7059 85.2023 71.3527 85.4985 70.9995 85.8745C70.6463 86.2391 70.3387 86.7062 70.0767 87.2759C70.2362 87.1961 70.3729 87.1278 70.4868 87.0708C70.6121 87.0138 70.6976 86.9854 70.7432 86.9854C70.766 86.9854 70.8001 87.0081 70.8457 87.0537C71.1077 87.498 71.4325 87.8171 71.8198 88.0107C72.2186 88.193 72.6629 88.2842 73.1528 88.2842C73.5402 88.2842 73.8706 88.2215 74.144 88.0962C74.4289 87.9595 74.6624 87.7886 74.8447 87.5835C75.027 87.3784 75.158 87.1562 75.2378 86.917C75.3175 86.6663 75.3574 86.4214 75.3574 86.1821C75.3574 85.6694 75.2264 85.2479 74.9644 84.9175C74.7023 84.5757 74.3434 84.4048 73.8877 84.4048Z" fill="white"/>
<g clip-path="url(#clip0_58_116)">
<path d="M70 23H78L58 62.9638L38 23H53.3L58 32.267L62.6 23H70Z" fill="#41B883"/>
<path d="M38 23L58 62.9638L78 23H70L58 46.9783L45.9 23H38Z" fill="#41B883"/>
<path d="M45.8999 23L57.9999 47.0941L69.9999 23H62.5999L57.9999 32.267L53.2999 23H45.8999Z" fill="#35495E"/>
</g>
<defs>
<clipPath id="clip0_58_116">
<rect width="40" height="40" fill="white" transform="translate(38 23)"/>
</clipPath>
</defs>
</svg>
