<svg width="236" height="235" viewBox="0 0 236 235" fill="none" xmlns="http://www.w3.org/2000/svg">
<circle cx="117.87" cy="117.718" r="117.217" fill="#2697D7" fill-opacity="0.85"/>
<path d="M79.8859 160.851C80.7736 160.75 81.6929 160.661 82.644 160.585C83.6078 160.509 84.5082 160.471 85.3451 160.471C85.5987 160.458 85.8904 160.446 86.2201 160.433C86.4991 160.42 86.8225 160.414 87.1902 160.414C87.5707 160.401 87.9828 160.395 88.4266 160.395C88.8958 160.395 89.3904 160.401 89.9103 160.414C90.4429 160.427 90.9755 160.446 91.5082 160.471C91.5589 159.71 91.6096 158.924 91.6603 158.112C91.7111 157.301 91.7554 156.521 91.7935 155.773C91.8442 155.012 91.8823 154.314 91.9076 153.68C91.9457 153.033 91.9774 152.495 92.0027 152.063V150.77C92.0027 150.415 92.0027 150.066 92.0027 149.724C92.0027 149.369 92.0154 149.083 92.0408 148.868C92.1295 148.449 92.3134 148.24 92.5924 148.24C92.7573 148.24 92.8841 148.259 92.9728 148.297C93.0616 148.335 93.2201 148.405 93.4484 148.506C93.5625 148.544 93.683 148.595 93.8098 148.658C93.9493 148.722 94.0824 148.792 94.2092 148.868C94.3361 148.931 94.4502 149.001 94.5516 149.077C94.6531 149.14 94.7292 149.197 94.7799 149.248C94.8306 149.299 94.894 149.388 94.9701 149.514C95.0462 149.629 95.1223 149.755 95.1984 149.895C95.2745 150.034 95.3379 150.18 95.3886 150.332C95.4393 150.472 95.4583 150.592 95.4457 150.694C95.433 150.795 95.4013 151.169 95.3506 151.816C95.2998 152.45 95.2364 153.293 95.1603 154.346C95.0842 155.386 95.0018 156.597 94.9131 157.979C94.8243 159.361 94.7419 160.839 94.6658 162.411C94.5516 164.947 94.4946 167.053 94.4946 168.726C94.4946 169.982 94.5136 170.996 94.5516 171.77C94.6024 172.543 94.6658 173.089 94.7419 173.406C94.856 173.938 94.9384 174.319 94.9891 174.547C95.0399 174.775 95.0335 174.928 94.9701 175.004C94.9448 175.029 94.9067 175.054 94.856 175.08C94.7292 175.13 94.5199 175.181 94.2283 175.232C94.1775 175.371 94.1268 175.485 94.0761 175.574C94.0254 175.65 93.9746 175.714 93.9239 175.764C93.8732 175.815 93.8225 175.86 93.7717 175.898C93.6449 175.936 93.5245 175.974 93.4103 176.012C93.2962 176.05 93.2074 176.037 93.144 175.974C93.106 175.961 93.0743 175.942 93.0489 175.917C92.9982 175.891 92.9538 175.822 92.9158 175.707C92.789 175.758 92.6748 175.758 92.5734 175.707C92.5227 175.682 92.4783 175.657 92.4402 175.631C92.3388 175.543 92.1929 175.384 92.0027 175.156C91.8125 174.928 91.6857 174.617 91.6223 174.224C91.5969 174.033 91.5525 173.831 91.4891 173.615C91.4384 173.387 91.3813 173.158 91.3179 172.93C91.2672 172.689 91.2102 172.461 91.1467 172.245C91.096 172.017 91.058 171.808 91.0326 171.618C90.9946 171.44 90.9755 171.066 90.9755 170.495C90.9882 169.925 91.0073 169.259 91.0326 168.498C91.0707 167.737 91.115 166.926 91.1658 166.063C91.2165 165.201 91.2672 164.389 91.3179 163.629C91.3179 163.527 91.3179 163.419 91.3179 163.305C91.3179 163.191 91.3306 163.064 91.356 162.925C90.7853 162.899 90.221 162.887 89.663 162.887C89.1178 162.887 88.5915 162.887 88.0842 162.887C87.4502 162.887 86.8732 162.893 86.3533 162.906C85.8333 162.906 85.3768 162.912 84.9837 162.925C84.5272 162.937 84.115 162.95 83.7473 162.963C82.4031 162.963 81.1033 163.001 79.8478 163.077C79.8351 163.267 79.8225 163.432 79.8098 163.572C79.8098 163.711 79.8098 163.831 79.8098 163.933V164.218C79.7844 165.461 79.7591 166.653 79.7337 167.794C79.7083 168.936 79.6893 169.957 79.6766 170.857C79.664 171.757 79.6513 172.505 79.6386 173.101C79.6386 173.697 79.6449 174.072 79.6576 174.224C79.6576 174.351 79.6513 174.484 79.6386 174.623C79.6259 174.75 79.6005 174.902 79.5625 175.08C79.5371 175.245 79.4928 175.428 79.4294 175.631C79.3025 175.644 79.1821 175.688 79.0679 175.764C79.0172 175.803 78.9665 175.834 78.9158 175.86C78.8016 175.936 78.6938 176.018 78.5924 176.107C78.5036 176.208 78.4212 176.227 78.3451 176.164C78.2437 176.088 78.1168 176.037 77.9647 176.012C77.8252 175.986 77.6476 175.974 77.4321 175.974C77.3306 175.974 77.2228 175.942 77.1087 175.879C76.9946 175.815 76.8868 175.745 76.7853 175.669C76.6839 175.581 76.5951 175.485 76.519 175.384C76.4429 175.283 76.3986 175.194 76.3859 175.118C76.3605 175.042 76.3288 174.934 76.2908 174.794C76.2527 174.642 76.2147 174.49 76.1766 174.338C76.1513 174.173 76.1259 174.021 76.1005 173.881C76.0752 173.729 76.0562 173.621 76.0435 173.558C76.0308 173.495 76.0308 173.178 76.0435 172.607C76.0562 172.036 76.0815 171.288 76.1196 170.362C76.1576 169.424 76.202 168.352 76.2527 167.148C76.3034 165.93 76.3605 164.649 76.4239 163.305C75.942 163.356 75.5362 163.4 75.2065 163.438C74.8768 163.464 74.6739 163.489 74.5978 163.514C74.4583 163.54 74.3442 163.572 74.2554 163.61C74.1793 163.635 74.1096 163.66 74.0462 163.686C73.9955 163.711 73.9447 163.73 73.894 163.743C73.8433 163.743 73.7926 163.73 73.7418 163.705C73.6658 163.705 73.5897 163.66 73.5136 163.572C73.4502 163.47 73.4058 163.356 73.3804 163.229C73.2409 163.204 73.1458 163.159 73.0951 163.096C73.0571 163.02 73.0254 162.963 73 162.925C73 162.823 73.0444 162.754 73.1332 162.716C73.2346 162.665 73.3868 162.538 73.5897 162.335C73.6784 162.246 73.8053 162.164 73.9701 162.088C74.1476 161.999 74.3315 161.917 74.5217 161.841C74.712 161.764 74.8958 161.701 75.0734 161.65C75.2636 161.587 75.4284 161.543 75.5679 161.517L76.5 161.365C76.5761 160.122 76.6522 158.987 76.7283 157.96C76.8043 156.933 76.8741 155.982 76.9375 155.107C77.0009 154.232 77.0516 153.42 77.0897 152.672C77.1404 151.911 77.1658 151.176 77.1658 150.466C77.1658 150.263 77.1594 150.072 77.1467 149.895C77.1341 149.717 77.1277 149.527 77.1277 149.324C77.1277 149.172 77.1658 149.045 77.2418 148.944C77.3306 148.83 77.4384 148.76 77.5652 148.735H77.7935C77.933 148.735 78.1929 148.754 78.5734 148.792C78.6241 148.665 78.6812 148.582 78.7446 148.544C78.7826 148.519 78.8143 148.506 78.8397 148.506C78.9411 148.506 79.0236 148.532 79.087 148.582C79.163 148.62 79.2138 148.658 79.2391 148.697C79.2391 148.722 79.2455 148.747 79.2582 148.773C79.2708 148.811 79.2899 148.868 79.3152 148.944C79.4167 148.969 79.4928 148.995 79.5435 149.02C79.5942 149.045 79.6386 149.071 79.6766 149.096C79.7147 149.134 79.7464 149.159 79.7717 149.172L79.8288 149.286C79.8669 149.362 79.9049 149.508 79.9429 149.724C80.0317 149.914 80.0888 150.047 80.1141 150.123C80.1268 150.174 80.1332 150.206 80.1332 150.218C80.1332 150.244 80.1395 150.275 80.1522 150.313C80.1522 150.339 80.1522 150.364 80.1522 150.389C80.1649 150.415 80.1712 150.44 80.1712 150.466L79.8859 160.851ZM122 150.466C121.937 150.592 121.873 150.694 121.81 150.77C121.759 150.846 121.715 150.903 121.677 150.941C121.626 150.992 121.582 151.024 121.543 151.036C121.442 151.062 121.239 151.1 120.935 151.15C120.63 151.188 120.218 151.22 119.698 151.245C119.318 151.271 118.798 151.328 118.139 151.417C117.479 151.493 116.725 151.594 115.875 151.721C115.038 151.835 114.125 151.956 113.136 152.082C112.147 152.209 111.12 152.317 110.054 152.406C109.953 154.181 109.877 155.995 109.826 157.846C109.788 159.697 109.756 161.562 109.731 163.438C109.706 165.303 109.68 167.167 109.655 169.031C109.642 170.882 109.617 172.702 109.579 174.49C109.579 174.553 109.553 174.617 109.503 174.68C109.452 174.731 109.414 174.775 109.389 174.813C109.325 175.067 109.211 175.289 109.046 175.479C108.881 175.657 108.71 175.745 108.533 175.745C108 175.745 107.588 175.663 107.296 175.498C107.017 175.333 106.776 175.156 106.573 174.966C106.485 174.851 106.396 174.687 106.307 174.471C106.231 174.243 106.161 173.995 106.098 173.729C106.034 173.45 105.977 173.158 105.927 172.854C105.876 172.537 105.844 172.239 105.832 171.96C105.806 171.681 105.787 171.408 105.774 171.142C105.762 170.876 105.755 170.603 105.755 170.324C105.755 169.716 105.774 169.12 105.813 168.536C105.851 167.953 105.882 167.408 105.908 166.9C105.92 166.583 105.939 166.133 105.965 165.55C106.003 164.966 106.047 164.301 106.098 163.553C106.149 162.804 106.206 162.005 106.269 161.156C106.332 160.293 106.409 159.431 106.497 158.569C106.599 157.706 106.707 156.87 106.821 156.058C106.935 155.234 107.062 154.485 107.201 153.813C107.265 153.61 107.322 153.414 107.372 153.224C107.423 153.021 107.467 152.812 107.505 152.596C106.339 152.672 105.197 152.71 104.082 152.71C102.649 152.71 101.285 152.628 99.9919 152.463C98.6984 152.285 97.5951 151.981 96.6821 151.55C96.5679 151.486 96.5045 151.372 96.4919 151.207C96.4665 151.043 96.4158 150.871 96.3397 150.694C96.2382 150.554 96.2002 150.402 96.2256 150.237C96.2509 150.06 96.2636 149.914 96.2636 149.8C96.2509 149.686 96.289 149.61 96.3777 149.572C96.4538 149.533 96.6187 149.521 96.8723 149.533C97.1132 149.533 97.4493 149.546 97.8804 149.572C98.3243 149.597 98.9013 149.61 99.6114 149.61C100.144 149.61 100.753 149.597 101.438 149.572C102.122 149.546 102.902 149.502 103.777 149.438C104.208 149.4 104.83 149.343 105.641 149.267C106.466 149.178 107.391 149.096 108.418 149.02C109.458 148.931 110.562 148.855 111.728 148.792C112.895 148.728 114.049 148.697 115.19 148.697C115.621 148.697 116.103 148.722 116.636 148.773C117.168 148.811 117.695 148.868 118.215 148.944C118.747 149.02 119.236 149.109 119.679 149.21C120.136 149.312 120.51 149.413 120.802 149.514C120.992 149.591 121.106 149.66 121.144 149.724C121.182 149.774 121.195 149.819 121.182 149.857C121.182 149.895 121.176 149.927 121.163 149.952C121.15 149.977 121.182 150.003 121.258 150.028C121.334 150.053 121.417 150.072 121.505 150.085C121.594 150.098 121.677 150.123 121.753 150.161C121.829 150.187 121.892 150.225 121.943 150.275C121.994 150.326 122.013 150.389 122 150.466ZM146.633 175.232C146.608 175.333 146.595 175.435 146.595 175.536C146.608 175.625 146.601 175.688 146.576 175.726C146.563 175.764 146.519 175.758 146.443 175.707C146.367 175.644 146.234 175.511 146.044 175.308L145.549 175.156L145.34 175.365C145.302 175.403 145.264 175.435 145.226 175.46C145.124 175.549 145.029 175.562 144.94 175.498C144.864 175.422 144.763 175.333 144.636 175.232C144.534 175.143 144.458 175.086 144.408 175.061C144.37 175.035 144.344 175.035 144.332 175.061C144.332 175.073 144.332 175.118 144.332 175.194C144.344 175.257 144.344 175.333 144.332 175.422C144.332 175.46 144.3 175.53 144.236 175.631C144.173 175.72 144.141 175.783 144.141 175.822C144.116 175.936 144.078 175.974 144.027 175.936C143.976 175.898 143.926 175.885 143.875 175.898C143.85 175.898 143.812 175.885 143.761 175.86C143.723 175.834 143.672 175.796 143.609 175.745C143.558 175.695 143.501 175.612 143.438 175.498C143.387 175.371 143.342 175.27 143.304 175.194C143.266 175.105 143.228 175.016 143.19 174.928C143.152 174.839 143.108 174.731 143.057 174.604C143.019 174.477 142.975 174.312 142.924 174.11C142.886 173.907 142.835 173.533 142.772 172.987C142.708 172.442 142.639 171.789 142.563 171.028C142.486 170.255 142.398 169.392 142.296 168.441C142.207 167.49 142.112 166.495 142.011 165.455C141.922 164.415 141.827 163.362 141.726 162.297C141.624 161.219 141.529 160.179 141.44 159.178C141.351 158.163 141.269 157.206 141.193 156.305C141.117 155.405 141.047 154.612 140.984 153.928L133.185 173.368C133.033 173.735 132.855 174.072 132.652 174.376C132.449 174.668 132.24 174.908 132.024 175.099C131.822 175.276 131.619 175.397 131.416 175.46C131.226 175.524 131.067 175.511 130.94 175.422C130.75 175.295 130.592 175.143 130.465 174.966C130.351 174.775 130.249 174.579 130.16 174.376C130.084 174.16 130.015 173.938 129.951 173.71C129.888 173.482 129.812 173.247 129.723 173.006C129.596 172.639 129.431 172.049 129.228 171.237C129.038 170.426 128.816 169.481 128.563 168.403C128.309 167.312 128.043 166.127 127.764 164.846C127.485 163.553 127.199 162.246 126.908 160.928C126.616 159.596 126.331 158.296 126.052 157.028C125.785 155.747 125.532 154.568 125.291 153.49C125.227 153.934 125.126 154.581 124.986 155.43C124.847 156.267 124.682 157.231 124.492 158.322C124.314 159.399 124.118 160.56 123.902 161.803C123.687 163.045 123.471 164.288 123.255 165.531C123.053 166.774 122.85 167.978 122.647 169.145C122.457 170.312 122.279 171.364 122.114 172.303C121.962 173.241 121.829 174.021 121.715 174.642C121.613 175.251 121.556 175.631 121.543 175.783C121.543 175.898 121.518 176.018 121.467 176.145C121.429 176.246 121.372 176.354 121.296 176.468C121.233 176.595 121.144 176.716 121.03 176.83C120.928 176.868 120.827 176.906 120.726 176.944C120.624 176.982 120.535 176.982 120.459 176.944C120.37 176.906 120.32 176.836 120.307 176.735C120.294 176.646 120.225 176.563 120.098 176.487C120.022 176.424 119.939 176.373 119.851 176.335C119.762 176.31 119.679 176.227 119.603 176.088C119.603 175.999 119.591 175.929 119.565 175.879C119.553 175.853 119.54 175.834 119.527 175.822C119.515 175.809 119.495 175.783 119.47 175.745C119.445 175.707 119.369 175.625 119.242 175.498C119.166 175.346 119.109 175.181 119.071 175.004C119.045 174.813 119.064 174.579 119.128 174.3C119.153 174.211 119.204 173.983 119.28 173.615C119.356 173.235 119.445 172.778 119.546 172.245C119.66 171.7 119.781 171.104 119.908 170.457C120.034 169.798 120.161 169.132 120.288 168.46C120.415 167.788 120.529 167.141 120.63 166.52C120.745 165.899 120.84 165.347 120.916 164.865C120.992 164.447 121.112 163.857 121.277 163.096C121.455 162.322 121.658 161.466 121.886 160.528C122.114 159.59 122.355 158.607 122.609 157.58C122.875 156.553 123.129 155.563 123.37 154.612C123.611 153.649 123.826 152.767 124.016 151.968C124.219 151.157 124.371 150.51 124.473 150.028C124.447 149.965 124.428 149.901 124.416 149.838C124.403 149.774 124.397 149.711 124.397 149.648C124.346 149.521 124.352 149.451 124.416 149.438C124.492 149.426 124.549 149.4 124.587 149.362C124.587 149.337 124.593 149.318 124.606 149.305C124.619 149.293 124.625 149.274 124.625 149.248C124.625 149.172 124.638 149.134 124.663 149.134C124.663 148.969 124.688 148.861 124.739 148.811C124.79 148.76 124.841 148.728 124.891 148.716C124.955 148.703 125.012 148.697 125.063 148.697C125.113 148.697 125.145 148.658 125.158 148.582C125.183 148.418 125.208 148.31 125.234 148.259C125.272 148.196 125.31 148.17 125.348 148.183C125.399 148.183 125.462 148.208 125.538 148.259C125.614 148.297 125.709 148.341 125.823 148.392C125.887 148.418 125.938 148.43 125.976 148.43C126.026 148.418 126.077 148.418 126.128 148.43C126.178 148.43 126.236 148.443 126.299 148.468C126.375 148.494 126.464 148.544 126.565 148.62C126.641 148.684 126.705 148.716 126.755 148.716C126.819 148.716 126.87 148.697 126.908 148.658C126.958 148.62 126.996 148.576 127.022 148.525C127.06 148.475 127.092 148.43 127.117 148.392C127.155 148.329 127.212 148.297 127.288 148.297C127.364 148.297 127.434 148.329 127.497 148.392C127.573 148.494 127.63 148.563 127.668 148.601C127.719 148.639 127.751 148.671 127.764 148.697C127.789 148.709 127.802 148.722 127.802 148.735C127.802 148.735 127.808 148.754 127.821 148.792C128.011 149.362 128.176 149.958 128.315 150.58C128.467 151.201 128.62 151.911 128.772 152.71C128.937 153.509 129.127 154.435 129.342 155.487C129.558 156.527 129.831 157.757 130.16 159.178C130.706 161.587 131.181 163.616 131.587 165.264C131.993 166.9 132.335 168.13 132.614 168.955C132.868 168.371 133.172 167.661 133.527 166.824C133.895 165.987 134.282 165.081 134.688 164.104C135.093 163.115 135.518 162.094 135.962 161.042C136.406 159.976 136.843 158.924 137.274 157.884C137.706 156.844 138.118 155.849 138.511 154.898C138.917 153.947 139.272 153.091 139.576 152.33C139.893 151.569 140.159 150.928 140.375 150.408C140.591 149.889 140.73 149.553 140.794 149.4C140.87 149.223 140.927 149.077 140.965 148.963C141.015 148.849 141.072 148.76 141.136 148.697C141.174 148.595 141.225 148.525 141.288 148.487C141.364 148.437 141.447 148.43 141.535 148.468C141.561 148.494 141.592 148.513 141.63 148.525C141.656 148.551 141.681 148.57 141.707 148.582C141.745 148.582 141.776 148.595 141.802 148.62C141.814 148.557 141.84 148.525 141.878 148.525C141.916 148.513 141.96 148.506 142.011 148.506C142.062 148.519 142.119 148.532 142.182 148.544H142.239H142.315C142.353 148.519 142.391 148.5 142.429 148.487C142.467 148.462 142.505 148.468 142.544 148.506C142.658 148.57 142.734 148.576 142.772 148.525C142.822 148.462 142.899 148.43 143 148.43C143.063 148.43 143.12 148.424 143.171 148.411C143.209 148.399 143.247 148.386 143.285 148.373C143.323 148.348 143.349 148.316 143.361 148.278C143.412 148.278 143.45 148.284 143.476 148.297C143.514 148.31 143.545 148.322 143.571 148.335L143.628 148.392C143.666 148.443 143.723 148.665 143.799 149.058C143.875 149.438 143.957 149.914 144.046 150.485C144.148 151.043 144.243 151.651 144.332 152.311C144.433 152.97 144.522 153.598 144.598 154.194C144.623 154.397 144.674 154.847 144.75 155.544C144.826 156.229 144.915 157.072 145.016 158.074C145.118 159.063 145.232 160.167 145.359 161.384C145.486 162.601 145.612 163.831 145.739 165.074C145.866 166.317 145.986 167.534 146.101 168.726C146.215 169.906 146.31 170.965 146.386 171.903C146.475 172.841 146.538 173.615 146.576 174.224C146.627 174.82 146.646 175.156 146.633 175.232ZM169.592 173.254C169.656 173.342 169.694 173.406 169.707 173.444C169.719 173.482 169.713 173.514 169.688 173.539C169.675 173.552 169.649 173.564 169.611 173.577C169.573 173.59 169.542 173.609 169.516 173.634C169.453 173.672 169.434 173.71 169.459 173.748C169.497 173.786 169.478 173.856 169.402 173.957C169.351 173.995 169.345 174.04 169.383 174.091C169.421 174.129 169.428 174.16 169.402 174.186C169.212 174.477 169.066 174.661 168.965 174.737C168.863 174.737 168.774 174.75 168.698 174.775C168.66 174.788 168.635 174.801 168.622 174.813C168.584 174.851 168.546 174.902 168.508 174.966C168.47 175.016 168.438 175.067 168.413 175.118C168.388 175.156 168.356 175.187 168.318 175.213C168.293 175.226 168.261 175.207 168.223 175.156C168.185 175.092 168.134 175.061 168.071 175.061C168.02 175.061 167.982 175.08 167.957 175.118C167.931 175.143 167.899 175.175 167.861 175.213C167.823 175.238 167.798 175.27 167.785 175.308C167.785 175.333 167.804 175.365 167.842 175.403C167.88 175.428 167.969 175.46 168.109 175.498C168.426 175.587 168.483 175.676 168.28 175.764C168.09 175.841 167.722 175.86 167.177 175.822C166.657 175.783 166.162 175.752 165.693 175.726C165.224 175.688 164.755 175.663 164.285 175.65C163.829 175.625 163.36 175.606 162.878 175.593C162.396 175.581 161.882 175.581 161.337 175.593C160.614 175.606 159.847 175.638 159.035 175.688C158.236 175.739 157.438 175.796 156.639 175.86C155.852 175.923 155.092 175.986 154.356 176.05C153.633 176.126 152.98 176.196 152.397 176.259C151.813 176.322 151.319 176.38 150.913 176.43C150.52 176.494 150.266 176.538 150.152 176.563C150.038 176.601 149.956 176.614 149.905 176.601C149.867 176.601 149.835 176.57 149.81 176.506C149.797 176.443 149.784 176.348 149.772 176.221C149.759 176.094 149.727 175.923 149.677 175.707C149.639 175.581 149.582 175.454 149.505 175.327C149.442 175.187 149.398 175.08 149.372 175.004C149.334 174.801 149.322 174.661 149.334 174.585C149.347 174.496 149.423 174.439 149.563 174.414L151.902 173.786C151.763 172.911 151.661 171.89 151.598 170.724C151.547 169.544 151.522 168.27 151.522 166.9C151.522 165.721 151.547 164.516 151.598 163.286C151.649 162.043 151.725 160.794 151.826 159.539C152.08 156.369 152.289 153.94 152.454 152.254C152.631 150.554 152.796 149.565 152.948 149.286C152.986 149.223 153.018 149.166 153.044 149.115C153.069 149.052 153.107 149.02 153.158 149.02C153.234 148.982 153.291 148.988 153.329 149.039C153.367 149.09 153.437 149.096 153.538 149.058C153.563 149.058 153.582 149.045 153.595 149.02C153.621 148.982 153.652 148.944 153.69 148.906L153.728 148.887C153.754 148.861 153.804 148.83 153.88 148.792C154.071 148.855 154.21 148.912 154.299 148.963C154.35 148.988 154.381 149.007 154.394 149.02C154.47 149.058 154.546 149.128 154.622 149.229C154.698 149.318 154.768 149.324 154.832 149.248L154.87 149.21C154.895 149.185 154.933 149.172 154.984 149.172C155.022 149.197 155.06 149.223 155.098 149.248C155.136 149.274 155.168 149.299 155.193 149.324C155.231 149.362 155.263 149.388 155.288 149.4C155.351 149.438 155.409 149.489 155.459 149.553C155.51 149.616 155.561 149.736 155.611 149.914C155.662 150.142 155.669 150.611 155.63 151.322C155.605 152.032 155.554 152.907 155.478 153.947C155.415 154.986 155.345 156.153 155.269 157.447C155.193 158.74 155.149 160.084 155.136 161.479C155.123 162.126 155.104 162.823 155.079 163.572C155.053 164.307 155.028 165.068 155.003 165.854C154.977 166.628 154.952 167.395 154.927 168.156C154.914 168.917 154.908 169.639 154.908 170.324C154.908 170.87 154.908 171.383 154.908 171.865C154.92 172.334 154.958 172.74 155.022 173.082C156.404 172.791 157.951 172.531 159.663 172.303C161.388 172.074 163.226 171.96 165.179 171.96C165.89 171.96 166.479 171.998 166.948 172.074C167.43 172.138 167.83 172.233 168.147 172.36C168.223 172.385 168.331 172.436 168.47 172.512C168.61 172.575 168.755 172.651 168.908 172.74C169.06 172.829 169.199 172.918 169.326 173.006C169.453 173.095 169.542 173.178 169.592 173.254Z" fill="white"/>
<path d="M88.7064 129.512L82.9912 65.4139H145.79L140.067 129.502L114.352 136.631L88.7064 129.512Z" fill="#E44F26"/>
<path d="M114.391 131.183L135.171 125.422L140.06 70.6561H114.391V131.183Z" fill="#F1662A"/>
<path d="M114.391 94.4274H103.988L103.271 86.3773H114.391V78.5154H94.6787L94.8669 80.6265L96.7974 102.289H114.391V94.4274ZM114.391 114.844L114.355 114.854L105.6 112.491L105.041 106.222H97.1484L98.2498 118.562L114.355 123.034L114.391 123.024V114.844Z" fill="#EBEBEB"/>
<path d="M114.362 94.4274V102.289H124.043L123.132 112.486L114.362 114.852V123.031L130.48 118.562L130.597 117.235L132.444 96.5385L132.637 94.4274H114.362ZM114.362 78.5154V86.3773H133.352L133.51 84.6121L133.868 80.6265L134.056 78.5154H114.362Z" fill="white"/>
</svg>
