<svg width="143" height="142" viewBox="0 0 143 142" fill="none" xmlns="http://www.w3.org/2000/svg">
<circle cx="71.4688" cy="70.9266" r="70.7481" fill="#C5581A"/>
<path d="M45.8216 80.925C45.8216 80.9618 45.7434 81.155 45.587 81.5045C45.4306 81.8541 45.2191 82.3187 44.9523 82.8983C44.6855 83.4686 44.3681 84.1356 44.0001 84.8992C43.6413 85.6627 43.255 86.4723 42.841 87.3278C42.427 88.1834 41.9992 89.0665 41.5577 89.9773C41.1161 90.888 40.6791 91.7804 40.2467 92.6543C39.8236 93.5283 39.4142 94.3654 39.0186 95.1658C38.6322 95.957 38.2826 96.6653 37.9699 97.2909C37.6663 97.9165 37.4087 98.4408 37.1971 98.864C36.9947 99.278 36.8613 99.5448 36.7969 99.6644C36.7693 99.738 36.7279 99.7794 36.6727 99.7886C36.6267 99.7978 36.5669 99.8024 36.4933 99.8024C36.4381 99.8024 36.3967 99.7886 36.3691 99.761C36.3507 99.7426 36.3277 99.7472 36.3001 99.7748C36.2357 99.8116 36.1714 99.807 36.107 99.761C36.0518 99.7242 36.0104 99.7196 35.9828 99.7472C35.8816 99.8392 35.8034 99.8897 35.7482 99.8989C35.693 99.9173 35.6654 99.8667 35.6654 99.7472C35.6746 99.5172 35.6378 99.1492 35.555 98.6432C35.4814 98.128 35.371 97.5255 35.2238 96.8355C35.0858 96.1364 34.9202 95.3774 34.727 94.5586C34.5338 93.7399 34.3315 92.9027 34.1199 92.0472C33.9083 91.1916 33.6967 90.3453 33.4851 89.5081C33.2735 88.671 33.0711 87.8936 32.8779 87.176C32.6847 86.4493 32.5145 85.8053 32.3674 85.2441C32.2202 84.683 32.1052 84.2552 32.0224 83.9608C31.8844 84.3104 31.7004 84.7888 31.4704 85.3959C31.2404 85.9939 30.9874 86.6701 30.7114 87.4244C30.4355 88.1788 30.1457 88.9837 29.8421 89.8393C29.5385 90.6856 29.2349 91.5274 28.9313 92.3646C28.6278 93.2017 28.338 94.0113 28.062 94.7932C27.7952 95.566 27.556 96.2559 27.3444 96.8631C27.1328 97.4611 26.9626 97.9487 26.8339 98.3258C26.7051 98.703 26.6361 98.9146 26.6269 98.9606C26.6085 98.9882 26.5855 99.025 26.5579 99.071C26.5303 99.117 26.4981 99.1722 26.4613 99.2366C26.4245 99.2918 26.3693 99.3608 26.2957 99.4436C26.2313 99.462 26.1761 99.4758 26.1301 99.485C26.0933 99.4942 26.0519 99.4988 26.0059 99.4988C25.9415 99.5356 25.8863 99.5678 25.8403 99.5954C25.7943 99.6322 25.7529 99.6598 25.7161 99.6782C25.6793 99.7058 25.6425 99.7288 25.6057 99.7472C25.5597 99.7932 25.5137 99.83 25.4677 99.8575C25.4217 99.8851 25.3757 99.9081 25.3297 99.9265C25.3113 99.9265 25.2699 99.9173 25.2055 99.8989C25.1503 99.8805 25.0906 99.8575 25.0262 99.83C24.971 99.8024 24.9158 99.7702 24.8606 99.7334C24.8054 99.7058 24.7732 99.6736 24.764 99.6368C24.718 99.508 24.6444 99.2688 24.5432 98.9192C24.442 98.5696 24.3178 98.1372 24.1706 97.6221C24.0326 97.1069 23.8762 96.5227 23.7014 95.8696C23.5358 95.2164 23.3518 94.5264 23.1495 93.7997C22.9563 93.0729 22.7539 92.3232 22.5423 91.5504C22.3399 90.7776 22.1375 90.0095 21.9351 89.2459C21.7787 88.648 21.6131 88.0362 21.4383 87.4106C21.2636 86.7851 21.0888 86.1687 20.914 85.5615C20.7392 84.9544 20.569 84.3748 20.4034 83.8228C20.247 83.2708 20.0998 82.7741 19.9618 82.3325C19.833 81.8817 19.7226 81.5045 19.6306 81.201C19.5387 80.8882 19.4789 80.6766 19.4513 80.5662C19.4329 80.4834 19.4559 80.419 19.5203 80.373C19.5938 80.3178 19.672 80.327 19.7548 80.4006C19.8192 80.4466 19.8698 80.4512 19.9066 80.4144C19.9526 80.3776 19.9986 80.3592 20.0446 80.3592C20.0722 80.3592 20.1136 80.3684 20.1688 80.3868C20.2332 80.4052 20.2976 80.4282 20.362 80.4558C20.4264 80.4742 20.4862 80.4972 20.5414 80.5248C20.6058 80.5524 20.6564 80.5754 20.6932 80.5938C20.73 80.6122 20.753 80.6168 20.7622 80.6076C20.7806 80.5984 20.7944 80.58 20.8036 80.5524C20.822 80.5248 20.8358 80.4972 20.845 80.4696C20.8634 80.442 20.8956 80.419 20.9416 80.4006C21.0428 80.3638 21.1394 80.3684 21.2314 80.4144C21.3234 80.4604 21.4062 80.4926 21.4797 80.511C21.5349 80.5202 21.5625 80.5156 21.5625 80.4972C21.5625 80.4696 21.5579 80.442 21.5487 80.4144C21.5487 80.3776 21.5533 80.35 21.5625 80.3316C21.5809 80.304 21.6315 80.2948 21.7143 80.304C21.8431 80.304 21.9489 80.3362 22.0317 80.4006C22.1237 80.4558 22.2065 80.6306 22.2801 80.925C22.2985 80.9986 22.3583 81.224 22.4595 81.6011C22.5699 81.9691 22.7033 82.4429 22.8597 83.0225C23.0253 83.602 23.2093 84.2598 23.4116 84.9958C23.614 85.7317 23.8256 86.4999 24.0464 87.3002C24.2672 88.0914 24.488 88.8917 24.7088 89.7013C24.9388 90.5017 25.1549 91.2652 25.3573 91.992C25.5597 92.7187 25.7391 93.3765 25.8955 93.9653C26.0611 94.554 26.1945 95.0324 26.2957 95.4004C26.5533 94.8944 26.8431 94.2597 27.165 93.4961C27.487 92.7233 27.8182 91.8954 28.1586 91.0122C28.499 90.1291 28.8393 89.2275 29.1797 88.3076C29.5201 87.3784 29.8375 86.4999 30.1319 85.6719C30.4355 84.844 30.7022 84.0988 30.9322 83.4364C31.1622 82.7741 31.337 82.2681 31.4566 81.9185C31.5302 81.7069 31.5808 81.5183 31.6084 81.3528C31.6452 81.178 31.6912 81.017 31.7464 80.8698C31.8016 80.7594 31.8798 80.6352 31.981 80.4972C32.0822 80.3592 32.1558 80.2764 32.2018 80.2488C32.3306 80.1936 32.4364 80.1752 32.5191 80.1936C32.6111 80.2028 32.7215 80.2212 32.8503 80.2488C32.8963 80.258 32.9239 80.2488 32.9331 80.2212C32.9515 80.1936 32.9653 80.1614 32.9745 80.1246C32.9837 80.0786 32.9975 80.0326 33.0159 79.9866C33.0343 79.9406 33.0803 79.8992 33.1539 79.8624C33.3839 79.7428 33.5265 79.6922 33.5817 79.7106C33.6369 79.729 33.6921 79.844 33.7473 80.0556C33.7565 80.1016 33.8025 80.3132 33.8853 80.6904C33.9773 81.0584 34.0923 81.5367 34.2303 82.1255C34.3774 82.7143 34.5384 83.3904 34.7132 84.154C34.8972 84.9176 35.0904 85.7133 35.2928 86.5413C35.5044 87.3692 35.7114 88.2064 35.9138 89.0527C36.1254 89.8899 36.3277 90.6856 36.5209 91.44C36.7233 92.1852 36.9073 92.8659 37.0729 93.4823C37.2477 94.0895 37.3949 94.577 37.5145 94.945C37.6341 94.6874 37.8043 94.3332 38.025 93.8825C38.255 93.4317 38.5126 92.9165 38.7978 92.337C39.083 91.7482 39.3958 91.1134 39.7362 90.4327C40.0765 89.7427 40.4215 89.0343 40.7711 88.3076C41.1207 87.5808 41.4657 86.8541 41.806 86.1273C42.1556 85.3913 42.4822 84.683 42.7858 84.0022C43.0894 83.3214 43.3654 82.6867 43.6137 82.0979C43.8713 81.4999 44.0783 80.9802 44.2347 80.5386C44.2623 80.4558 44.3083 80.373 44.3727 80.2902C44.4371 80.2074 44.5015 80.1338 44.5659 80.0694C44.6395 79.9958 44.7039 79.9406 44.7591 79.9038C44.8235 79.8578 44.8649 79.8348 44.8833 79.8348C44.9569 79.8532 45.0259 79.8762 45.0903 79.9038C45.1547 79.9314 45.2007 79.9728 45.2283 80.028C45.2651 80.0648 45.2835 80.1016 45.2835 80.1384C45.2927 80.166 45.2973 80.1936 45.2973 80.2212C45.3065 80.2488 45.3203 80.2718 45.3387 80.2902C45.3571 80.2994 45.3939 80.304 45.449 80.304C45.541 80.304 45.6008 80.327 45.6284 80.373C45.656 80.419 45.6698 80.465 45.6698 80.511C45.679 80.557 45.6836 80.603 45.6836 80.649C45.6836 80.6858 45.702 80.695 45.7388 80.6766C45.7848 80.6766 45.8078 80.7134 45.8078 80.787C45.817 80.8514 45.8216 80.8974 45.8216 80.925ZM53.7148 93.7031C53.7148 94.669 53.5722 95.5384 53.287 96.3111C53.011 97.0839 52.6293 97.7417 52.1417 98.2844C51.6633 98.8272 51.1067 99.2458 50.472 99.5402C49.8372 99.8346 49.1656 99.9817 48.4573 99.9817C48.1629 99.9817 47.8409 99.9449 47.4913 99.8713C47.1418 99.807 46.7922 99.6966 46.4426 99.5402C46.093 99.3838 45.7526 99.1768 45.4214 98.9192C45.0903 98.6616 44.7959 98.3442 44.5383 97.9671C44.2807 97.5899 44.0737 97.1483 43.9173 96.6423C43.7701 96.1364 43.7011 95.5522 43.7103 94.8898C43.7103 94.1355 43.8023 93.4501 43.9863 92.8337C44.1703 92.2082 44.4049 91.6516 44.6901 91.164C44.9845 90.6672 45.3157 90.2395 45.6836 89.8807C46.0516 89.5219 46.4196 89.2229 46.7876 88.9837C47.1556 88.7354 47.5097 88.5514 47.8501 88.4318C48.1905 88.3122 48.4849 88.2432 48.7333 88.2248C48.8621 88.2156 48.9173 88.2294 48.8989 88.2662C48.8897 88.303 48.8575 88.3444 48.8023 88.3904C48.7471 88.4364 48.6965 88.4824 48.6505 88.5284C48.6137 88.5744 48.6321 88.602 48.7057 88.6112C48.7701 88.6296 48.8207 88.648 48.8575 88.6664C48.9035 88.6848 48.9495 88.7078 48.9955 88.7354L49.1058 88.6112C49.1702 88.5652 49.23 88.5422 49.2852 88.5422C49.3496 88.5422 49.4048 88.5514 49.4508 88.5698C49.4968 88.579 49.5336 88.5836 49.5612 88.5836C49.5888 88.5836 49.6072 88.556 49.6164 88.5008C49.6348 88.3996 49.667 88.3444 49.713 88.3352C49.7682 88.3168 49.8878 88.3076 50.0718 88.3076C50.1822 88.3076 50.3478 88.3398 50.5686 88.4042C50.7986 88.4686 51.0469 88.579 51.3137 88.7354C51.5897 88.8917 51.8657 89.1033 52.1417 89.3701C52.4269 89.6277 52.6845 89.9589 52.9144 90.3637C53.1536 90.7592 53.3468 91.233 53.494 91.785C53.6412 92.337 53.7148 92.9763 53.7148 93.7031ZM48.7333 89.6599C48.4113 89.8531 48.0939 90.1153 47.7811 90.4465C47.4683 90.7776 47.1832 91.1594 46.9256 91.5918C46.6772 92.0242 46.4748 92.5071 46.3184 93.0407C46.162 93.5743 46.0838 94.1355 46.0838 94.7242C46.0838 95.359 46.139 95.934 46.2494 96.4491C46.369 96.9643 46.5392 97.4059 46.76 97.7739C46.9808 98.1326 47.2475 98.4132 47.5603 98.6156C47.8823 98.8088 48.2457 98.9054 48.6505 98.9054C49.0093 98.9054 49.3634 98.8042 49.713 98.6018C50.0718 98.3994 50.3892 98.0958 50.6652 97.6911C50.9411 97.2863 51.1619 96.7849 51.3275 96.1869C51.5023 95.589 51.5897 94.8944 51.5897 94.1033C51.5897 93.3029 51.4839 92.6313 51.2723 92.0886C51.0607 91.5458 50.8216 91.1088 50.5548 90.7776C50.2972 90.4373 50.0488 90.1981 49.8096 90.0601C49.5704 89.9129 49.4232 89.8393 49.368 89.8393C49.2392 89.8393 49.138 89.8393 49.0645 89.8393C49.0001 89.8393 48.8897 89.7795 48.7333 89.6599ZM62.3945 89.6047C62.3853 89.8715 62.3577 90.1383 62.3117 90.4051C62.2749 90.6626 62.2197 90.911 62.1461 91.1502C62.0725 91.3802 61.9806 91.5872 61.8702 91.7712C61.769 91.9552 61.654 92.1024 61.5252 92.2128C61.4148 92.3048 61.3274 92.3508 61.263 92.3508C61.1986 92.3508 61.1434 92.3324 61.0974 92.2956C61.0606 92.2588 61.0284 92.2174 61.0008 92.1714C60.9732 92.1254 60.9364 92.0978 60.8904 92.0886C60.8536 92.0794 60.803 92.084 60.7386 92.1024C60.6834 92.1116 60.6236 92.1116 60.5592 92.1024C60.504 92.0932 60.4488 92.061 60.3936 92.0058C60.3476 91.9414 60.3154 91.831 60.297 91.6746C60.2786 91.4998 60.2832 91.2744 60.3108 90.9984C60.3476 90.7132 60.366 90.4373 60.366 90.1705C60.366 89.9313 60.3384 89.7335 60.2832 89.5771C60.2372 89.4115 60.1498 89.3287 60.0211 89.3287C59.9567 89.3287 59.8417 89.3793 59.6761 89.4805C59.5197 89.5725 59.3449 89.7749 59.1517 90.0877C58.9585 90.4005 58.7653 90.8558 58.5721 91.4538C58.3789 92.0426 58.2226 92.8291 58.103 93.8135C58.103 95.083 58.1122 96.1042 58.1306 96.8769C58.149 97.6497 58.1582 98.2522 58.1582 98.6846C58.1582 99.0526 58.149 99.3148 58.1306 99.4712C58.1122 99.6276 58.0662 99.7288 57.9926 99.7748C57.9466 99.8024 57.8546 99.8346 57.7166 99.8713C57.5878 99.9173 57.4452 99.9587 57.2888 99.9955C57.1416 100.032 56.999 100.065 56.861 100.092C56.723 100.12 56.6356 100.129 56.5988 100.12C56.5712 100.111 56.5206 100.078 56.4471 100.023C56.3735 99.9771 56.2953 99.9173 56.2125 99.8437C56.1389 99.7702 56.0699 99.692 56.0055 99.6092C55.9411 99.5356 55.9043 99.4712 55.8951 99.416C55.8767 99.324 55.8675 99.117 55.8675 98.795C55.8767 98.4638 55.8813 98.0682 55.8813 97.6083C55.8905 97.1483 55.8997 96.6469 55.9089 96.1042C55.9181 95.5522 55.9227 95.0048 55.9227 94.462C55.9227 94.1125 55.9319 93.7261 55.9503 93.3029C55.9779 92.8705 56.0055 92.4336 56.0331 91.992C56.0699 91.5504 56.1067 91.118 56.1435 90.6948C56.1803 90.2717 56.2125 89.8945 56.2401 89.5633C56.2769 89.2229 56.3045 88.9423 56.3229 88.7216C56.3505 88.4916 56.3689 88.3536 56.3781 88.3076C56.3873 88.234 56.4195 88.2064 56.4746 88.2248C56.539 88.2432 56.6034 88.2754 56.6678 88.3214C56.7414 88.3674 56.8058 88.4088 56.861 88.4456C56.9162 88.4824 56.953 88.4824 56.9714 88.4456C56.9898 88.3628 57.0588 88.3536 57.1784 88.418C57.298 88.4732 57.4084 88.5376 57.5096 88.6112C57.5464 88.6572 57.5878 88.6986 57.6338 88.7354C57.689 88.763 57.7396 88.8043 57.7856 88.8595C57.8316 88.9055 57.8684 88.9699 57.896 89.0527C57.9328 89.1355 57.9512 89.2459 57.9512 89.3839C57.9512 89.5127 57.9604 89.7059 57.9788 89.9635C57.9972 90.2211 58.0202 90.5247 58.0478 90.8742C58.149 90.5431 58.2686 90.1935 58.4065 89.8255C58.5537 89.4575 58.7285 89.1217 58.9309 88.8181C59.1333 88.5054 59.3725 88.2478 59.6485 88.0454C59.9245 87.843 60.2556 87.7418 60.642 87.7418C60.8536 87.7418 61.0652 87.7832 61.2768 87.866C61.4884 87.9488 61.677 88.073 61.8426 88.2386C62.0173 88.395 62.1553 88.5882 62.2565 88.8181C62.3577 89.0481 62.4037 89.3103 62.3945 89.6047ZM75.0622 82.0841C75.053 82.2773 75.0254 82.5671 74.9794 82.9535C74.9335 83.3398 74.8737 83.7998 74.8001 84.3334C74.7357 84.8578 74.6667 85.4465 74.5931 86.0997C74.5195 86.7437 74.4505 87.4244 74.3861 88.142C74.3217 88.8503 74.2665 89.5817 74.2205 90.3361C74.1837 91.0812 74.1653 91.8264 74.1653 92.5715C74.1653 92.9579 74.1745 93.3949 74.1929 93.8825C74.2113 94.37 74.2297 94.8668 74.2481 95.3728C74.2757 95.8696 74.3033 96.3617 74.3309 96.8493C74.3585 97.3277 74.3815 97.7601 74.3999 98.1464C74.4183 98.5328 74.4275 98.8502 74.4275 99.0986C74.4275 99.347 74.4137 99.4896 74.3861 99.5264C74.3401 99.5816 74.2803 99.6046 74.2067 99.5954C74.1331 99.5954 74.0595 99.5862 73.9859 99.5678C73.9123 99.5586 73.8387 99.5494 73.7651 99.5402C73.7007 99.531 73.6547 99.5448 73.6271 99.5816C73.6087 99.6276 73.5765 99.6736 73.5305 99.7196C73.4845 99.7748 73.4293 99.8208 73.3649 99.8575C73.3097 99.9035 73.2407 99.9357 73.1579 99.9541C73.0752 99.9725 72.9878 99.9633 72.8958 99.9265C72.7394 99.8346 72.5922 99.7012 72.4542 99.5264C72.3254 99.3608 72.2472 99.1446 72.2196 98.8778C72.192 98.6938 72.169 98.4776 72.1506 98.2292C72.1414 97.9809 72.1322 97.7141 72.123 97.4289C72.1138 97.1345 72.1046 96.8355 72.0954 96.5319C72.0954 96.2191 72.0954 95.9156 72.0954 95.6212C71.8746 96.2283 71.6124 96.7757 71.3088 97.2633C71.0053 97.7417 70.6741 98.1556 70.3153 98.5052C69.9657 98.8548 69.5977 99.14 69.2114 99.3608C68.825 99.5724 68.4432 99.7196 68.066 99.8024C67.5693 99.9035 67.0495 99.8943 66.5067 99.7748C65.9731 99.6644 65.4718 99.4758 65.0026 99.209C64.5426 98.933 64.1424 98.5972 63.8021 98.2016C63.4617 97.7969 63.2409 97.3507 63.1397 96.8631C63.0661 96.5227 63.0155 96.1915 62.9879 95.8696C62.9603 95.5476 62.9465 95.2394 62.9465 94.945C62.9465 94.1631 63.0431 93.4547 63.2363 92.8199C63.4295 92.1852 63.6779 91.6194 63.9814 91.1226C64.285 90.6167 64.6162 90.1797 64.975 89.8117C65.343 89.4437 65.6972 89.1355 66.0375 88.8871C66.3779 88.6388 66.6815 88.4502 66.9483 88.3214C67.2151 88.1926 67.4083 88.1144 67.5279 88.0868C67.7486 88.0224 67.9694 87.981 68.1902 87.9626C68.411 87.9442 68.6226 87.935 68.825 87.935C69.2298 87.935 69.6069 87.9764 69.9565 88.0592C70.3061 88.142 70.6235 88.2478 70.9087 88.3766C71.2031 88.5054 71.4606 88.648 71.6814 88.8043C71.9114 88.9607 72.1092 89.1079 72.2748 89.2459C72.3024 88.694 72.33 88.142 72.3576 87.59C72.3852 87.038 72.4128 86.5137 72.4404 86.0169C72.4772 85.5201 72.5094 85.0602 72.537 84.637C72.5738 84.2138 72.6152 83.855 72.6612 83.5606C72.7348 83.0639 72.8038 82.6361 72.8682 82.2773C72.9418 81.9185 73.0108 81.6103 73.0752 81.3528C73.1487 81.086 73.2177 80.8606 73.2821 80.6766C73.3557 80.4926 73.4247 80.3316 73.4891 80.1936C73.5259 80.1568 73.5857 80.1384 73.6685 80.1384C73.7605 80.1292 73.8617 80.1384 73.9721 80.166C74.0825 80.1844 74.1975 80.2166 74.3171 80.2626C74.4367 80.3086 74.5471 80.3638 74.6483 80.4282C74.7403 80.4926 74.8185 80.5616 74.8829 80.6352C74.9473 80.7088 74.9978 80.8054 75.0346 80.925C75.0714 81.0446 75.0898 81.1964 75.0898 81.3804C75.099 81.5643 75.0898 81.7989 75.0622 82.0841ZM72.0678 91.1916C72.0678 91.072 72.0724 90.9432 72.0816 90.8052C72.0908 90.658 72.1046 90.5201 72.123 90.3913C72.0494 90.4557 71.9804 90.5155 71.916 90.5707C71.8608 90.6167 71.8194 90.6626 71.7918 90.7086C71.5894 90.9386 71.4514 91.0674 71.3778 91.095C71.3042 91.1134 71.2261 91.0812 71.1433 90.9984C70.5177 90.3729 69.9151 89.9497 69.3356 89.7289C68.7652 89.4989 68.2454 89.3839 67.7762 89.3839C67.4635 89.3839 67.1875 89.4207 66.9483 89.4943C66.7183 89.5587 66.5343 89.6323 66.3963 89.7151C66.1479 89.8623 65.9225 90.0877 65.7202 90.3913C65.5178 90.6856 65.343 91.026 65.1958 91.4124C65.0578 91.7988 64.9474 92.2174 64.8646 92.6681C64.791 93.1097 64.7542 93.5513 64.7542 93.9929C64.7542 94.462 64.8002 94.9128 64.8922 95.3452C64.9934 95.7776 65.1498 96.1593 65.3614 96.4905C65.573 96.8217 65.8489 97.0839 66.1893 97.2771C66.5297 97.4611 66.9437 97.5439 67.4313 97.5255C67.9648 97.4979 68.4478 97.3691 68.8802 97.1391C69.3218 96.9091 69.7127 96.6147 70.0531 96.2559C70.4027 95.8972 70.7017 95.4924 70.9501 95.0416C71.1985 94.5908 71.4054 94.1355 71.571 93.6755C71.7366 93.2155 71.8608 92.7693 71.9436 92.337C72.0264 91.9046 72.0678 91.5228 72.0678 91.1916ZM79.9196 87.935C79.9012 87.9994 79.8874 88.1282 79.8782 88.3214C79.869 88.5146 79.8552 88.7538 79.8368 89.0389C80.2324 88.9285 80.6371 88.8411 81.0511 88.7767C81.4651 88.7124 81.8883 88.6802 82.3206 88.6802C82.799 88.6802 83.2774 88.7354 83.7558 88.8457C84.2341 88.9469 84.6803 89.1263 85.0943 89.3839C85.4163 89.5771 85.6877 89.8853 85.9085 90.3085C86.1384 90.7316 86.327 91.187 86.4742 91.6746C86.557 91.9598 86.6398 92.2772 86.7226 92.6267C86.8054 92.9671 86.8468 93.3443 86.8468 93.7583C86.8468 94.1079 86.8008 94.4712 86.7088 94.8484C86.626 95.2256 86.4742 95.6166 86.2534 96.0214C86.0326 96.4169 85.7337 96.8263 85.3565 97.2495C84.9793 97.6635 84.4963 98.082 83.9076 98.5052C83.3372 98.9192 82.8266 99.2366 82.3758 99.4574C81.9343 99.669 81.5571 99.8162 81.2443 99.8989C80.9315 99.9817 80.6877 100.019 80.5129 100.009C80.3474 100.009 80.2508 100 80.2232 99.9817C80.1404 99.9265 80.0576 99.8208 79.9748 99.6644C79.892 99.5172 79.777 99.3562 79.6298 99.1814C79.5838 99.1262 79.5424 99.071 79.5056 99.0158C79.4688 98.9514 79.4274 98.8778 79.3814 98.795C79.3538 99.6782 79.3308 100.543 79.3124 101.389C79.3032 102.236 79.2986 103.027 79.2986 103.763C79.2986 104.223 79.3032 104.65 79.3124 105.046C79.3216 105.451 79.3354 105.814 79.3538 106.136C79.3538 106.256 79.3584 106.371 79.3676 106.481C79.386 106.601 79.3906 106.707 79.3814 106.799C79.3814 106.891 79.363 106.964 79.3262 107.019C79.2894 107.075 79.2204 107.102 79.1192 107.102C78.9352 107.102 78.7926 107.144 78.6914 107.226C78.5995 107.318 78.4891 107.456 78.3603 107.64C78.2867 107.723 78.2085 107.783 78.1257 107.82C78.0429 107.866 77.9555 107.866 77.8635 107.82C77.7807 107.783 77.6933 107.696 77.6013 107.558C77.5185 107.429 77.4403 107.231 77.3667 106.964C77.3391 106.854 77.3115 106.707 77.2839 106.523C77.2655 106.348 77.2471 106.122 77.2287 105.846C77.2195 105.58 77.2103 105.253 77.2011 104.867C77.2011 104.489 77.2011 104.039 77.2011 103.514L77.2563 98.7398C77.2747 97.5347 77.3207 96.3617 77.3943 95.221C77.4679 94.0803 77.5553 93.0085 77.6565 92.0058C77.4265 92.0978 77.2149 92.1668 77.0217 92.2128C76.8285 92.2588 76.709 92.268 76.663 92.2404C76.571 92.2036 76.5112 92.1622 76.4836 92.1162C76.456 92.0702 76.4376 92.0288 76.4284 91.992C76.4192 91.946 76.4054 91.9092 76.387 91.8816C76.3778 91.8448 76.341 91.8218 76.2766 91.8126C76.2122 91.8034 76.157 91.7758 76.111 91.7298C76.065 91.6838 76.0328 91.6378 76.0144 91.5918C76.0052 91.5458 76.0098 91.5044 76.0282 91.4676C76.0558 91.4216 76.1064 91.394 76.18 91.3848C76.2444 91.3756 76.2536 91.3526 76.2076 91.3158C76.1616 91.2698 76.1156 91.2146 76.0696 91.1502C76.0328 91.0766 76.0236 90.9892 76.042 90.888C76.0604 90.7776 76.1754 90.6534 76.387 90.5155C76.4974 90.4235 76.6906 90.3085 76.9665 90.1705C77.2425 90.0233 77.5737 89.8623 77.9601 89.6875C78.0613 88.9699 78.1625 88.3858 78.2637 87.935C78.3741 87.475 78.4707 87.1944 78.5535 87.0932C78.5995 87.0472 78.6316 87.0058 78.65 86.969C78.6684 86.9322 78.6868 86.9001 78.7052 86.8725C78.7236 86.8449 78.7466 86.8219 78.7742 86.8035C78.8018 86.7851 78.8524 86.7667 78.926 86.7483C78.9904 86.7391 79.0456 86.7529 79.0916 86.7897C79.1376 86.8265 79.179 86.8771 79.2158 86.9414C79.2618 86.9966 79.3078 87.0518 79.3538 87.107C79.3998 87.1622 79.455 87.1944 79.5194 87.2036C79.6482 87.222 79.7494 87.291 79.823 87.4106C79.9058 87.521 79.938 87.6958 79.9196 87.935ZM82.569 90.6258C82.1551 90.6258 81.7135 90.6718 81.2443 90.7638C80.7751 90.8558 80.2554 91.0076 79.685 91.2192L79.4366 97.2081C79.5194 97.2357 79.6114 97.2541 79.7126 97.2633C79.8138 97.2633 79.9288 97.2633 80.0576 97.2633C80.3612 97.2633 80.7107 97.2219 81.1063 97.1391C81.5111 97.0563 81.9205 96.9321 82.3344 96.7665C82.7484 96.5917 83.1578 96.3847 83.5626 96.1456C83.9674 95.8972 84.3261 95.612 84.6389 95.29C84.9609 94.968 85.2185 94.6092 85.4117 94.2137C85.6049 93.8181 85.7061 93.3857 85.7153 92.9165C85.7245 92.6405 85.6601 92.3692 85.5221 92.1024C85.3933 91.8264 85.1955 91.578 84.9287 91.3572C84.6711 91.1364 84.3445 90.9616 83.949 90.8328C83.5534 90.6948 83.0934 90.6258 82.569 90.6258ZM95.4299 89.6047C95.4207 89.8715 95.3931 90.1383 95.3471 90.4051C95.3103 90.6626 95.2551 90.911 95.1816 91.1502C95.108 91.3802 95.016 91.5872 94.9056 91.7712C94.8044 91.9552 94.6894 92.1024 94.5606 92.2128C94.4502 92.3048 94.3628 92.3508 94.2984 92.3508C94.234 92.3508 94.1788 92.3324 94.1328 92.2956C94.096 92.2588 94.0638 92.2174 94.0362 92.1714C94.0086 92.1254 93.9718 92.0978 93.9258 92.0886C93.889 92.0794 93.8384 92.084 93.774 92.1024C93.7188 92.1116 93.659 92.1116 93.5946 92.1024C93.5394 92.0932 93.4842 92.061 93.429 92.0058C93.3831 91.9414 93.3509 91.831 93.3325 91.6746C93.3141 91.4998 93.3187 91.2744 93.3463 90.9984C93.3831 90.7132 93.4014 90.4373 93.4014 90.1705C93.4014 89.9313 93.3739 89.7335 93.3187 89.5771C93.2727 89.4115 93.1853 89.3287 93.0565 89.3287C92.9921 89.3287 92.8771 89.3793 92.7115 89.4805C92.5551 89.5725 92.3803 89.7749 92.1871 90.0877C91.9939 90.4005 91.8007 90.8558 91.6075 91.4538C91.4144 92.0426 91.258 92.8291 91.1384 93.8135C91.1384 95.083 91.1476 96.1042 91.166 96.8769C91.1844 97.6497 91.1936 98.2522 91.1936 98.6846C91.1936 99.0526 91.1844 99.3148 91.166 99.4712C91.1476 99.6276 91.1016 99.7288 91.028 99.7748C90.982 99.8024 90.89 99.8346 90.752 99.8713C90.6232 99.9173 90.4806 99.9587 90.3242 99.9955C90.177 100.032 90.0344 100.065 89.8964 100.092C89.7584 100.12 89.6711 100.129 89.6343 100.12C89.6067 100.111 89.5561 100.078 89.4825 100.023C89.4089 99.9771 89.3307 99.9173 89.2479 99.8437C89.1743 99.7702 89.1053 99.692 89.0409 99.6092C88.9765 99.5356 88.9397 99.4712 88.9305 99.416C88.9121 99.324 88.9029 99.117 88.9029 98.795C88.9121 98.4638 88.9167 98.0682 88.9167 97.6083C88.9259 97.1483 88.9351 96.6469 88.9443 96.1042C88.9535 95.5522 88.9581 95.0048 88.9581 94.462C88.9581 94.1125 88.9673 93.7261 88.9857 93.3029C89.0133 92.8705 89.0409 92.4336 89.0685 91.992C89.1053 91.5504 89.1421 91.118 89.1789 90.6948C89.2157 90.2717 89.2479 89.8945 89.2755 89.5633C89.3123 89.2229 89.3399 88.9423 89.3583 88.7216C89.3859 88.4916 89.4043 88.3536 89.4135 88.3076C89.4227 88.234 89.4549 88.2064 89.5101 88.2248C89.5745 88.2432 89.6389 88.2754 89.7032 88.3214C89.7768 88.3674 89.8412 88.4088 89.8964 88.4456C89.9516 88.4824 89.9884 88.4824 90.0068 88.4456C90.0252 88.3628 90.0942 88.3536 90.2138 88.418C90.3334 88.4732 90.4438 88.5376 90.545 88.6112C90.5818 88.6572 90.6232 88.6986 90.6692 88.7354C90.7244 88.763 90.775 88.8043 90.821 88.8595C90.867 88.9055 90.9038 88.9699 90.9314 89.0527C90.9682 89.1355 90.9866 89.2459 90.9866 89.3839C90.9866 89.5127 90.9958 89.7059 91.0142 89.9635C91.0326 90.2211 91.0556 90.5247 91.0832 90.8742C91.1844 90.5431 91.304 90.1935 91.442 89.8255C91.5891 89.4575 91.7639 89.1217 91.9663 88.8181C92.1687 88.5054 92.4079 88.2478 92.6839 88.0454C92.9599 87.843 93.2911 87.7418 93.6774 87.7418C93.889 87.7418 94.1006 87.7832 94.3122 87.866C94.5238 87.9488 94.7124 88.073 94.878 88.2386C95.0528 88.395 95.1908 88.5882 95.2919 88.8181C95.3931 89.0481 95.4391 89.3103 95.4299 89.6047ZM105.448 94.4896C105.448 94.5908 105.453 94.7104 105.462 94.8484C105.471 94.9864 105.476 95.1428 105.476 95.3176C105.476 95.5384 105.444 95.8144 105.379 96.1456C105.315 96.4675 105.209 96.8079 105.062 97.1667C104.924 97.5255 104.735 97.8843 104.496 98.243C104.257 98.6018 103.962 98.9238 103.613 99.209C103.263 99.4942 102.849 99.7242 102.371 99.8989C101.902 100.083 101.364 100.175 100.756 100.175C100.214 100.175 99.6571 100.069 99.0867 99.8575C98.5256 99.6552 98.0104 99.3378 97.5412 98.9054C97.0812 98.4638 96.6995 97.9073 96.3959 97.2357C96.1015 96.5549 95.9543 95.7454 95.9543 94.807C95.9543 94.2183 96.0279 93.6387 96.1751 93.0683C96.3315 92.4979 96.5339 91.9598 96.7823 91.4538C97.0399 90.9478 97.3388 90.4833 97.6792 90.0601C98.0288 89.6277 98.3922 89.2597 98.7694 88.9561C99.1557 88.6434 99.5513 88.3996 99.9561 88.2248C100.37 88.05 100.77 87.9626 101.157 87.9626C101.828 87.9626 102.38 88.0684 102.813 88.28C103.254 88.4916 103.604 88.7538 103.861 89.0665C104.119 89.3793 104.298 89.7151 104.399 90.0739C104.51 90.4235 104.565 90.7408 104.565 91.026C104.565 91.302 104.496 91.6194 104.358 91.9782C104.229 92.3278 104.013 92.6635 103.709 92.9855C103.406 93.2983 103.01 93.5651 102.523 93.7859C102.035 93.9975 101.437 94.1033 100.729 94.1033C100.352 94.1033 100.011 94.0527 99.7077 93.9515C99.4133 93.8411 99.1511 93.7077 98.9211 93.5513C98.6912 93.3857 98.4934 93.2109 98.3278 93.0269C98.1714 92.8337 98.038 92.6543 97.9276 92.4887C97.762 93.0591 97.6792 93.7261 97.6792 94.4896C97.6792 95.014 97.7528 95.4878 97.9 95.911C98.0564 96.3249 98.268 96.6791 98.5348 96.9735C98.8016 97.2679 99.1189 97.4933 99.4869 97.6497C99.8549 97.8061 100.26 97.8843 100.701 97.8843C101.253 97.8843 101.736 97.7923 102.15 97.6083C102.564 97.4151 102.923 97.1759 103.227 96.8907C103.539 96.6055 103.806 96.2973 104.027 95.9662C104.257 95.6258 104.455 95.3176 104.62 95.0416C104.786 94.7564 104.928 94.5218 105.048 94.3378C105.177 94.1539 105.301 94.0665 105.421 94.0757C105.476 94.0757 105.503 94.1217 105.503 94.2137C105.503 94.2597 105.499 94.3057 105.49 94.3516C105.48 94.3976 105.467 94.4436 105.448 94.4896ZM101.295 89.3563C101.129 89.3563 100.913 89.3931 100.646 89.4667C100.388 89.5311 100.112 89.6507 99.8181 89.8255C99.5329 90.0003 99.2477 90.2395 98.9625 90.5431C98.6774 90.8374 98.429 91.2146 98.2174 91.6746C98.3462 91.6102 98.4566 91.555 98.5486 91.509C98.6498 91.463 98.7188 91.44 98.7556 91.44C98.774 91.44 98.8016 91.4584 98.8384 91.4952C99.0499 91.854 99.3121 92.1116 99.6249 92.268C99.9469 92.4152 100.306 92.4887 100.701 92.4887C101.014 92.4887 101.281 92.4382 101.502 92.337C101.732 92.2266 101.92 92.0886 102.067 91.923C102.215 91.7574 102.32 91.578 102.385 91.3848C102.449 91.1824 102.481 90.9846 102.481 90.7914C102.481 90.3775 102.376 90.0371 102.164 89.7703C101.952 89.4943 101.663 89.3563 101.295 89.3563ZM115.867 88.6802C115.894 88.7354 115.908 88.7905 115.908 88.8457C115.917 88.9009 115.922 88.9653 115.922 89.0389C115.922 89.3333 115.765 89.6415 115.453 89.9635C115.149 90.2855 114.666 90.5799 114.004 90.8466C113.866 90.9018 113.742 90.9294 113.631 90.9294C113.493 90.9294 113.374 90.8926 113.272 90.819C113.18 90.7362 113.134 90.6534 113.134 90.5707C113.134 90.5155 113.167 90.4511 113.231 90.3775C113.305 90.3039 113.378 90.2303 113.452 90.1567C113.535 90.0831 113.608 90.0141 113.673 89.9497C113.746 89.8853 113.783 89.8347 113.783 89.7979C113.783 89.7243 113.723 89.6875 113.604 89.6875C113.42 89.6875 113.185 89.7427 112.9 89.8531C112.615 89.9543 112.311 90.0923 111.989 90.2671C111.676 90.4327 111.354 90.6167 111.023 90.819C110.701 91.0122 110.411 91.2054 110.154 91.3986C109.896 91.5826 109.685 91.7482 109.519 91.8954C109.363 92.0426 109.284 92.1484 109.284 92.2128C109.284 92.2496 109.321 92.268 109.395 92.268H109.795C110.043 92.268 110.361 92.2818 110.747 92.3094C111.143 92.337 111.557 92.3922 111.989 92.4749C112.421 92.5485 112.854 92.6589 113.286 92.8061C113.728 92.9441 114.119 93.1327 114.459 93.3719C114.809 93.6111 115.094 93.9009 115.315 94.2413C115.535 94.5816 115.646 94.9864 115.646 95.4556C115.646 95.6948 115.604 95.9524 115.522 96.2283C115.448 96.4951 115.31 96.7711 115.108 97.0563C114.914 97.3323 114.648 97.6175 114.307 97.9119C113.967 98.197 113.535 98.4822 113.01 98.7674C112.219 99.1906 111.478 99.5034 110.789 99.7058C110.108 99.9081 109.491 100.009 108.939 100.009C108.222 100.009 107.656 99.8483 107.242 99.5264C106.828 99.2044 106.621 98.7444 106.621 98.1464C106.621 97.7049 106.704 97.3277 106.87 97.0149C107.044 96.7021 107.247 96.4445 107.477 96.2421C107.707 96.0306 107.937 95.8788 108.167 95.7868C108.397 95.6856 108.571 95.6304 108.691 95.6212C108.746 95.6212 108.792 95.6166 108.829 95.6074C108.875 95.5982 108.921 95.5936 108.967 95.5936C109.05 95.5936 109.091 95.6442 109.091 95.7454V95.8834C109.091 95.9386 109.105 95.9892 109.133 96.0352C109.16 96.072 109.174 96.1134 109.174 96.1593C109.174 96.2145 109.105 96.2973 108.967 96.4077C108.838 96.5181 108.696 96.6469 108.539 96.7941C108.383 96.9413 108.236 97.0977 108.098 97.2633C107.969 97.4289 107.904 97.5899 107.904 97.7463C107.904 97.9303 108.052 98.0222 108.346 98.0222C108.714 98.0222 109.1 97.9533 109.505 97.8153C109.919 97.6681 110.319 97.4841 110.706 97.2633C111.101 97.0425 111.474 96.7941 111.823 96.5181C112.182 96.2329 112.495 95.957 112.762 95.6902C113.029 95.4234 113.24 95.175 113.397 94.945C113.553 94.7058 113.631 94.5172 113.631 94.3792C113.631 94.2137 113.535 94.0803 113.341 93.9791C113.157 93.8779 112.9 93.7951 112.569 93.7307C112.247 93.6663 111.869 93.6249 111.437 93.6065C111.005 93.5789 110.549 93.5651 110.071 93.5651C109.574 93.5651 109.16 93.5881 108.829 93.6341C108.507 93.6801 108.309 93.7031 108.236 93.7031C108.18 93.7031 108.088 93.6985 107.96 93.6893C107.84 93.6709 107.716 93.6295 107.587 93.5651C107.467 93.4915 107.362 93.3857 107.27 93.2477C107.178 93.1097 107.132 92.9119 107.132 92.6543C107.132 92.4795 107.169 92.2818 107.242 92.061C107.325 91.8402 107.463 91.6056 107.656 91.3572C107.858 91.0996 108.13 90.8236 108.47 90.5293C108.82 90.2349 109.261 89.9267 109.795 89.6047C110.356 89.2643 110.881 88.9883 111.368 88.7767C111.865 88.556 112.311 88.3858 112.707 88.2662C113.111 88.1466 113.466 88.0684 113.769 88.0316C114.073 87.9856 114.312 87.9626 114.487 87.9626C114.901 87.9626 115.209 88.0178 115.411 88.1282C115.614 88.2294 115.765 88.4134 115.867 88.6802ZM125.664 88.6802C125.692 88.7354 125.705 88.7905 125.705 88.8457C125.715 88.9009 125.719 88.9653 125.719 89.0389C125.719 89.3333 125.563 89.6415 125.25 89.9635C124.947 90.2855 124.464 90.5799 123.801 90.8466C123.663 90.9018 123.539 90.9294 123.429 90.9294C123.291 90.9294 123.171 90.8926 123.07 90.819C122.978 90.7362 122.932 90.6534 122.932 90.5707C122.932 90.5155 122.964 90.4511 123.028 90.3775C123.102 90.3039 123.176 90.2303 123.249 90.1567C123.332 90.0831 123.406 90.0141 123.47 89.9497C123.544 89.8853 123.58 89.8347 123.58 89.7979C123.58 89.7243 123.521 89.6875 123.401 89.6875C123.217 89.6875 122.982 89.7427 122.697 89.8531C122.412 89.9543 122.108 90.0923 121.787 90.2671C121.474 90.4327 121.152 90.6167 120.821 90.819C120.499 91.0122 120.209 91.2054 119.951 91.3986C119.694 91.5826 119.482 91.7482 119.316 91.8954C119.16 92.0426 119.082 92.1484 119.082 92.2128C119.082 92.2496 119.119 92.268 119.192 92.268H119.592C119.841 92.268 120.158 92.2818 120.545 92.3094C120.94 92.337 121.354 92.3922 121.787 92.4749C122.219 92.5485 122.651 92.6589 123.084 92.8061C123.525 92.9441 123.916 93.1327 124.257 93.3719C124.606 93.6111 124.891 93.9009 125.112 94.2413C125.333 94.5816 125.443 94.9864 125.443 95.4556C125.443 95.6948 125.402 95.9524 125.319 96.2283C125.246 96.4951 125.108 96.7711 124.905 97.0563C124.712 97.3323 124.445 97.6175 124.105 97.9119C123.764 98.197 123.332 98.4822 122.808 98.7674C122.016 99.1906 121.276 99.5034 120.586 99.7058C119.905 99.9081 119.289 100.009 118.737 100.009C118.019 100.009 117.454 99.8483 117.04 99.5264C116.626 99.2044 116.419 98.7444 116.419 98.1464C116.419 97.7049 116.501 97.3277 116.667 97.0149C116.842 96.7021 117.044 96.4445 117.274 96.2421C117.504 96.0306 117.734 95.8788 117.964 95.7868C118.194 95.6856 118.369 95.6304 118.488 95.6212C118.544 95.6212 118.59 95.6166 118.626 95.6074C118.672 95.5982 118.718 95.5936 118.764 95.5936C118.847 95.5936 118.889 95.6442 118.889 95.7454V95.8834C118.889 95.9386 118.902 95.9892 118.93 96.0352C118.958 96.072 118.971 96.1134 118.971 96.1593C118.971 96.2145 118.902 96.2973 118.764 96.4077C118.636 96.5181 118.493 96.6469 118.337 96.7941C118.18 96.9413 118.033 97.0977 117.895 97.2633C117.766 97.4289 117.702 97.5899 117.702 97.7463C117.702 97.9303 117.849 98.0222 118.144 98.0222C118.511 98.0222 118.898 97.9533 119.303 97.8153C119.717 97.6681 120.117 97.4841 120.503 97.2633C120.899 97.0425 121.271 96.7941 121.621 96.5181C121.98 96.2329 122.292 95.957 122.559 95.6902C122.826 95.4234 123.038 95.175 123.194 94.945C123.35 94.7058 123.429 94.5172 123.429 94.3792C123.429 94.2137 123.332 94.0803 123.139 93.9791C122.955 93.8779 122.697 93.7951 122.366 93.7307C122.044 93.6663 121.667 93.6249 121.235 93.6065C120.802 93.5789 120.347 93.5651 119.868 93.5651C119.372 93.5651 118.958 93.5881 118.626 93.6341C118.304 93.6801 118.107 93.7031 118.033 93.7031C117.978 93.7031 117.886 93.6985 117.757 93.6893C117.638 93.6709 117.513 93.6295 117.385 93.5651C117.265 93.4915 117.159 93.3857 117.067 93.2477C116.975 93.1097 116.929 92.9119 116.929 92.6543C116.929 92.4795 116.966 92.2818 117.04 92.061C117.122 91.8402 117.26 91.6056 117.454 91.3572C117.656 91.0996 117.927 90.8236 118.268 90.5293C118.617 90.2349 119.059 89.9267 119.592 89.6047C120.154 89.2643 120.678 88.9883 121.166 88.7767C121.662 88.556 122.108 88.3858 122.504 88.2662C122.909 88.1466 123.263 88.0684 123.567 88.0316C123.87 87.9856 124.109 87.9626 124.284 87.9626C124.698 87.9626 125.006 88.0178 125.209 88.1282C125.411 88.2294 125.563 88.4134 125.664 88.6802Z" fill="white"/>
<g clip-path="url(#clip0_58_111)">
<path d="M86.4062 17H55.5938C48.0861 17 42 23.0861 42 30.5938V61.4062C42 68.9139 48.0861 75 55.5938 75H86.4062C93.9139 75 100 68.9139 100 61.4062V30.5938C100 23.0861 93.9139 17 86.4062 17Z" fill="#0073AA"/>
<path d="M51.564 45.9986C51.564 53.6915 56.0347 60.3398 62.5176 63.4904L53.2466 38.0891C52.1353 40.5778 51.5619 43.2731 51.564 45.9986ZM84.1196 45.0178C84.1196 42.616 83.2569 40.9526 82.5169 39.6578C81.5316 38.0569 80.6082 36.7012 80.6082 35.1003C80.6082 33.3136 81.9632 31.6506 83.8718 31.6506C83.9581 31.6506 84.0397 31.6613 84.1237 31.666C80.6659 28.4983 76.0592 26.5641 70.9992 26.5641C64.2096 26.5641 58.2358 30.0477 54.7608 35.3244C55.2166 35.3379 55.6464 35.3477 56.0114 35.3477C58.0443 35.3477 61.1911 35.1007 61.1911 35.1007C62.2387 35.0391 62.3624 36.5779 61.3157 36.7019C61.3157 36.7019 60.2628 36.8258 59.0913 36.8872L66.1686 57.9389L70.4219 45.1828L67.3939 36.8865C66.3474 36.8251 65.356 36.7012 65.356 36.7012C64.3086 36.6398 64.4314 35.0384 65.4788 35.1003C65.4788 35.1003 68.6882 35.3468 70.5979 35.3468C72.6307 35.3468 75.7776 35.1003 75.7776 35.1003C76.8261 35.0384 76.9492 36.5772 75.9022 36.7012C75.9022 36.7012 74.8471 36.8251 73.6778 36.8865L80.7015 57.7787L82.64 51.3009C83.4803 48.6125 84.1196 46.6817 84.1196 45.0178Z" fill="white"/>
<path d="M71.3405 47.6987L65.5093 64.6433C67.2921 65.1684 69.141 65.4351 70.9996 65.4352C73.1977 65.436 75.38 65.0634 77.4534 64.3334C77.3995 64.2484 77.3532 64.1588 77.3152 64.0656L71.3405 47.6987ZM88.0532 36.6742C88.1415 37.3366 88.1853 38.0042 88.1841 38.6725C88.1841 40.6447 87.8157 42.8618 86.7062 45.6341L80.7696 62.7982C86.5476 59.4288 90.4341 53.1691 90.4341 45.9991C90.4343 42.6199 89.5713 39.4423 88.0532 36.6742Z" fill="white"/>
<path d="M70.9995 23.3438C58.5073 23.3438 48.3438 33.5067 48.3438 45.9986C48.3438 58.4922 58.5073 68.6547 70.9995 68.6547C83.4911 68.6547 93.6562 58.4922 93.6562 45.9986C93.6558 33.5067 83.4911 23.3438 70.9995 23.3438ZM70.9995 67.6163C59.0801 67.6163 49.3825 57.9185 49.3825 45.9986C49.3825 34.0794 59.0799 24.3825 70.9995 24.3825C82.9183 24.3825 92.6152 34.0794 92.6152 45.9986C92.6152 57.9185 82.9183 67.6163 70.9995 67.6163Z" fill="white"/>
</g>
<defs>
<clipPath id="clip0_58_111">
<rect width="58" height="58" fill="white" transform="translate(42 17)"/>
</clipPath>
</defs>
</svg>
