<svg width="191" height="193" viewBox="0 0 191 193" fill="none" xmlns="http://www.w3.org/2000/svg">
<g filter="url(#filter0_d_58_115)">
<ellipse cx="95.8702" cy="94.1532" rx="92.1739" ry="93.2174" fill="#A2BB09" fill-opacity="0.81" shape-rendering="crispEdges"/>
</g>
<path d="M64.7317 143.844C64.7439 144.016 64.695 144.187 64.5849 144.358C64.4871 144.517 64.3648 144.664 64.2181 144.798C64.0836 144.933 63.9429 145.037 63.7962 145.11C63.6617 145.196 63.5577 145.245 63.4844 145.257C63.3132 145.281 63.1236 145.263 62.9158 145.202C62.7079 145.141 62.5489 145.061 62.4389 144.963C62.3533 144.89 62.2921 144.804 62.2554 144.707C62.231 144.596 62.2004 144.444 62.1637 144.248C62.1026 143.967 62.0414 143.74 61.9803 143.569C61.9314 143.386 61.8886 143.233 61.8519 143.111C61.8152 142.976 61.7785 142.854 61.7418 142.744C61.7174 142.634 61.6991 142.499 61.6868 142.34C61.5523 140.849 61.4728 139.363 61.4484 137.883C61.4239 136.391 61.4361 134.961 61.4851 133.591C61.534 132.221 61.6073 130.95 61.7052 129.776C61.8152 128.59 61.9192 127.562 62.017 126.694C62.127 125.814 62.2249 125.117 62.3105 124.603C62.3961 124.09 62.4511 123.815 62.4755 123.778C62.5122 123.68 62.6162 123.588 62.7874 123.503C62.9708 123.417 63.1787 123.356 63.411 123.319C63.5822 123.295 63.7106 123.27 63.7962 123.246C63.8818 123.221 63.9552 123.197 64.0163 123.173C64.0774 123.136 64.1447 123.105 64.2181 123.081C64.3037 123.044 64.4321 123.001 64.6033 122.952C64.75 122.916 64.8356 122.989 64.8601 123.173C64.8845 123.356 64.8784 123.692 64.8417 124.181C64.805 124.671 64.75 125.337 64.6766 126.181C64.6155 127.024 64.5666 128.088 64.5299 129.372C64.6644 129.397 64.8111 129.409 64.9701 129.409C65.1413 129.409 65.3247 129.409 65.5204 129.409C66.1685 129.409 66.9205 129.342 67.7765 129.207C68.6325 129.073 69.4885 128.834 70.3444 128.492C71.2126 128.137 72.0319 127.66 72.8023 127.061C73.5727 126.45 74.1963 125.679 74.6732 124.75C74.7466 124.567 74.7833 124.353 74.7833 124.108C74.7833 123.766 74.6671 123.429 74.4348 123.099C74.2147 122.757 73.8601 122.457 73.3709 122.2C72.8818 121.931 72.2459 121.717 71.4633 121.558C70.6807 121.387 69.7391 121.302 68.6386 121.302C67.9905 121.302 67.3179 121.351 66.6209 121.448C65.9239 121.546 65.2147 121.705 64.4932 121.925C63.7717 122.145 63.0442 122.433 62.3105 122.787C61.5768 123.142 60.8553 123.582 60.1461 124.108C60.1094 124.145 60.0421 124.175 59.9443 124.2C59.8465 124.212 59.7486 124.218 59.6508 124.218C59.4674 124.218 59.2901 124.151 59.1189 124.016C58.9477 123.882 58.8621 123.741 58.8621 123.594C58.8621 123.521 58.8865 123.46 58.9355 123.411C58.9844 123.35 59.0394 123.295 59.1005 123.246C59.1739 123.197 59.2351 123.154 59.284 123.118C59.3329 123.081 59.3573 123.05 59.3573 123.026C59.3573 122.989 59.3329 122.94 59.284 122.879C59.2351 122.818 59.2106 122.738 59.2106 122.641C59.2106 122.628 59.18 122.616 59.1189 122.604C59.0577 122.592 58.9844 122.573 58.8988 122.549C58.8254 122.524 58.7582 122.488 58.697 122.439C58.6359 122.378 58.6053 122.298 58.6053 122.2C58.6053 122.127 58.642 122.066 58.7154 122.017C58.801 121.968 58.8988 121.901 59.0088 121.815C59.1556 121.73 59.4124 121.565 59.7792 121.32C60.1461 121.075 60.5863 120.8 61.0999 120.495C61.6257 120.189 62.2065 119.871 62.8424 119.541C63.4783 119.211 64.1447 118.911 64.8417 118.642C65.551 118.361 66.2724 118.135 67.0061 117.963C67.7398 117.78 68.4552 117.688 69.1522 117.688C69.8614 117.688 70.5401 117.81 71.1882 118.055C71.8363 118.3 72.4416 118.624 73.0041 119.027C73.5666 119.431 74.0741 119.901 74.5265 120.44C74.9789 120.965 75.3641 121.522 75.6821 122.109C76.0122 122.683 76.2629 123.27 76.4341 123.87C76.6175 124.457 76.7092 125.013 76.7092 125.539C76.7092 126.15 76.5075 126.737 76.1039 127.3C75.7126 127.862 75.2052 128.388 74.5815 128.877C73.9701 129.366 73.2976 129.812 72.5639 130.216C71.8302 130.607 71.1332 130.95 70.4728 131.243C69.8492 131.512 69.2072 131.708 68.5469 131.83C67.8988 131.94 67.2996 132.007 66.7493 132.032C67.3607 132.264 68.0027 132.582 68.6753 132.986C69.3601 133.389 70.0326 133.952 70.6929 134.673C71.0231 135.04 71.3472 135.535 71.6651 136.159C71.983 136.77 72.301 137.449 72.6189 138.195C72.9368 138.941 73.2548 139.73 73.5727 140.561C73.9029 141.393 74.2453 142.218 74.5999 143.037C74.9667 143.844 75.3519 144.615 75.7554 145.349C76.1712 146.094 76.6114 146.749 77.0761 147.311C77.553 147.874 78.0605 148.32 78.5985 148.65C79.1488 148.993 79.748 149.164 80.3961 149.164C80.983 149.164 81.6189 149.011 82.3037 148.705C83.0007 148.412 83.7527 147.904 84.5598 147.183C84.8655 146.938 85.0612 146.743 85.1467 146.596C85.2446 146.461 85.3118 146.394 85.3485 146.394C85.3852 146.394 85.4097 146.418 85.4219 146.467C85.4463 146.516 85.4586 146.565 85.4586 146.614C85.4708 146.675 85.4769 146.73 85.4769 146.779C85.4769 146.828 85.483 146.859 85.4953 146.871V146.908C85.4953 146.969 85.4708 147.024 85.4219 147.073C85.4586 147.073 85.483 147.091 85.4953 147.128C85.5197 147.177 85.5319 147.232 85.5319 147.293C85.5319 147.391 85.5075 147.488 85.4586 147.586C85.373 147.709 85.269 147.923 85.1467 148.228C85.0245 148.546 84.8594 148.901 84.6515 149.292C84.4559 149.683 84.2113 150.087 83.9178 150.503C83.6243 150.931 83.2636 151.322 82.8356 151.677C82.4198 152.031 81.9185 152.319 81.3315 152.539C80.7446 152.771 80.0659 152.887 79.2955 152.887C78.8309 152.887 78.3478 152.826 77.8465 152.704C77.3573 152.582 76.8621 152.368 76.3607 152.062C75.8716 151.768 75.3825 151.377 74.8933 150.888C74.4042 150.399 73.9334 149.787 73.481 149.054C73.2486 148.699 73.0041 148.143 72.7473 147.385C72.5027 146.626 72.2398 145.77 71.9586 144.817C71.6895 143.851 71.4022 142.836 71.0965 141.772C70.7908 140.708 70.4606 139.687 70.106 138.709C69.7514 137.73 69.3662 136.85 68.9504 136.067C68.5469 135.272 68.1128 134.667 67.6481 134.251C67.3913 134.031 67.1284 133.817 66.8594 133.609C66.5904 133.401 66.3213 133.224 66.0523 133.077C65.7955 132.918 65.5387 132.796 65.2819 132.711C65.0251 132.613 64.7867 132.564 64.5666 132.564H64.4932C64.4932 133.224 64.4932 133.927 64.4932 134.673C64.5054 135.419 64.5116 136.171 64.5116 136.929C64.5238 137.675 64.536 138.409 64.5482 139.13C64.5605 139.852 64.5727 140.524 64.5849 141.148C64.6094 141.76 64.6338 142.304 64.6583 142.781C64.6827 143.245 64.7072 143.6 64.7317 143.844ZM92.4287 138.305C92.4287 138.44 92.4348 138.599 92.447 138.782C92.4593 138.965 92.4654 139.173 92.4654 139.406C92.4654 139.699 92.4226 140.066 92.337 140.506C92.2514 140.934 92.1107 141.387 91.9151 141.863C91.7317 142.34 91.481 142.817 91.1631 143.294C90.8451 143.771 90.4538 144.199 89.9891 144.578C89.5245 144.957 88.9742 145.263 88.3383 145.495C87.7147 145.74 86.9993 145.862 86.1923 145.862C85.4708 145.862 84.731 145.721 83.9728 145.44C83.2269 145.171 82.5421 144.749 81.9185 144.175C81.3071 143.588 80.7996 142.848 80.3961 141.955C80.0048 141.05 79.8091 139.974 79.8091 138.727C79.8091 137.944 79.9069 137.174 80.1026 136.416C80.3105 135.658 80.5795 134.942 80.9097 134.27C81.252 133.597 81.6495 132.98 82.1019 132.417C82.5666 131.842 83.0496 131.353 83.551 130.95C84.0645 130.534 84.5904 130.21 85.1284 129.978C85.6787 129.745 86.2106 129.629 86.7242 129.629C87.6169 129.629 88.3506 129.77 88.9253 130.051C89.5122 130.332 89.9769 130.681 90.3193 131.096C90.6617 131.512 90.9001 131.959 91.0347 132.435C91.1814 132.9 91.2548 133.322 91.2548 133.701C91.2548 134.068 91.1631 134.49 90.9796 134.967C90.8084 135.431 90.5211 135.878 90.1175 136.306C89.714 136.721 89.1882 137.076 88.5401 137.37C87.892 137.651 87.0972 137.791 86.1556 137.791C85.6542 137.791 85.2018 137.724 84.7982 137.59C84.4069 137.443 84.0584 137.266 83.7527 137.058C83.447 136.838 83.1841 136.605 82.964 136.361C82.7561 136.104 82.5788 135.865 82.4321 135.645C82.212 136.404 82.1019 137.29 82.1019 138.305C82.1019 139.002 82.1997 139.632 82.3954 140.194C82.6033 140.745 82.8845 141.215 83.2391 141.607C83.5938 141.998 84.0156 142.298 84.5048 142.505C84.9939 142.713 85.5319 142.817 86.1189 142.817C86.8526 142.817 87.4946 142.695 88.0448 142.45C88.5951 142.194 89.072 141.876 89.4756 141.497C89.8913 141.118 90.2459 140.708 90.5394 140.268C90.8451 139.815 91.108 139.406 91.3281 139.039C91.5482 138.66 91.7378 138.348 91.8968 138.103C92.0679 137.859 92.233 137.743 92.392 137.755C92.4654 137.755 92.5021 137.816 92.5021 137.938C92.5021 137.999 92.4959 138.06 92.4837 138.122C92.4715 138.183 92.4531 138.244 92.4287 138.305ZM86.9076 131.482C86.6875 131.482 86.4001 131.531 86.0455 131.628C85.7031 131.714 85.3363 131.873 84.945 132.105C84.5659 132.338 84.1868 132.656 83.8078 133.059C83.4287 133.45 83.0985 133.952 82.8173 134.563C82.9885 134.478 83.1352 134.404 83.2575 134.343C83.392 134.282 83.4837 134.251 83.5326 134.251C83.5571 134.251 83.5938 134.276 83.6427 134.325C83.9239 134.802 84.2724 135.144 84.6882 135.352C85.1162 135.548 85.5931 135.645 86.1189 135.645C86.5347 135.645 86.8893 135.578 87.1828 135.444C87.4885 135.297 87.7391 135.113 87.9348 134.893C88.1304 134.673 88.2711 134.435 88.3567 134.178C88.4423 133.909 88.4851 133.646 88.4851 133.389C88.4851 132.839 88.3444 132.387 88.0632 132.032C87.7819 131.665 87.3968 131.482 86.9076 131.482ZM105.91 134.251C105.923 134.679 105.886 135.205 105.8 135.829C105.715 136.44 105.617 137.101 105.507 137.81C105.397 138.507 105.293 139.222 105.195 139.956C105.097 140.69 105.048 141.38 105.048 142.029C105.048 142.457 105.079 142.866 105.14 143.257C105.201 143.637 105.305 143.967 105.452 144.248C105.537 144.407 105.58 144.548 105.58 144.67C105.592 144.792 105.586 144.902 105.562 145C105.537 145.086 105.513 145.159 105.488 145.22C105.464 145.293 105.464 145.361 105.488 145.422C105.513 145.483 105.507 145.55 105.47 145.624C105.433 145.709 105.378 145.783 105.305 145.844C105.232 145.917 105.146 145.966 105.048 145.99C104.963 146.027 104.883 146.021 104.81 145.972C104.675 145.887 104.565 145.838 104.48 145.825C104.406 145.813 104.339 145.813 104.278 145.825C104.229 145.85 104.18 145.874 104.131 145.899C104.094 145.923 104.046 145.923 103.984 145.899C103.777 145.789 103.55 145.66 103.306 145.514C103.061 145.367 102.902 145.208 102.829 145.037C102.78 144.963 102.731 144.841 102.682 144.67C102.645 144.499 102.609 144.297 102.572 144.065C102.548 143.832 102.523 143.582 102.499 143.312C102.474 143.043 102.456 142.781 102.444 142.524C102.04 143.282 101.606 143.912 101.141 144.413C100.689 144.914 100.23 145.312 99.7656 145.605C99.3132 145.911 98.8607 146.125 98.4083 146.247C97.9681 146.37 97.5646 146.431 97.1977 146.431C96.8186 146.431 96.4824 146.382 96.1889 146.284C95.9076 146.186 95.6875 146.07 95.5285 145.935C94.9294 145.336 94.5014 144.853 94.2446 144.486C94 144.107 93.89 143.802 93.9144 143.569C93.9756 142.787 94.1651 142.065 94.483 141.405C94.801 140.745 95.1984 140.139 95.6753 139.589C96.1522 139.026 96.6841 138.525 97.2711 138.085C97.8703 137.632 98.4756 137.235 99.087 136.893C99.7106 136.538 100.322 136.245 100.921 136.012C101.52 135.768 102.065 135.572 102.554 135.425C102.529 134.765 102.499 134.19 102.462 133.701C102.438 133.2 102.395 132.833 102.334 132.601C102.15 131.842 101.869 131.28 101.49 130.913C101.111 130.534 100.652 130.344 100.114 130.344C99.7718 130.344 99.4232 130.473 99.0686 130.73C98.7262 130.986 98.4144 131.335 98.1332 131.775C97.8519 132.215 97.6196 132.723 97.4362 133.298C97.265 133.872 97.1732 134.478 97.161 135.113C97.161 135.272 97.1671 135.425 97.1794 135.572C97.1916 135.719 97.2099 135.872 97.2344 136.031C97.2466 136.116 97.216 136.177 97.1427 136.214C97.0815 136.251 97.0021 136.281 96.9042 136.306C96.8064 136.318 96.7025 136.33 96.5924 136.342C96.4824 136.355 96.3906 136.373 96.3173 136.397C96.2561 136.422 96.2072 136.44 96.1705 136.452C96.1338 136.452 96.0972 136.446 96.0605 136.434C96.0238 136.41 95.9749 136.373 95.9137 136.324C95.8648 136.275 95.7915 136.214 95.6936 136.141C95.5958 136.067 95.4919 136.006 95.3818 135.957C95.284 135.908 95.1923 135.865 95.1067 135.829C95.0333 135.792 94.966 135.762 94.9049 135.737C94.856 135.7 94.8315 135.658 94.8315 135.609C94.8315 134.851 94.9966 134.068 95.3268 133.261C95.6692 132.454 96.1216 131.72 96.6841 131.06C97.2588 130.387 97.9192 129.837 98.6651 129.409C99.4232 128.981 100.224 128.767 101.068 128.767C101.753 128.767 102.346 128.871 102.847 129.079C103.349 129.287 103.777 129.556 104.131 129.886C104.486 130.216 104.773 130.583 104.993 130.986C105.226 131.39 105.403 131.8 105.525 132.215C105.66 132.619 105.751 133.004 105.8 133.371C105.861 133.726 105.898 134.019 105.91 134.251ZM102.59 137.516C102.224 137.651 101.82 137.828 101.38 138.048C100.94 138.268 100.493 138.531 100.041 138.837C99.5883 139.13 99.1359 139.473 98.6834 139.864C98.231 140.255 97.8091 140.69 97.4178 141.166C96.9531 141.717 96.6169 142.206 96.409 142.634C96.2011 143.062 96.0727 143.429 96.0238 143.734C95.9749 144.028 95.9871 144.26 96.0605 144.431C96.1338 144.603 96.2194 144.707 96.3173 144.743C96.6963 144.89 97.0877 144.908 97.4912 144.798C97.9069 144.676 98.3166 144.468 98.7201 144.175C99.1359 143.869 99.5333 143.508 99.9124 143.092C100.304 142.664 100.671 142.23 101.013 141.79C101.355 141.338 101.661 140.897 101.93 140.469C102.199 140.029 102.419 139.65 102.59 139.332V137.516ZM121.538 139.369C121.538 140.066 121.385 140.775 121.08 141.497C120.774 142.218 120.34 142.878 119.777 143.478C119.227 144.065 118.554 144.548 117.76 144.927C116.965 145.306 116.072 145.495 115.082 145.495C114.274 145.495 113.455 145.324 112.624 144.982C111.804 144.639 111.065 144.15 110.404 143.514C109.744 142.866 109.206 142.084 108.79 141.166C108.374 140.249 108.166 139.222 108.166 138.085C108.166 136.96 108.38 135.896 108.808 134.893C109.249 133.878 109.823 132.998 110.533 132.252C111.242 131.494 112.049 130.895 112.954 130.454C113.871 130.014 114.813 129.794 115.779 129.794C116.671 129.794 117.423 129.916 118.035 130.161C118.658 130.393 119.16 130.675 119.539 131.005C119.918 131.323 120.187 131.653 120.346 131.995C120.517 132.338 120.603 132.613 120.603 132.821C120.603 133.285 120.505 133.664 120.309 133.958C120.113 134.251 119.887 134.471 119.63 134.618C119.386 134.765 119.147 134.851 118.915 134.875C118.695 134.887 118.554 134.844 118.493 134.747C118.444 134.698 118.389 134.673 118.328 134.673C118.279 134.673 118.224 134.685 118.163 134.71C118.102 134.734 118.041 134.759 117.98 134.783C117.931 134.808 117.888 134.808 117.851 134.783C117.79 134.759 117.784 134.704 117.833 134.618C117.894 134.533 117.925 134.459 117.925 134.398C117.925 134.288 117.919 134.166 117.906 134.031C117.906 133.885 117.937 133.732 117.998 133.573C118.108 133.353 118.151 133.114 118.126 132.857C118.114 132.588 118.022 132.338 117.851 132.105C117.692 131.873 117.435 131.677 117.081 131.518C116.738 131.359 116.292 131.28 115.742 131.28C115.351 131.28 114.886 131.408 114.348 131.665C113.81 131.922 113.296 132.325 112.807 132.876C112.33 133.414 111.921 134.105 111.578 134.948C111.248 135.78 111.083 136.776 111.083 137.938C111.083 138.44 111.144 138.965 111.266 139.516C111.401 140.066 111.633 140.573 111.963 141.038C112.294 141.503 112.74 141.888 113.302 142.194C113.865 142.487 114.58 142.634 115.448 142.634C116.023 142.634 116.549 142.554 117.026 142.395C117.515 142.236 117.955 142.035 118.346 141.79C118.738 141.546 119.086 141.276 119.392 140.983C119.698 140.69 119.955 140.414 120.162 140.158C120.37 139.889 120.529 139.656 120.639 139.461C120.762 139.265 120.835 139.143 120.859 139.094C120.908 139.033 120.969 138.99 121.043 138.965C121.116 138.929 121.19 138.923 121.263 138.947C121.336 138.959 121.397 139.002 121.446 139.075C121.507 139.137 121.538 139.234 121.538 139.369ZM128.875 123.429C128.875 123.503 128.863 123.698 128.838 124.016C128.814 124.322 128.777 124.732 128.728 125.245C128.692 125.759 128.643 126.358 128.582 127.043C128.52 127.715 128.459 128.443 128.398 129.226C129.169 129.128 129.896 129.054 130.581 129.005C131.278 128.944 131.865 128.914 132.342 128.914C132.501 128.914 132.641 128.944 132.764 129.005C132.886 129.067 132.984 129.14 133.057 129.226C133.143 129.299 133.21 129.385 133.259 129.482C133.308 129.568 133.338 129.641 133.351 129.702C133.351 129.764 133.357 129.825 133.369 129.886C133.381 129.935 133.387 129.99 133.387 130.051C133.387 130.296 133.277 130.54 133.057 130.785C132.849 131.029 132.531 131.182 132.103 131.243L128.196 131.665C128.135 132.546 128.08 133.45 128.031 134.38C127.982 135.309 127.933 136.238 127.885 137.168C127.848 138.085 127.817 138.99 127.793 139.882C127.768 140.775 127.756 141.619 127.756 142.414C127.756 142.927 127.768 143.343 127.793 143.661C127.817 143.979 127.83 144.187 127.83 144.285C127.83 144.493 127.787 144.7 127.701 144.908C127.628 145.104 127.536 145.281 127.426 145.44C127.328 145.611 127.218 145.746 127.096 145.844C126.986 145.954 126.894 146.009 126.821 146.009C126.38 146.009 126.032 145.868 125.775 145.587C125.518 145.318 125.323 144.951 125.188 144.486C125.066 144.022 124.986 143.49 124.95 142.891C124.913 142.291 124.895 141.668 124.895 141.02C124.895 139.491 124.938 137.963 125.023 136.434C125.109 134.893 125.231 133.414 125.39 131.995L123.097 132.27C123.06 132.27 123.024 132.276 122.987 132.289C122.95 132.301 122.908 132.307 122.859 132.307C122.626 132.307 122.443 132.252 122.308 132.142C122.162 132.032 122.052 131.904 121.978 131.757C121.905 131.61 121.862 131.463 121.85 131.317C121.825 131.158 121.813 131.035 121.813 130.95C121.813 130.779 121.838 130.62 121.887 130.473C121.935 130.326 122.027 130.234 122.162 130.198C122.419 130.1 122.865 129.996 123.501 129.886C124.149 129.764 124.876 129.641 125.683 129.519C125.818 128.529 125.952 127.624 126.087 126.804C126.234 125.973 126.374 125.257 126.509 124.658C126.643 124.047 126.766 123.576 126.876 123.246C126.998 122.904 127.102 122.732 127.188 122.732C127.212 122.732 127.243 122.738 127.279 122.751C127.316 122.763 127.346 122.769 127.371 122.769C127.444 122.769 127.499 122.732 127.536 122.659C127.585 122.573 127.671 122.531 127.793 122.531C127.903 122.531 128.019 122.567 128.141 122.641C128.276 122.702 128.392 122.781 128.49 122.879C128.6 122.977 128.692 123.081 128.765 123.191C128.838 123.289 128.875 123.368 128.875 123.429Z" fill="white"/>
<g clip-path="url(#clip0_58_115)">
<path d="M121.709 51.3128C120.794 51.0176 119.871 50.7442 118.941 50.4927C119.097 49.8927 119.241 49.2999 119.369 48.7176C121.464 39.1552 120.094 31.4515 115.415 28.9151C110.929 26.4835 103.591 29.019 96.1812 35.0812C95.4509 35.6797 94.7368 36.2955 94.0396 36.9279C93.5729 36.5074 93.0979 36.095 92.6149 35.691C84.8487 29.2091 77.0644 26.4772 72.3901 29.0209C67.9077 31.4601 66.5804 38.7021 68.4671 47.7646C68.6548 48.6621 68.8667 49.555 69.1027 50.4425C68.0008 50.7368 66.9375 51.0501 65.92 51.3835C56.8147 54.3677 51 59.0443 51 63.8951C51 68.9051 57.2424 73.9303 66.7259 76.9773C67.4948 77.2233 68.27 77.4513 69.0509 77.661C68.7973 78.6168 68.5721 79.5791 68.3757 80.5467C66.5771 89.4519 67.9816 96.5228 72.452 98.9465C77.0691 101.449 84.8185 98.877 92.364 92.6765C92.9758 92.1724 93.5742 91.654 94.1586 91.1218C94.9136 91.8067 95.6888 92.4715 96.4832 93.1157C103.793 99.0279 111.011 101.415 115.477 98.985C120.09 96.4748 121.589 88.8788 119.643 79.6372C119.489 78.9132 119.318 78.1928 119.127 77.4766C119.671 77.325 120.205 77.169 120.726 77.0067C130.585 73.9363 137 68.9721 137 63.8951C137 59.0266 130.997 54.3185 121.709 51.3128ZM119.571 73.7288C119.101 73.875 118.618 74.0162 118.126 74.1535C117.038 70.9145 115.569 67.4705 113.772 63.9118C115.487 60.4382 116.899 57.0381 117.957 53.8202C118.837 54.0595 119.69 54.3118 120.514 54.5781C128.472 57.1536 133.326 60.9611 133.326 63.8951C133.326 67.0202 128.084 71.0771 119.571 73.7288ZM116.039 80.3079C116.9 84.3943 117.022 88.089 116.452 90.9775C115.94 93.573 114.91 95.3032 113.636 95.9964C110.926 97.4711 105.13 95.5543 98.8795 90.4978C98.1405 89.8989 97.4195 89.2808 96.7171 88.6442C99.1405 86.1529 101.562 83.2568 103.926 80.0402C108.084 79.6934 112.011 79.1263 115.573 78.3523C115.745 79.0006 115.9 79.6527 116.039 80.3079ZM80.3193 95.7415C77.6714 96.6204 75.5624 96.6456 74.2875 95.9547C71.5748 94.4841 70.4471 88.8065 71.9853 81.1909C72.1682 80.291 72.3776 79.396 72.6132 78.507C76.1359 79.2396 80.0351 79.7664 84.2024 80.0841C86.5822 83.2315 89.0738 86.1245 91.5849 88.6577C91.0513 89.1431 90.505 89.6161 89.9466 90.0763C86.6097 92.8179 83.2661 94.7632 80.3193 95.7415ZM67.9145 73.7095C63.7209 72.3621 60.2578 70.611 57.884 68.7002C55.7508 66.9832 54.6741 65.2783 54.6741 63.8951C54.6741 60.9513 59.3427 57.1966 67.1294 54.6447C68.0744 54.3352 69.0634 54.0431 70.0896 53.769C71.166 57.0595 72.5776 60.5001 74.2811 63.9791C72.5554 67.5096 71.1237 71.0051 70.0369 74.3345C69.3241 74.1425 68.6164 73.9342 67.9145 73.7095ZM72.0727 47.1011C70.4565 39.3368 71.5298 33.4798 74.2311 32.0098C77.1081 30.4442 83.47 32.6765 90.1757 38.2735C90.613 38.6393 91.0431 39.0125 91.466 39.393C88.9673 41.9152 86.4985 44.7867 84.1399 47.9155C80.0952 48.2679 76.2235 48.8338 72.6639 49.5921C72.4446 48.7666 72.2475 47.9359 72.0727 47.1011ZM109.169 55.7121C108.328 54.3469 107.457 52.9989 106.554 51.669C109.298 51.9952 111.927 52.4282 114.396 52.9574C113.655 55.1907 112.731 57.5253 111.643 59.919C110.849 58.5013 110.024 57.0987 109.169 55.7121ZM94.0413 41.8612C95.7358 43.587 97.4329 45.5136 99.1022 47.6042C95.716 47.4538 92.3241 47.4532 88.9378 47.6023C90.6087 45.531 92.3203 43.6069 94.0413 41.8612ZM78.8163 55.7357C77.9725 57.1113 77.163 58.5051 76.3885 59.9162C75.3189 57.531 74.4034 55.1856 73.656 52.9208C76.1096 52.4048 78.7263 51.9829 81.4527 51.6627C80.5401 53.0007 79.6611 54.3589 78.8163 55.7357ZM81.531 76.3732C78.7142 76.0776 76.0582 75.6775 73.6052 75.1754C74.3645 72.8702 75.3 70.4749 76.3928 68.0386C77.1705 69.4507 77.9833 70.8454 78.8307 72.2215C79.7022 73.6363 80.6045 75.022 81.531 76.3732ZM94.1428 86.1722C92.4013 84.4063 90.6645 82.4525 88.9683 80.3512C90.6151 80.4118 92.2938 80.4428 94 80.4428C95.7529 80.4428 97.4857 80.4058 99.1912 80.3345C97.5166 82.4736 95.8258 84.4303 94.1428 86.1722ZM111.678 67.9142C112.828 70.3773 113.796 72.7599 114.566 75.0257C112.072 75.5607 109.38 75.9914 106.544 76.3113C107.453 74.9568 108.333 73.5853 109.184 72.1978C110.049 70.7875 110.881 69.3593 111.678 67.9142ZM106.001 70.4724C104.699 72.5996 103.323 74.6865 101.876 76.7297C99.2546 76.9042 96.6277 76.9909 94 76.9896C91.3236 76.9896 88.7204 76.9113 86.2136 76.7585C84.7289 74.72 83.3267 72.6295 82.0101 70.4913C80.6996 68.3645 79.4759 66.1917 78.3409 63.9775C79.473 61.7629 80.6934 59.589 81.9993 57.4606C83.3048 55.3316 84.6954 53.2503 86.169 51.2206C88.7265 51.0387 91.3491 50.9439 93.9997 50.9439C96.6623 50.9439 99.2887 51.0396 101.845 51.2228C103.304 53.2495 104.686 55.3239 105.989 57.4423C107.3 59.566 108.536 61.7293 109.697 63.9286C108.548 66.1504 107.315 68.333 106.001 70.4724ZM113.58 31.9069C116.46 33.4682 117.58 39.7641 115.77 48.0204C115.655 48.5471 115.525 49.0836 115.384 49.6277C111.816 48.8534 107.941 48.2777 103.885 47.9199C101.522 44.7567 99.0733 41.8808 96.6153 39.3911C97.2595 38.8074 97.919 38.2388 98.5933 37.6858C104.942 32.4921 110.876 30.4413 113.58 31.9069ZM94 56.6762C98.2412 56.6762 101.68 59.9083 101.68 63.8951C101.68 67.8819 98.2412 71.1141 94 71.1141C89.7588 71.1141 86.3205 67.8819 86.3205 63.8951C86.3205 59.9083 89.7588 56.6762 94 56.6762Z" fill="#00D8FF"/>
</g>
<defs>
<filter id="filter0_d_58_115" x="0.91368" y="0.935791" width="189.913" height="192" filterUnits="userSpaceOnUse" color-interpolation-filters="sRGB">
<feFlood flood-opacity="0" result="BackgroundImageFix"/>
<feColorMatrix in="SourceAlpha" type="matrix" values="0 0 0 0 0 0 0 0 0 0 0 0 0 0 0 0 0 0 127 0" result="hardAlpha"/>
<feOffset dy="2.78261"/>
<feGaussianBlur stdDeviation="1.3913"/>
<feComposite in2="hardAlpha" operator="out"/>
<feColorMatrix type="matrix" values="0 0 0 0 0 0 0 0 0 0 0 0 0 0 0 0 0 0 0.25 0"/>
<feBlend mode="normal" in2="BackgroundImageFix" result="effect1_dropShadow_58_115"/>
<feBlend mode="normal" in="SourceGraphic" in2="effect1_dropShadow_58_115" result="shape"/>
</filter>
<clipPath id="clip0_58_115">
<rect width="86" height="72" fill="white" transform="translate(51 28)"/>
</clipPath>
</defs>
</svg>
