<svg width="147" height="148" viewBox="0 0 147 148" fill="none" xmlns="http://www.w3.org/2000/svg">
<circle cx="73.4783" cy="73.9612" r="73.4783" fill="#A01313" fill-opacity="0.42"/>
<path d="M41.1141 109.311C41.1141 109.391 41.0644 109.436 40.9651 109.446C40.8657 109.446 40.7614 109.446 40.6521 109.446C40.6024 109.456 40.5528 109.465 40.5031 109.475C40.4534 109.495 40.3988 109.515 40.3391 109.535C40.2895 109.545 40.2398 109.575 40.1901 109.624C40.21 109.724 40.2149 109.798 40.205 109.848C40.205 109.908 40.205 109.952 40.205 109.982L40.1901 110.042C40.1603 110.081 40.1007 110.111 40.0113 110.131C39.9219 110.161 39.8275 110.176 39.7281 110.176C39.7082 110.176 39.6784 110.171 39.6387 110.161C39.5691 110.141 39.4996 110.091 39.43 110.012C39.2611 109.962 39.0624 109.913 38.8339 109.863C38.7147 109.833 38.5855 109.803 38.4464 109.773C38.3371 109.744 38.2428 109.664 38.1633 109.535C38.0838 109.406 38.0093 109.257 37.9397 109.088C37.8801 108.909 37.8205 108.73 37.7609 108.551C37.7112 108.363 37.6665 108.199 37.6268 108.06L36.1662 103.455C35.9477 103.455 35.6695 103.459 35.3317 103.469C35.0038 103.469 34.6511 103.474 34.2735 103.484C33.896 103.484 33.5135 103.494 33.126 103.514C32.7385 103.524 32.3858 103.534 32.0679 103.544L29.0872 103.693L27.3436 108.253C27.3138 108.303 27.269 108.402 27.2094 108.551C27.1598 108.7 27.1051 108.859 27.0455 109.028C26.9859 109.187 26.9312 109.341 26.8816 109.49C26.8319 109.629 26.8021 109.714 26.7921 109.744C26.7723 109.823 26.7127 109.873 26.6133 109.893C26.5139 109.913 26.4295 109.932 26.3599 109.952C26.3003 109.972 26.2507 110.027 26.2109 110.116C26.1712 110.206 26.1116 110.265 26.0321 110.295C25.9526 110.345 25.8532 110.35 25.734 110.31C25.6148 110.27 25.5105 110.206 25.421 110.116C25.3416 110.017 25.3118 109.893 25.3316 109.744C25.3515 109.585 25.3614 109.421 25.3614 109.252C25.3614 109.083 25.3565 108.924 25.3465 108.775C25.3465 108.626 25.3714 108.482 25.421 108.343C25.4409 108.283 25.5005 108.099 25.5999 107.791C25.7092 107.473 25.8433 107.096 26.0023 106.659C26.1612 106.212 26.3351 105.73 26.5239 105.213C26.7127 104.687 26.9064 104.18 27.1051 103.693C26.9263 103.693 26.8021 103.643 26.7325 103.544C26.6829 103.464 26.6232 103.42 26.5537 103.41C26.4841 103.39 26.4096 103.365 26.3301 103.335C26.2507 103.315 26.196 103.271 26.1662 103.201C26.1364 103.132 26.1314 103.072 26.1513 103.022C26.1712 102.963 26.1563 102.913 26.1066 102.873C26.0569 102.834 26.0321 102.744 26.0321 102.605C26.0321 102.545 26.0768 102.491 26.1662 102.441C26.2656 102.381 26.3848 102.332 26.5239 102.292C26.663 102.252 26.817 102.218 26.9859 102.188C27.1647 102.158 27.3336 102.133 27.4926 102.113C27.5224 102.113 27.5572 102.113 27.5969 102.113C27.6466 102.113 27.6963 102.103 27.7459 102.083C27.9645 101.557 28.2129 100.991 28.4911 100.384C28.7693 99.7684 29.0525 99.1425 29.3406 98.5066C29.6387 97.8708 29.9367 97.2349 30.2348 96.599C30.5328 95.9632 30.816 95.367 31.0843 94.8107C31.3525 94.2443 31.5959 93.7277 31.8145 93.2607C32.043 92.7938 32.2318 92.4063 32.3808 92.0983C32.2616 91.7307 32.1523 91.3929 32.053 91.0849C31.9635 90.7769 31.8841 90.5086 31.8145 90.2801C31.745 90.0516 31.6903 89.8727 31.6506 89.7436C31.6108 89.6045 31.591 89.525 31.591 89.5051C31.581 89.4852 31.581 89.4654 31.591 89.4455C31.6108 89.3958 31.6605 89.366 31.74 89.3561C31.6605 89.2071 31.6208 89.0978 31.6208 89.0282C31.6208 88.9885 31.6307 88.9636 31.6506 88.9537C31.6705 88.9338 31.7201 88.914 31.7996 88.8941C31.8791 88.8742 31.9635 88.8593 32.053 88.8494C32.1424 88.8295 32.2268 88.8196 32.3063 88.8196C32.3858 88.8096 32.4405 88.8047 32.4703 88.8047C32.4802 88.8047 32.505 88.8096 32.5448 88.8196C32.6044 88.8394 32.6888 88.8842 32.7981 88.9537C32.8081 88.904 32.818 88.8692 32.8279 88.8494C32.8478 88.8295 32.8677 88.8096 32.8875 88.7898L32.9323 88.7451C32.9919 88.7152 33.0564 88.7103 33.126 88.7302C33.1955 88.7401 33.2601 88.7451 33.3197 88.7451C33.3794 88.7451 33.4191 88.7202 33.439 88.6705C33.4688 88.6209 33.5334 88.596 33.6327 88.596C33.7619 88.596 33.8712 88.7351 33.9606 89.0133C33.9705 89.063 34.0401 89.2518 34.1692 89.5796C34.2984 89.8976 34.4623 90.3198 34.661 90.8464C34.8597 91.363 35.0883 91.9641 35.3466 92.6497C35.6148 93.3352 35.893 94.0655 36.1812 94.8405C36.4693 95.6055 36.7574 96.4003 37.0455 97.225C37.3436 98.0397 37.6268 98.8445 37.895 99.6393C38.4514 101.259 38.9184 102.625 39.2959 103.738C39.6735 104.85 39.9765 105.76 40.205 106.465C40.4435 107.17 40.6173 107.697 40.7266 108.045C40.8459 108.392 40.9204 108.601 40.9502 108.671C40.9999 108.83 41.0396 108.959 41.0694 109.058C41.0992 109.148 41.1141 109.232 41.1141 109.311ZM34.6908 99.1177C34.4325 98.3825 34.1494 97.5578 33.8414 96.6437C33.5433 95.7297 33.2502 94.8256 32.9621 93.9314C32.7932 94.3685 32.5895 94.8951 32.351 95.5111C32.1126 96.1271 31.8592 96.763 31.591 97.4187C31.3326 98.0745 31.0793 98.7153 30.8309 99.3412C30.5825 99.9672 30.3639 100.504 30.1752 100.951L29.7579 101.934L32.4405 101.77C32.669 101.77 32.9422 101.765 33.2601 101.756C33.7966 101.746 34.5716 101.731 35.585 101.711L34.6908 99.1177ZM51.7252 109.103C51.7252 109.222 51.6805 109.356 51.5911 109.505C51.5116 109.644 51.3923 109.714 51.2334 109.714C51.144 109.714 51.0744 109.689 51.0247 109.639C50.9751 109.59 50.9254 109.565 50.8757 109.565C50.8062 109.565 50.7366 109.59 50.6671 109.639C50.6074 109.689 50.5031 109.714 50.3541 109.714C50.1554 109.714 49.9815 109.644 49.8325 109.505C49.6934 109.356 49.5791 109.172 49.4897 108.954C49.4003 108.725 49.3307 108.482 49.2811 108.224C49.2413 107.955 49.2214 107.707 49.2214 107.478C49.2214 107.031 49.2363 106.525 49.2662 105.958C49.3059 105.382 49.3456 104.796 49.3854 104.2C49.4351 103.594 49.4748 102.993 49.5046 102.396C49.5443 101.8 49.5642 101.249 49.5642 100.742C49.5642 100.067 49.5195 99.5399 49.4301 99.1624C49.3407 98.7848 49.1817 98.5961 48.9532 98.5961C48.7346 98.6259 48.5111 98.8146 48.2825 99.1624C48.054 99.5101 47.8205 99.9572 47.5821 100.504C47.3436 101.04 47.1102 101.651 46.8816 102.337C46.6531 103.012 46.4296 103.708 46.211 104.423C46.0024 105.129 45.8036 105.819 45.6149 106.495C45.4261 107.16 45.2572 107.757 45.1082 108.283C44.9591 108.81 44.83 109.237 44.7207 109.565C44.6114 109.883 44.5369 110.042 44.4971 110.042C44.4177 110.042 44.358 110.022 44.3183 109.982C44.2786 109.952 44.2388 109.918 44.1991 109.878C44.1693 109.838 44.1295 109.798 44.0798 109.759C44.0302 109.729 43.9557 109.714 43.8563 109.714C43.7669 109.714 43.7073 109.724 43.6775 109.744C43.6477 109.764 43.6129 109.788 43.5731 109.818C43.5334 109.848 43.4837 109.873 43.4241 109.893C43.3645 109.913 43.2602 109.922 43.1111 109.922C42.9323 109.922 42.7535 109.878 42.5746 109.788C42.4057 109.699 42.3213 109.56 42.3213 109.371C42.3213 109.252 42.3411 109.008 42.3809 108.641C42.4206 108.263 42.4653 107.806 42.515 107.27C42.5746 106.723 42.6342 106.117 42.6938 105.452C42.7634 104.776 42.823 104.08 42.8727 103.365C42.9323 102.65 42.982 101.934 43.0217 101.219C43.0615 100.504 43.0813 99.8231 43.0813 99.1773C43.0813 98.8594 43.0764 98.5663 43.0664 98.298C43.0565 98.0198 43.0515 97.7565 43.0515 97.5081C43.0515 97.4485 43.0813 97.4187 43.1409 97.4187C43.2602 97.4187 43.3496 97.4436 43.4092 97.4932C43.4787 97.533 43.5284 97.5777 43.5582 97.6274C43.588 97.677 43.6029 97.7267 43.6029 97.7764C43.6129 97.8161 43.6228 97.836 43.6327 97.836C43.6626 97.836 43.6973 97.8211 43.7371 97.7913C43.7768 97.7516 43.8166 97.7118 43.8563 97.6721C43.906 97.6323 43.9507 97.5976 43.9904 97.5677C44.0302 97.528 44.0649 97.5081 44.0947 97.5081H44.2438C44.3928 97.5081 44.4971 97.4883 44.5567 97.4485C44.6164 97.3988 44.6561 97.3492 44.676 97.2995C44.7058 97.2399 44.7256 97.1902 44.7356 97.1505C44.7455 97.1008 44.7753 97.0759 44.825 97.0759C44.8548 97.0759 44.8946 97.1008 44.9442 97.1505C45.0038 97.1902 45.0585 97.2647 45.1082 97.374C45.1678 97.4734 45.2175 97.6075 45.2572 97.7764C45.2969 97.9453 45.3168 98.149 45.3168 98.3874C45.3168 98.7054 45.3019 99.1077 45.2721 99.5946C45.2522 100.081 45.2224 100.603 45.1827 101.159C45.1529 101.706 45.1231 102.262 45.0933 102.829C45.0635 103.385 45.0436 103.892 45.0336 104.349C45.1429 103.921 45.2721 103.45 45.4211 102.933C45.5801 102.406 45.7589 101.875 45.9576 101.338C46.1663 100.802 46.3898 100.28 46.6283 99.7734C46.8667 99.2568 47.1251 98.7997 47.4033 98.4023C47.6814 98.0049 47.9745 97.687 48.2825 97.4485C48.5905 97.2001 48.9134 97.0759 49.2513 97.0759C49.7878 97.0759 50.2249 97.1753 50.5627 97.374C50.9105 97.5727 51.1837 97.8459 51.3824 98.1937C51.5811 98.5414 51.7152 98.9488 51.7848 99.4157C51.8643 99.8827 51.904 100.384 51.904 100.921C51.904 101.378 51.8841 101.86 51.8444 102.367C51.8047 102.863 51.76 103.365 51.7103 103.872C51.6705 104.369 51.6308 104.86 51.5911 105.347C51.5612 105.834 51.5463 106.291 51.5463 106.718C51.5463 107.245 51.5762 107.722 51.6358 108.149C51.6954 108.566 51.7252 108.884 51.7252 109.103ZM59.7729 109.073C60.369 109.073 60.9602 109.128 61.5464 109.237C62.1425 109.346 62.679 109.53 63.1559 109.788C63.6328 110.047 64.0153 110.384 64.3035 110.802C64.6015 111.229 64.7506 111.761 64.7506 112.396C64.7506 112.863 64.6413 113.335 64.4227 113.812C64.2041 114.289 63.9011 114.751 63.5136 115.198C63.1261 115.645 62.6691 116.068 62.1425 116.465C61.6259 116.862 61.0645 117.205 60.4585 117.493C59.8524 117.791 59.2215 118.025 58.5657 118.194C57.91 118.363 57.2543 118.447 56.5985 118.447C56.062 118.447 55.5553 118.388 55.0784 118.268C54.6114 118.159 54.1991 117.99 53.8414 117.762C53.4937 117.533 53.2155 117.245 53.0069 116.897C52.7982 116.559 52.6939 116.157 52.6939 115.69C52.6939 115.233 52.7833 114.801 52.9621 114.393C53.141 113.996 53.3745 113.628 53.6626 113.291C53.9607 112.953 54.2985 112.645 54.676 112.367C55.0536 112.098 55.441 111.87 55.8385 111.681C56.2458 111.502 56.6432 111.363 57.0307 111.264C57.4182 111.164 57.7709 111.115 58.0888 111.115C58.2577 111.135 58.372 111.154 58.4316 111.174C58.4912 111.204 58.521 111.234 58.521 111.264C58.521 111.294 58.5061 111.328 58.4763 111.368C58.4465 111.418 58.4316 111.458 58.4316 111.487C58.4515 111.547 58.4714 111.616 58.4912 111.696C58.5111 111.775 58.521 111.855 58.521 111.934C58.521 112.034 58.5012 112.118 58.4614 112.188C58.4316 112.267 58.3621 112.317 58.2528 112.337C57.8355 112.436 57.3735 112.605 56.8668 112.844C56.37 113.082 55.8981 113.36 55.451 113.678C55.0138 114.006 54.6462 114.354 54.3481 114.721C54.0501 115.099 53.8961 115.476 53.8861 115.854C53.8861 116.033 53.9706 116.162 54.1395 116.241C54.3084 116.321 54.5469 116.361 54.8549 116.361C55.2324 116.361 55.6845 116.306 56.211 116.197C56.7376 116.087 57.2841 115.928 57.8504 115.72C58.4167 115.521 58.9731 115.273 59.5196 114.975C60.0759 114.687 60.5727 114.359 61.0099 113.991C61.457 113.623 61.8146 113.226 62.0829 112.799C62.3512 112.372 62.4853 111.915 62.4853 111.428C62.4853 111.189 62.4356 111 62.3363 110.861C62.2468 110.732 62.1375 110.633 62.0084 110.563C61.8892 110.494 61.76 110.449 61.6209 110.429C61.4917 110.419 61.3825 110.414 61.293 110.414C60.5876 110.414 59.8673 110.454 59.1321 110.534C58.3968 110.623 57.7262 110.712 57.1201 110.802C56.524 110.901 56.0322 110.991 55.6447 111.07C55.2572 111.159 55.0536 111.204 55.0337 111.204C54.8151 111.204 54.6114 111.159 54.4227 111.07C54.2438 110.981 54.0898 110.866 53.9607 110.727C53.8315 110.588 53.7272 110.424 53.6477 110.235C53.5781 110.057 53.5434 109.873 53.5434 109.684C53.5434 109.535 53.6328 109.321 53.8116 109.043C53.9905 108.755 54.224 108.447 54.5121 108.119C54.8002 107.791 55.1281 107.468 55.4957 107.15C55.8732 106.833 56.2508 106.569 56.6283 106.361C56.2905 106.182 55.9875 105.963 55.7192 105.705C55.451 105.447 55.2225 105.168 55.0337 104.87C54.8549 104.572 54.7158 104.259 54.6164 103.931C54.517 103.594 54.4674 103.251 54.4674 102.903C54.4674 102.227 54.5618 101.631 54.7505 101.115C54.9393 100.588 55.1877 100.131 55.4957 99.7436C55.8037 99.3561 56.1465 99.0332 56.524 98.7749C56.9115 98.5166 57.294 98.3079 57.6716 98.149C58.0491 97.99 58.4068 97.8807 58.7446 97.8211C59.0824 97.7516 59.3656 97.7168 59.5941 97.7168C59.7034 97.7168 59.7928 97.7217 59.8623 97.7317C59.9418 97.7416 60.0114 97.7565 60.071 97.7764C60.3194 97.379 60.6025 96.9567 60.9205 96.5096C61.2483 96.0526 61.5812 95.6055 61.919 95.1683C62.2667 94.7212 62.6095 94.299 62.9473 93.9016C63.295 93.4942 63.608 93.1365 63.8862 92.8285C64.1743 92.5106 64.4177 92.2622 64.6164 92.0834C64.8152 91.8946 64.9493 91.8002 65.0188 91.8002C65.1082 91.8002 65.2175 91.8598 65.3467 91.979C65.4759 92.0883 65.6001 92.2175 65.7193 92.3665C65.8385 92.5056 65.9379 92.6447 66.0173 92.7838C66.1068 92.913 66.1515 93.0024 66.1515 93.0521C66.1515 93.1018 66.1316 93.1465 66.0919 93.1862C66.0521 93.2259 66.0322 93.2607 66.0322 93.2905C66.0322 93.3402 66.0571 93.3849 66.1068 93.4247C66.1664 93.4545 66.2508 93.4942 66.3601 93.5439C66.38 93.5638 66.3949 93.5737 66.4048 93.5737C66.4148 93.5737 66.4197 93.5836 66.4197 93.6035C66.4197 93.6432 66.3551 93.7128 66.226 93.8121C66.0968 93.9016 65.8882 94.0655 65.6001 94.3039C65.3119 94.5325 64.9393 94.8554 64.4823 95.2727C64.0253 95.6899 63.4639 96.2414 62.7983 96.9269C62.6393 97.0759 62.4754 97.2597 62.3064 97.4783C62.1375 97.6969 61.9537 97.9304 61.755 98.1788C62.0134 98.3179 62.2816 98.5017 62.5598 98.7302C62.838 98.9587 63.0864 99.227 63.305 99.535C63.5335 99.833 63.7173 100.176 63.8564 100.563C64.0054 100.951 64.0799 101.368 64.0799 101.815C64.0799 102.769 63.921 103.569 63.603 104.215C63.2851 104.86 62.8728 105.382 62.3661 105.779C61.8594 106.167 61.293 106.445 60.6671 106.614C60.0412 106.783 59.4252 106.867 58.8191 106.867C58.6701 106.867 58.526 106.862 58.3869 106.852C58.2577 106.842 58.1286 106.828 57.9994 106.808C57.7709 106.957 57.5126 107.141 57.2245 107.359C56.9363 107.578 56.6532 107.816 56.375 108.074C56.0968 108.333 55.8385 108.596 55.6 108.864C55.3715 109.133 55.1976 109.386 55.0784 109.624C55.4758 109.614 55.8583 109.585 56.2259 109.535C56.5936 109.475 56.9612 109.411 57.3288 109.341C57.7063 109.272 58.0938 109.212 58.4912 109.162C58.8887 109.103 59.3159 109.073 59.7729 109.073ZM59.3109 99.5499C59.3109 99.3512 59.4252 99.0134 59.6537 98.5365C59.1867 98.6855 58.7694 98.909 58.4018 99.2071C58.0342 99.5052 57.7212 99.843 57.4629 100.221C57.2046 100.598 57.0059 101.005 56.8668 101.443C56.7277 101.87 56.6581 102.297 56.6581 102.724C56.6581 103.032 56.6929 103.33 56.7625 103.618C56.8419 103.897 56.9612 104.15 57.1201 104.379C57.2791 104.597 57.4828 104.776 57.7312 104.915C57.9895 105.044 58.3025 105.109 58.6701 105.109C59.0675 105.109 59.4202 105.039 59.7282 104.9C60.0461 104.751 60.3243 104.562 60.5628 104.334C60.8012 104.095 60.9999 103.832 61.1589 103.544C61.3278 103.256 61.4619 102.973 61.5613 102.694C61.6706 102.406 61.7501 102.138 61.7997 101.89C61.8494 101.641 61.8743 101.443 61.8743 101.294C61.8743 100.697 61.7749 100.235 61.5762 99.9075C61.3874 99.5697 61.1639 99.3164 60.9055 99.1475C60.7665 99.3164 60.6224 99.4803 60.4734 99.6393C60.3243 99.7883 60.1703 99.9423 60.0114 100.101C59.9915 100.121 59.9617 100.131 59.9219 100.131C59.8921 100.131 59.8673 100.116 59.8474 100.086C59.8276 100.057 59.7928 100.042 59.7431 100.042C59.7133 100.042 59.6835 100.057 59.6537 100.086C59.6239 100.116 59.5841 100.131 59.5345 100.131C59.4649 100.131 59.4103 100.091 59.3705 100.012C59.3308 99.9324 59.3109 99.7784 59.3109 99.5499ZM75.6299 109.654C75.6299 109.744 75.5554 109.853 75.4064 109.982C75.2573 110.111 75.0685 110.176 74.84 110.176C74.7705 110.176 74.6413 110.141 74.4526 110.072C74.2737 110.002 74.0849 109.898 73.8862 109.759C73.6875 109.629 73.5087 109.47 73.3497 109.282C73.1907 109.083 73.1063 108.859 73.0964 108.611C73.0765 108.502 73.0666 108.353 73.0666 108.164C73.0666 107.965 73.0666 107.737 73.0666 107.478C73.0666 107.081 73.0666 106.639 73.0666 106.152C73.0666 105.665 73.0765 105.173 73.0964 104.677C73.0268 105.034 72.9424 105.407 72.843 105.794C72.7437 106.172 72.6195 106.549 72.4704 106.927C72.3214 107.304 72.1475 107.677 71.9488 108.045C71.7501 108.412 71.5216 108.765 71.2633 109.103C71.1242 109.282 70.9751 109.436 70.8162 109.565C70.6671 109.684 70.5181 109.783 70.3691 109.863C70.22 109.952 70.0809 110.017 69.9518 110.057C69.8226 110.096 69.7233 110.116 69.6537 110.116C69.614 110.116 69.5196 110.072 69.3706 109.982C69.2315 109.903 69.0626 109.798 68.8639 109.669C68.6751 109.53 68.4714 109.381 68.2528 109.222C68.0342 109.053 67.8256 108.889 67.6269 108.73C67.4282 108.561 67.2493 108.407 67.0904 108.268C66.9314 108.119 66.8171 108 66.7476 107.911C66.6781 107.811 66.6135 107.642 66.5539 107.404C66.5042 107.165 66.4595 106.872 66.4197 106.525C66.38 106.177 66.3452 105.784 66.3154 105.347C66.2955 104.91 66.2856 104.443 66.2856 103.946C66.2856 103.678 66.2906 103.33 66.3005 102.903C66.3104 102.476 66.3303 102.019 66.3601 101.532C66.3899 101.035 66.4247 100.538 66.4644 100.042C66.5141 99.535 66.5688 99.0829 66.6284 98.6855C66.6979 98.2781 66.7774 97.9503 66.8668 97.7019C66.9562 97.4436 67.0606 97.3144 67.1798 97.3144C67.2593 97.3144 67.3984 97.3392 67.5971 97.3889C67.7958 97.4286 67.9995 97.4485 68.2081 97.4485C68.5161 97.4485 68.7297 97.4237 68.849 97.374C68.9781 97.3144 69.0725 97.2846 69.1321 97.2846C69.2315 97.2846 69.2811 97.369 69.2811 97.5379C69.2811 97.5876 69.2811 97.6373 69.2811 97.687C69.2811 97.7267 69.2712 97.7764 69.2513 97.836C69.2414 97.8956 69.2166 98.0496 69.1768 98.298C69.147 98.5464 69.1073 98.8643 69.0576 99.2518C69.0079 99.6393 68.9582 100.076 68.9086 100.563C68.8589 101.04 68.8092 101.542 68.7595 102.069C68.7198 102.595 68.685 103.127 68.6552 103.663C68.6254 104.2 68.6105 104.711 68.6105 105.198C68.6105 105.526 68.6155 105.854 68.6254 106.182C68.6453 106.51 68.6751 106.808 68.7148 107.076C68.7546 107.344 68.8092 107.563 68.8788 107.732C68.9483 107.891 69.0328 107.97 69.1321 107.97C69.2215 107.97 69.3457 107.93 69.5047 107.851C69.6736 107.762 69.8673 107.588 70.0859 107.329C70.3144 107.071 70.5628 106.703 70.8311 106.226C71.0993 105.75 71.3875 105.119 71.6955 104.334C72.0134 103.539 72.3413 102.57 72.6791 101.428C73.0268 100.275 73.3795 98.9041 73.7372 97.3144C73.7372 97.2846 73.7521 97.2647 73.7819 97.2548C73.8216 97.2349 73.8664 97.225 73.916 97.225C74.0452 97.225 74.2091 97.2399 74.4078 97.2697C74.6066 97.2896 74.7953 97.3243 74.9742 97.374C75.1629 97.4137 75.3219 97.4634 75.4511 97.523C75.5902 97.5826 75.6597 97.6472 75.6597 97.7168C75.6597 98.1639 75.6398 98.6507 75.6001 99.1773C75.5604 99.7039 75.5156 100.25 75.466 100.817C75.4163 101.373 75.3716 101.944 75.3318 102.531C75.2921 103.117 75.2722 103.698 75.2722 104.274C75.2722 105.307 75.302 106.296 75.3616 107.24C75.4312 108.174 75.5206 108.979 75.6299 109.654ZM81.2037 89.8479C81.2037 89.987 81.1938 90.2602 81.1739 90.6676C81.154 91.0749 81.1292 91.5667 81.0994 92.143C81.0696 92.7093 81.0348 93.3352 80.9951 94.0208C80.9652 94.6964 80.9305 95.377 80.8907 96.0625C80.851 96.7381 80.8162 97.3939 80.7864 98.0297C80.7566 98.6656 80.7367 99.222 80.7268 99.6989C80.7069 99.987 80.692 100.305 80.6821 100.653C80.6821 101 80.6821 101.373 80.6821 101.77C80.6821 102.297 80.6821 102.848 80.6821 103.425C80.692 103.991 80.702 104.552 80.7119 105.109C80.7218 105.665 80.7318 106.202 80.7417 106.718C80.7616 107.225 80.7765 107.682 80.7864 108.089C80.7963 108.497 80.8013 108.84 80.8013 109.118C80.8112 109.386 80.8162 109.555 80.8162 109.624C80.8162 109.764 80.7914 109.868 80.7417 109.937C80.702 110.017 80.6473 110.067 80.5778 110.086C80.5181 110.116 80.4536 110.121 80.384 110.101C80.3145 110.091 80.2549 110.072 80.2052 110.042C80.1456 110.012 80.0959 109.977 80.0562 109.937C80.0263 109.898 80.0015 109.868 79.9816 109.848C79.9618 109.828 79.9419 109.823 79.922 109.833C79.9121 109.843 79.9022 109.883 79.8922 109.952C79.8624 110.211 79.8028 110.404 79.7134 110.534C79.6339 110.663 79.5445 110.747 79.4451 110.787C79.3557 110.837 79.2712 110.851 79.1918 110.832C79.1123 110.812 79.0626 110.777 79.0427 110.727C79.0229 110.678 78.9881 110.648 78.9384 110.638C78.8987 110.628 78.854 110.618 78.8043 110.608C78.7546 110.608 78.7049 110.593 78.6553 110.563C78.6155 110.543 78.5907 110.494 78.5807 110.414C78.5013 110.076 78.4516 109.649 78.4317 109.133C78.4118 108.606 78.4019 108.015 78.4019 107.359C78.4019 106.793 78.4069 106.182 78.4168 105.526C78.4267 104.87 78.4317 104.2 78.4317 103.514C78.4317 103.117 78.4317 102.724 78.4317 102.337C78.4317 101.939 78.4218 101.537 78.4019 101.13V100.191C78.4019 99.3859 78.4218 98.5812 78.4615 97.7764C78.5013 96.9617 78.5509 96.1817 78.6105 95.4366C78.6702 94.6914 78.7347 93.991 78.8043 93.3352C78.8738 92.6795 78.9334 92.0983 78.9831 91.5916C79.0328 91.0849 79.0725 90.6725 79.1023 90.3546C79.1322 90.0367 79.1421 89.838 79.1322 89.7585C79.1222 89.6889 79.1272 89.6392 79.1471 89.6094C79.1769 89.5796 79.2116 89.5647 79.2514 89.5647C79.3011 89.5548 79.3507 89.5498 79.4004 89.5498C79.4501 89.5399 79.4948 89.525 79.5345 89.5051C79.6041 89.4654 79.6587 89.4554 79.6985 89.4753C79.7482 89.4852 79.7879 89.5051 79.8177 89.5349C79.8475 89.5647 79.8723 89.5995 79.8922 89.6392C79.922 89.6691 79.9618 89.684 80.0114 89.684C80.0711 89.674 80.1158 89.6591 80.1456 89.6392C80.1853 89.6094 80.2151 89.5846 80.235 89.5647C80.2648 89.5349 80.2896 89.5101 80.3095 89.4902C80.3393 89.4703 80.3741 89.4654 80.4138 89.4753C80.4933 89.4952 80.5678 89.5101 80.6374 89.52C80.7169 89.52 80.7566 89.5051 80.7566 89.4753C80.7765 89.3958 80.8063 89.3611 80.846 89.371C80.8858 89.371 80.9354 89.3958 80.9951 89.4455C81.0547 89.4952 81.1043 89.5498 81.1441 89.6094C81.1838 89.6591 81.2037 89.7386 81.2037 89.8479ZM92.3513 101.01C92.3612 101.358 92.3314 101.785 92.2619 102.292C92.1923 102.789 92.1128 103.325 92.0234 103.902C91.934 104.468 91.8495 105.049 91.7701 105.645C91.6906 106.241 91.6508 106.803 91.6508 107.329C91.6508 107.677 91.6757 108.01 91.7254 108.328C91.775 108.636 91.8595 108.904 91.9787 109.133C92.0483 109.262 92.083 109.376 92.083 109.475C92.093 109.575 92.088 109.664 92.0681 109.744C92.0483 109.813 92.0284 109.873 92.0085 109.922C91.9886 109.982 91.9886 110.037 92.0085 110.086C92.0284 110.136 92.0234 110.191 91.9936 110.25C91.9638 110.32 91.9191 110.38 91.8595 110.429C91.7999 110.489 91.7303 110.529 91.6508 110.548C91.5813 110.578 91.5167 110.573 91.4571 110.534C91.3478 110.464 91.2584 110.424 91.1888 110.414C91.1292 110.404 91.0746 110.404 91.0249 110.414C90.9852 110.434 90.9454 110.454 90.9057 110.474C90.8759 110.494 90.8361 110.494 90.7864 110.474C90.6175 110.384 90.4337 110.28 90.235 110.161C90.0363 110.042 89.9072 109.913 89.8475 109.773C89.8078 109.714 89.7681 109.614 89.7283 109.475C89.6985 109.336 89.6687 109.172 89.6389 108.984C89.619 108.795 89.5992 108.591 89.5793 108.373C89.5594 108.154 89.5445 107.94 89.5346 107.732C89.2067 108.348 88.854 108.859 88.4765 109.267C88.1088 109.674 87.7363 109.997 87.3587 110.235C86.9911 110.484 86.6235 110.658 86.2559 110.757C85.8982 110.856 85.5703 110.906 85.2723 110.906C84.9643 110.906 84.691 110.866 84.4526 110.787C84.2241 110.707 84.0452 110.613 83.9161 110.504C83.4292 110.017 83.0815 109.624 82.8729 109.326C82.6741 109.018 82.5847 108.77 82.6046 108.581C82.6543 107.945 82.8083 107.359 83.0666 106.823C83.3249 106.286 83.6478 105.794 84.0353 105.347C84.4228 104.89 84.855 104.483 85.3319 104.125C85.8187 103.758 86.3105 103.435 86.8073 103.156C87.314 102.868 87.8108 102.63 88.2976 102.441C88.7845 102.242 89.2266 102.083 89.624 101.964C89.6041 101.428 89.5793 100.961 89.5495 100.563C89.5296 100.156 89.4948 99.8579 89.4452 99.6691C89.2961 99.0531 89.0676 98.5961 88.7596 98.298C88.4516 97.99 88.079 97.836 87.6419 97.836C87.3637 97.836 87.0805 97.9403 86.7924 98.149C86.5142 98.3576 86.2608 98.6408 86.0323 98.9985C85.8038 99.3561 85.615 99.7684 85.466 100.235C85.3269 100.702 85.2524 101.194 85.2425 101.711C85.2425 101.84 85.2474 101.964 85.2574 102.083C85.2673 102.203 85.2822 102.327 85.3021 102.456C85.312 102.526 85.2872 102.575 85.2276 102.605C85.1779 102.635 85.1133 102.66 85.0338 102.68C84.9543 102.689 84.8699 102.699 84.7805 102.709C84.691 102.719 84.6165 102.734 84.5569 102.754C84.5072 102.774 84.4675 102.789 84.4377 102.799C84.4079 102.799 84.3781 102.794 84.3483 102.784C84.3185 102.764 84.2787 102.734 84.229 102.694C84.1893 102.655 84.1297 102.605 84.0502 102.545C83.9707 102.486 83.8863 102.436 83.7969 102.396C83.7174 102.357 83.6429 102.322 83.5733 102.292C83.5137 102.262 83.459 102.237 83.4094 102.218C83.3696 102.188 83.3498 102.153 83.3498 102.113C83.3498 101.497 83.4839 100.861 83.7521 100.206C84.0303 99.5499 84.3979 98.9537 84.855 98.4172C85.3219 97.8708 85.8585 97.4237 86.4645 97.0759C87.0805 96.7282 87.7313 96.5543 88.4168 96.5543C88.9732 96.5543 89.4551 96.6388 89.8625 96.8077C90.2698 96.9766 90.6175 97.1952 90.9057 97.4634C91.1938 97.7317 91.4273 98.0297 91.6061 98.3576C91.7949 98.6855 91.939 99.0183 92.0383 99.3561C92.1476 99.684 92.2221 99.997 92.2619 100.295C92.3115 100.583 92.3413 100.822 92.3513 101.01ZM89.6538 103.663C89.3557 103.772 89.0279 103.917 88.6702 104.095C88.3125 104.274 87.9499 104.488 87.5823 104.736C87.2147 104.975 86.847 105.253 86.4794 105.571C86.1118 105.889 85.769 106.241 85.4511 106.629C85.0736 107.076 84.8003 107.473 84.6314 107.821C84.4625 108.169 84.3582 108.467 84.3185 108.715C84.2787 108.954 84.2887 109.143 84.3483 109.282C84.4079 109.421 84.4774 109.505 84.5569 109.535C84.8649 109.654 85.1828 109.669 85.5107 109.58C85.8485 109.48 86.1814 109.311 86.5092 109.073C86.847 108.825 87.1699 108.532 87.4779 108.194C87.7959 107.846 88.0939 107.493 88.3721 107.136C88.6503 106.768 88.8987 106.41 89.1173 106.063C89.3359 105.705 89.5147 105.397 89.6538 105.139V103.663ZM101.994 99.0283C101.984 99.3164 101.954 99.6045 101.904 99.8926C101.864 100.171 101.805 100.439 101.725 100.697C101.646 100.946 101.547 101.169 101.427 101.368C101.318 101.567 101.194 101.726 101.055 101.845C100.936 101.944 100.841 101.994 100.772 101.994C100.702 101.994 100.642 101.974 100.593 101.934C100.553 101.895 100.518 101.85 100.488 101.8C100.459 101.751 100.419 101.721 100.369 101.711C100.329 101.701 100.275 101.706 100.205 101.726C100.146 101.736 100.081 101.736 100.012 101.726C99.9519 101.716 99.8923 101.681 99.8327 101.621C99.783 101.552 99.7482 101.433 99.7284 101.264C99.7085 101.075 99.7135 100.832 99.7433 100.533C99.783 100.225 99.8029 99.9274 99.8029 99.6393C99.8029 99.381 99.7731 99.1674 99.7135 98.9985C99.6638 98.8196 99.5694 98.7302 99.4303 98.7302C99.3608 98.7302 99.2366 98.7848 99.0577 98.8941C98.8888 98.9935 98.7 99.2121 98.4914 99.5499C98.2828 99.8877 98.0741 100.379 97.8655 101.025C97.6568 101.661 97.4879 102.511 97.3588 103.574C97.3588 104.945 97.3687 106.048 97.3886 106.882C97.4084 107.717 97.4184 108.368 97.4184 108.835C97.4184 109.232 97.4084 109.515 97.3886 109.684C97.3687 109.853 97.319 109.962 97.2395 110.012C97.1899 110.042 97.0905 110.076 96.9415 110.116C96.8024 110.166 96.6484 110.211 96.4795 110.25C96.3205 110.29 96.1665 110.325 96.0175 110.355C95.8684 110.384 95.7741 110.394 95.7343 110.384C95.7045 110.375 95.6499 110.34 95.5704 110.28C95.4909 110.23 95.4064 110.166 95.317 110.086C95.2375 110.007 95.163 109.922 95.0935 109.833C95.0239 109.754 94.9842 109.684 94.9742 109.624C94.9544 109.525 94.9444 109.302 94.9444 108.954C94.9544 108.596 94.9593 108.169 94.9593 107.672C94.9693 107.175 94.9792 106.634 94.9892 106.048C94.9991 105.452 95.0041 104.86 95.0041 104.274C95.0041 103.897 95.014 103.479 95.0339 103.022C95.0637 102.555 95.0935 102.083 95.1233 101.607C95.163 101.13 95.2028 100.663 95.2425 100.206C95.2822 99.7486 95.317 99.3412 95.3468 98.9835C95.3866 98.6159 95.4164 98.3129 95.4362 98.0745C95.4661 97.8261 95.4859 97.677 95.4959 97.6274C95.5058 97.5479 95.5406 97.5181 95.6002 97.5379C95.6697 97.5578 95.7393 97.5926 95.8088 97.6423C95.8883 97.6919 95.9579 97.7366 96.0175 97.7764C96.0771 97.8161 96.1168 97.8161 96.1367 97.7764C96.1566 97.687 96.2311 97.677 96.3602 97.7466C96.4894 97.8062 96.6086 97.8757 96.7179 97.9552C96.7577 98.0049 96.8024 98.0496 96.8521 98.0894C96.9117 98.1192 96.9663 98.1639 97.016 98.2235C97.0657 98.2732 97.1054 98.3427 97.1352 98.4321C97.175 98.5215 97.1948 98.6408 97.1948 98.7898C97.1948 98.9289 97.2048 99.1375 97.2246 99.4157C97.2445 99.6939 97.2693 100.022 97.2991 100.399C97.4084 100.042 97.5376 99.6641 97.6866 99.2667C97.8456 98.8693 98.0344 98.5066 98.253 98.1788C98.4715 97.841 98.7299 97.5628 99.0279 97.3442C99.326 97.1256 99.6837 97.0163 100.101 97.0163C100.329 97.0163 100.558 97.061 100.786 97.1505C101.015 97.2399 101.219 97.374 101.398 97.5528C101.586 97.7217 101.735 97.9304 101.845 98.1788C101.954 98.4272 102.004 98.7103 101.994 99.0283ZM105.645 108.164C105.655 108.303 105.645 108.467 105.615 108.656C105.595 108.835 105.56 109.008 105.511 109.177C105.461 109.346 105.392 109.5 105.302 109.639C105.213 109.768 105.103 109.853 104.974 109.893C104.607 110.022 104.319 110.086 104.11 110.086C103.911 110.086 103.742 110.052 103.603 109.982C103.474 109.913 103.34 109.833 103.201 109.744C103.002 109.634 102.833 109.485 102.694 109.297C102.565 109.108 102.5 108.919 102.5 108.73C102.5 108.591 102.53 108.422 102.59 108.224C102.659 108.025 102.739 107.831 102.828 107.642C102.928 107.444 103.032 107.265 103.141 107.106C103.26 106.947 103.37 106.838 103.469 106.778C103.638 106.688 103.772 106.644 103.871 106.644C103.981 106.634 104.08 106.629 104.17 106.629C104.636 106.629 104.994 106.748 105.243 106.987C105.491 107.215 105.625 107.608 105.645 108.164ZM111.129 88.7451C111.229 88.9736 111.298 89.217 111.338 89.4753C111.388 89.7237 111.412 89.9771 111.412 90.2354C111.412 90.5235 111.388 90.8017 111.338 91.07C111.288 91.3382 111.219 91.5816 111.129 91.8002C111.05 92.0188 110.95 92.2026 110.831 92.3516C110.712 92.4907 110.578 92.5801 110.429 92.6199C110.28 92.6596 110.121 92.6745 109.952 92.6646C109.793 92.6447 109.634 92.605 109.475 92.5454C109.316 92.4858 109.167 92.4013 109.028 92.292C108.889 92.1827 108.77 92.0486 108.67 91.8896C108.422 91.4922 108.298 91.0153 108.298 90.4589C108.298 90.29 108.308 90.1161 108.328 89.9373C108.357 89.7585 108.397 89.5846 108.447 89.4157C108.457 89.3461 108.491 89.2319 108.551 89.0729C108.611 88.914 108.68 88.76 108.76 88.6109C108.839 88.452 108.929 88.3129 109.028 88.1936C109.137 88.0744 109.252 88.0148 109.371 88.0148C109.47 88.0148 109.609 88.0347 109.788 88.0744C109.967 88.1142 110.151 88.1688 110.339 88.2383C110.528 88.298 110.697 88.3725 110.846 88.4619C110.995 88.5513 111.09 88.6457 111.129 88.7451ZM110.98 96.8077C111.04 96.8375 111.065 97.0163 111.055 97.3442C111.045 97.6721 111.015 98.1291 110.965 98.7153C110.926 99.3015 110.871 100.012 110.801 100.846C110.742 101.681 110.682 102.62 110.623 103.663C110.583 104.21 110.553 104.88 110.533 105.675C110.513 106.46 110.488 107.304 110.459 108.209C110.429 109.113 110.384 110.042 110.325 110.996C110.275 111.949 110.195 112.858 110.086 113.723C109.977 114.597 109.838 115.397 109.669 116.122C109.5 116.857 109.286 117.449 109.028 117.896C108.978 117.985 108.914 118.045 108.834 118.075C108.755 118.104 108.655 118.134 108.536 118.164C108.417 118.204 108.268 118.258 108.089 118.328C107.91 118.397 107.697 118.517 107.448 118.686C107.22 118.854 107.036 118.979 106.897 119.058C106.758 119.138 106.594 119.187 106.405 119.207C106.345 119.207 106.286 119.207 106.226 119.207C106.157 119.207 106.072 119.197 105.973 119.177C105.605 119.138 105.277 118.959 104.989 118.641C104.701 118.323 104.463 117.945 104.274 117.508C104.075 117.071 103.931 116.604 103.842 116.107C103.742 115.62 103.703 115.178 103.722 114.781C103.762 114.085 103.837 113.479 103.946 112.963C104.055 112.446 104.174 112.014 104.304 111.666C104.423 111.318 104.547 111.055 104.676 110.876C104.795 110.707 104.895 110.613 104.974 110.593C105.084 110.573 105.208 110.578 105.347 110.608C105.476 110.638 105.595 110.717 105.705 110.846C105.744 110.896 105.804 110.946 105.883 110.996C105.953 111.045 106.022 111.1 106.092 111.159C106.152 111.219 106.201 111.289 106.241 111.368C106.271 111.448 106.266 111.547 106.226 111.666C106.206 111.756 106.167 111.939 106.107 112.218C106.047 112.506 105.988 112.844 105.928 113.231C105.868 113.628 105.819 114.056 105.779 114.513C105.729 114.97 105.705 115.417 105.705 115.854C105.705 116.122 105.714 116.376 105.734 116.614C105.754 116.862 105.794 117.086 105.854 117.285C105.903 117.483 105.973 117.652 106.062 117.791C106.142 117.94 106.246 118.045 106.375 118.104C106.445 118.134 106.534 118.089 106.643 117.97C106.753 117.861 106.872 117.662 107.001 117.374C107.12 117.086 107.24 116.698 107.359 116.212C107.478 115.735 107.577 115.144 107.657 114.438C107.697 114.061 107.736 113.529 107.776 112.844C107.826 112.168 107.87 111.418 107.91 110.593C107.95 109.778 107.99 108.924 108.029 108.03C108.069 107.136 108.104 106.286 108.134 105.481C108.174 104.667 108.203 103.936 108.223 103.291C108.253 102.645 108.278 102.153 108.298 101.815C108.318 101.487 108.342 101.14 108.372 100.772C108.412 100.394 108.452 100.022 108.491 99.6542C108.541 99.2866 108.586 98.9388 108.626 98.611C108.675 98.2732 108.72 97.9751 108.76 97.7168C108.799 97.4485 108.829 97.2349 108.849 97.0759C108.879 96.907 108.899 96.8077 108.909 96.7779C108.929 96.6785 109.008 96.6338 109.147 96.6437C109.286 96.6437 109.381 96.6785 109.43 96.7481C109.46 96.7779 109.535 96.8126 109.654 96.8524C109.773 96.8921 109.942 96.8673 110.161 96.7779C110.19 96.7679 110.215 96.7481 110.235 96.7183C110.265 96.6785 110.305 96.6537 110.354 96.6437C110.404 96.6239 110.474 96.6239 110.563 96.6437C110.662 96.6636 110.801 96.7183 110.98 96.8077ZM122.396 98.0297C122.426 98.0894 122.441 98.149 122.441 98.2086C122.451 98.2682 122.456 98.3377 122.456 98.4172C122.456 98.7352 122.287 99.068 121.949 99.4157C121.621 99.7635 121.1 100.081 120.384 100.37C120.235 100.429 120.101 100.459 119.982 100.459C119.833 100.459 119.704 100.419 119.594 100.34C119.495 100.25 119.445 100.161 119.445 100.071C119.445 100.012 119.48 99.9423 119.55 99.8628C119.629 99.7834 119.709 99.7039 119.788 99.6244C119.877 99.5449 119.957 99.4704 120.027 99.4008C120.106 99.3313 120.146 99.2766 120.146 99.2369C120.146 99.1574 120.081 99.1177 119.952 99.1177C119.753 99.1177 119.5 99.1773 119.192 99.2965C118.884 99.4058 118.556 99.5548 118.208 99.7436C117.871 99.9224 117.523 100.121 117.165 100.34C116.817 100.548 116.504 100.757 116.226 100.966C115.948 101.164 115.719 101.343 115.541 101.502C115.372 101.661 115.287 101.775 115.287 101.845C115.287 101.885 115.327 101.905 115.407 101.905H115.839C116.107 101.905 116.45 101.919 116.867 101.949C117.294 101.979 117.741 102.039 118.208 102.128C118.675 102.208 119.142 102.327 119.609 102.486C120.086 102.635 120.508 102.839 120.876 103.097C121.254 103.355 121.562 103.668 121.8 104.036C122.038 104.403 122.158 104.841 122.158 105.347C122.158 105.606 122.113 105.884 122.024 106.182C121.944 106.47 121.795 106.768 121.576 107.076C121.368 107.374 121.08 107.682 120.712 108C120.344 108.308 119.877 108.616 119.311 108.924C118.457 109.381 117.657 109.719 116.912 109.937C116.177 110.156 115.511 110.265 114.915 110.265C114.14 110.265 113.529 110.091 113.082 109.744C112.635 109.396 112.411 108.899 112.411 108.253C112.411 107.776 112.5 107.369 112.679 107.031C112.868 106.693 113.087 106.415 113.335 106.197C113.583 105.968 113.832 105.804 114.08 105.705C114.329 105.596 114.517 105.536 114.646 105.526C114.706 105.526 114.756 105.521 114.795 105.511C114.845 105.501 114.895 105.496 114.945 105.496C115.034 105.496 115.079 105.551 115.079 105.66V105.809C115.079 105.869 115.094 105.923 115.123 105.973C115.153 106.013 115.168 106.058 115.168 106.107C115.168 106.167 115.094 106.256 114.945 106.376C114.805 106.495 114.651 106.634 114.483 106.793C114.314 106.952 114.155 107.121 114.006 107.3C113.867 107.478 113.797 107.652 113.797 107.821C113.797 108.02 113.956 108.119 114.274 108.119C114.671 108.119 115.089 108.045 115.526 107.896C115.973 107.737 116.405 107.538 116.822 107.3C117.25 107.061 117.652 106.793 118.029 106.495C118.417 106.187 118.755 105.889 119.043 105.601C119.331 105.312 119.56 105.044 119.728 104.796C119.897 104.537 119.982 104.334 119.982 104.185C119.982 104.006 119.877 103.862 119.669 103.753C119.47 103.643 119.192 103.554 118.834 103.484C118.487 103.415 118.079 103.37 117.612 103.35C117.145 103.32 116.653 103.305 116.137 103.305C115.6 103.305 115.153 103.33 114.795 103.38C114.448 103.43 114.234 103.455 114.155 103.455C114.095 103.455 113.996 103.45 113.857 103.44C113.727 103.42 113.593 103.375 113.454 103.305C113.325 103.226 113.211 103.112 113.111 102.963C113.012 102.814 112.962 102.6 112.962 102.322C112.962 102.133 113.002 101.919 113.082 101.681C113.171 101.443 113.32 101.189 113.529 100.921C113.747 100.643 114.04 100.345 114.408 100.027C114.786 99.7088 115.262 99.376 115.839 99.0283C116.445 98.6606 117.011 98.3626 117.538 98.1341C118.074 97.8956 118.556 97.7118 118.983 97.5826C119.42 97.4535 119.803 97.369 120.131 97.3293C120.459 97.2796 120.717 97.2548 120.906 97.2548C121.353 97.2548 121.686 97.3144 121.904 97.4336C122.123 97.5429 122.287 97.7416 122.396 98.0297Z" fill="white"/>
<g clip-path="url(#clip0_58_112)">
<path d="M44.0239 26.8784L74.0016 16.1665L104.787 26.6879L99.802 66.4646L74.0016 80.7947L48.6049 66.655L44.0239 26.8784Z" fill="#3259E2"/>
<path d="M104.786 26.6879L74.0015 16.1665V80.7947L99.8018 66.4884L104.786 26.6879Z" fill="black"/>
<path d="M74.0487 23.7125L55.3691 65.3935L62.3472 65.2745L66.0975 55.8718H82.8546L86.9609 65.3935L93.6304 65.5125L74.0487 23.7125ZM74.0964 37.0667L80.4099 50.3016H68.542L74.0964 37.0667Z" fill="white"/>
</g>
<defs>
<clipPath id="clip0_58_112">
<rect width="61" height="65" fill="white" transform="translate(44 16)"/>
</clipPath>
</defs>
</svg>
