<svg width="176" height="176" viewBox="0 0 176 176" fill="none" xmlns="http://www.w3.org/2000/svg">
<circle cx="87.6522" cy="88.1097" r="87.6522" fill="#83E437"/>
<path d="M33.9142 105.916C33.9753 106.344 34.0426 106.931 34.1159 107.677C34.1893 108.423 34.2566 109.273 34.3177 110.227C34.3911 111.181 34.4461 112.22 34.4828 113.345C34.5317 114.47 34.5562 115.626 34.5562 116.812C34.5562 118.132 34.5195 119.465 34.4461 120.81C34.385 122.143 34.2749 123.433 34.1159 124.681C33.9692 125.916 33.7613 127.077 33.4923 128.166C33.2233 129.242 32.887 130.177 32.4835 130.972C32.2756 131.376 31.9821 131.828 31.603 132.329C31.224 132.831 30.7593 133.283 30.209 133.687C29.6587 134.09 29.0229 134.402 28.3014 134.622C27.5799 134.842 26.7729 134.879 25.8802 134.732C25.2443 134.622 24.6574 134.384 24.1193 134.017C23.5935 133.65 23.135 133.198 22.7437 132.66C22.3523 132.134 22.0466 131.553 21.8265 130.917C21.6064 130.269 21.4903 129.627 21.478 128.991C21.4658 128.27 21.5392 127.603 21.6981 126.992C21.8571 126.368 22.0466 125.818 22.2668 125.341C22.4991 124.864 22.7437 124.467 23.0004 124.149C23.2572 123.831 23.4773 123.605 23.6608 123.47C23.8809 123.311 24.0337 123.219 24.1193 123.195C24.2172 123.17 24.315 123.146 24.4128 123.122C24.5351 123.097 24.6207 123.091 24.6696 123.103C24.7307 123.103 24.7674 123.115 24.7797 123.14C24.8041 123.152 24.8225 123.177 24.8347 123.213C24.8469 123.238 24.8775 123.256 24.9264 123.268C24.9875 123.293 25.0548 123.305 25.1282 123.305C25.2015 123.305 25.2627 123.305 25.3116 123.305C25.3727 123.305 25.4094 123.317 25.4216 123.342C25.4461 123.354 25.4339 123.397 25.385 123.47C25.3605 123.507 25.3605 123.531 25.385 123.543C25.4216 123.556 25.4644 123.568 25.5134 123.58C25.5745 123.58 25.6234 123.592 25.6601 123.617C25.709 123.641 25.7273 123.678 25.7151 123.727C25.6907 123.763 25.6968 123.819 25.7335 123.892C25.7701 123.953 25.8191 123.971 25.8802 123.947C26.0392 123.91 26.1125 123.904 26.1003 123.929C26.0881 123.941 26.0269 123.996 25.9169 124.094C25.8068 124.179 25.6723 124.302 25.5134 124.461C25.3544 124.619 25.2138 124.815 25.0915 125.047C24.7735 125.671 24.5351 126.338 24.3761 127.047C24.2172 127.756 24.1377 128.453 24.1377 129.138C24.1377 129.59 24.1682 130.018 24.2294 130.422C24.3028 130.813 24.4067 131.162 24.5412 131.467C24.6757 131.773 24.8408 132.024 25.0365 132.219C25.2443 132.403 25.4828 132.513 25.7518 132.55C26.3754 132.635 26.9379 132.476 27.4393 132.073C27.9407 131.657 28.387 131.094 28.7783 130.385C29.1696 129.676 29.512 128.863 29.8055 127.946C30.099 127.028 30.3435 126.111 30.5392 125.194C30.7348 124.265 30.8816 123.378 30.9794 122.535C31.0894 121.679 31.1628 120.963 31.1995 120.388C31.2484 119.581 31.279 118.774 31.2912 117.967C31.3157 117.16 31.3279 116.359 31.3279 115.564C31.3279 114.146 31.3034 112.795 31.2545 111.511C31.2056 110.215 31.1445 109.059 31.0711 108.044C31.01 107.029 30.9427 106.198 30.8693 105.549C30.796 104.889 30.7348 104.486 30.6859 104.339C30.6615 104.278 30.6553 104.229 30.6676 104.192C30.692 104.155 30.7287 104.131 30.7776 104.119C30.8388 104.094 30.8999 104.088 30.961 104.1C31.0344 104.113 31.1017 104.131 31.1628 104.155C31.2484 104.18 31.2973 104.155 31.3096 104.082C31.3218 103.997 31.3646 103.935 31.4379 103.899C31.4991 103.874 31.5602 103.886 31.6214 103.935C31.6825 103.984 31.7314 104.009 31.7681 104.009C31.8293 104.009 31.8782 103.984 31.9149 103.935C31.9638 103.886 32.0188 103.874 32.0799 103.899C32.1166 103.923 32.1533 103.948 32.19 103.972C32.2389 103.997 32.3123 103.997 32.4101 103.972C32.4468 103.96 32.4774 103.935 32.5018 103.899C32.5263 103.85 32.5507 103.807 32.5752 103.77C32.6119 103.721 32.6424 103.691 32.6669 103.679C32.7036 103.666 32.7525 103.685 32.8136 103.734C32.8992 103.831 32.9604 103.886 32.9971 103.899C33.046 103.899 33.0765 103.886 33.0888 103.862C33.1132 103.825 33.1316 103.789 33.1438 103.752C33.156 103.703 33.1744 103.685 33.1988 103.697C33.3578 103.77 33.4678 103.831 33.529 103.88C33.6024 103.929 33.6513 104.021 33.6757 104.155C33.7124 104.29 33.743 104.492 33.7674 104.761C33.7919 105.03 33.8408 105.415 33.9142 105.916ZM49.5052 121.691C49.5174 122.119 49.4808 122.645 49.3952 123.268C49.3096 123.88 49.2117 124.54 49.1017 125.249C48.9916 125.946 48.8877 126.662 48.7899 127.395C48.692 128.129 48.6431 128.82 48.6431 129.468C48.6431 129.896 48.6737 130.306 48.7348 130.697C48.796 131.076 48.8999 131.406 49.0467 131.687C49.1322 131.846 49.175 131.987 49.175 132.109C49.1873 132.232 49.1812 132.342 49.1567 132.439C49.1322 132.525 49.1078 132.598 49.0833 132.66C49.0589 132.733 49.0589 132.8 49.0833 132.861C49.1078 132.922 49.1017 132.99 49.065 133.063C49.0283 133.149 48.9733 133.222 48.8999 133.283C48.8265 133.357 48.7409 133.405 48.6431 133.43C48.5575 133.467 48.478 133.461 48.4047 133.412C48.2702 133.326 48.1601 133.277 48.0745 133.265C48.0011 133.253 47.9339 133.253 47.8727 133.265C47.8238 133.289 47.7749 133.314 47.726 133.338C47.6893 133.363 47.6404 133.363 47.5793 133.338C47.3714 133.228 47.1452 133.1 46.9006 132.953C46.656 132.806 46.4971 132.647 46.4237 132.476C46.3748 132.403 46.3259 132.28 46.2769 132.109C46.2403 131.938 46.2036 131.736 46.1669 131.504C46.1424 131.272 46.118 131.021 46.0935 130.752C46.0691 130.483 46.0507 130.22 46.0385 129.963C45.635 130.721 45.2009 131.351 44.7362 131.852C44.2837 132.354 43.8252 132.751 43.3605 133.045C42.9081 133.35 42.4556 133.564 42.0032 133.687C41.563 133.809 41.1594 133.87 40.7926 133.87C40.4135 133.87 40.0772 133.821 39.7837 133.723C39.5025 133.626 39.2824 133.509 39.1234 133.375C38.5242 132.776 38.0962 132.293 37.8394 131.926C37.5949 131.547 37.4848 131.241 37.5093 131.009C37.5704 130.226 37.76 129.505 38.0779 128.844C38.3958 128.184 38.7933 127.579 39.2702 127.028C39.7471 126.466 40.279 125.965 40.8659 125.524C41.4651 125.072 42.0704 124.675 42.6818 124.332C43.3055 123.977 43.9169 123.684 44.5161 123.452C45.1153 123.207 45.6594 123.011 46.1486 122.865C46.1241 122.204 46.0935 121.63 46.0568 121.141C46.0324 120.639 45.9896 120.272 45.9284 120.04C45.745 119.282 45.4638 118.719 45.0847 118.352C44.7056 117.973 44.2471 117.784 43.709 117.784C43.3666 117.784 43.0181 117.912 42.6635 118.169C42.3211 118.426 42.0093 118.774 41.728 119.215C41.4468 119.655 41.2144 120.162 41.031 120.737C40.8598 121.312 40.7681 121.917 40.7559 122.553C40.7559 122.712 40.762 122.865 40.7742 123.011C40.7865 123.158 40.8048 123.311 40.8293 123.47C40.8415 123.556 40.8109 123.617 40.7375 123.653C40.6764 123.69 40.5969 123.721 40.4991 123.745C40.4013 123.757 40.2973 123.77 40.1873 123.782C40.0772 123.794 39.9855 123.812 39.9121 123.837C39.851 123.861 39.8021 123.88 39.7654 123.892C39.7287 123.892 39.692 123.886 39.6553 123.874C39.6187 123.849 39.5697 123.812 39.5086 123.763C39.4597 123.715 39.3863 123.653 39.2885 123.58C39.1907 123.507 39.0867 123.446 38.9767 123.397C38.8788 123.348 38.7871 123.305 38.7015 123.268C38.6282 123.232 38.5609 123.201 38.4998 123.177C38.4509 123.14 38.4264 123.097 38.4264 123.048C38.4264 122.29 38.5915 121.507 38.9216 120.7C39.264 119.893 39.7165 119.16 40.279 118.499C40.8537 117.827 41.514 117.276 42.26 116.848C43.0181 116.42 43.8191 116.206 44.6628 116.206C45.3476 116.206 45.9407 116.31 46.442 116.518C46.9434 116.726 47.3714 116.995 47.726 117.325C48.0806 117.655 48.368 118.022 48.5881 118.426C48.8204 118.829 48.9977 119.239 49.12 119.655C49.2545 120.058 49.3462 120.444 49.3952 120.81C49.4563 121.165 49.493 121.458 49.5052 121.691ZM46.1852 124.956C45.8184 125.09 45.4149 125.268 44.9746 125.488C44.5344 125.708 44.0881 125.971 43.6356 126.276C43.1832 126.57 42.7308 126.912 42.2783 127.304C41.8259 127.695 41.404 128.129 41.0127 128.606C40.548 129.156 40.2117 129.645 40.0038 130.073C39.796 130.501 39.6676 130.868 39.6187 131.174C39.5697 131.467 39.582 131.7 39.6553 131.871C39.7287 132.042 39.8143 132.146 39.9121 132.183C40.2912 132.329 40.6825 132.348 41.0861 132.238C41.5018 132.115 41.9115 131.908 42.315 131.614C42.7308 131.308 43.1282 130.948 43.5072 130.532C43.8986 130.104 44.2654 129.67 44.6078 129.23C44.9502 128.777 45.2559 128.337 45.5249 127.909C45.7939 127.469 46.014 127.09 46.1852 126.772V124.956ZM64.9862 117.894C64.9495 117.967 64.8456 118.187 64.6744 118.554C64.5032 118.921 64.2831 119.386 64.014 119.948C63.7573 120.499 63.4577 121.134 63.1153 121.856C62.7851 122.565 62.4366 123.305 62.0698 124.075C61.7151 124.846 61.3544 125.628 60.9876 126.423C60.6207 127.218 60.2661 127.976 59.9237 128.698C59.5935 129.407 59.2878 130.061 59.0066 130.66C58.7376 131.259 58.5113 131.755 58.3279 132.146C58.2668 132.256 58.1934 132.366 58.1078 132.476C58.0344 132.586 57.9549 132.684 57.8693 132.77C57.7837 132.855 57.692 132.922 57.5942 132.971C57.5086 133.033 57.4291 133.057 57.3558 133.045C57.2824 133.045 57.1968 133.033 57.099 133.008C57.0134 132.984 56.9339 132.971 56.8605 132.971C56.8238 132.984 56.7933 133.008 56.7688 133.045C56.7443 133.081 56.7138 133.112 56.6771 133.136C56.6526 133.161 56.6159 133.173 56.567 133.173C56.5304 133.173 56.4814 133.143 56.4203 133.081C56.3714 133.033 56.3164 132.996 56.2552 132.971C56.1941 132.959 56.1329 132.947 56.0718 132.935C56.0229 132.922 55.974 132.904 55.9251 132.88C55.8884 132.855 55.8639 132.806 55.8517 132.733C55.815 132.55 55.7355 132.293 55.6132 131.963C55.5032 131.62 55.3442 131.137 55.1363 130.514C54.9284 129.878 54.6655 129.071 54.3476 128.092C54.0419 127.114 53.6812 125.897 53.2654 124.442C53.082 123.806 52.8802 123.146 52.6601 122.461C52.44 121.764 52.226 121.116 52.0181 120.517C51.8225 119.918 51.6452 119.398 51.4862 118.958C51.3395 118.505 51.2416 118.206 51.1927 118.059C51.0827 117.778 51.046 117.588 51.0827 117.49C51.1071 117.393 51.2049 117.356 51.3761 117.38C51.4862 117.405 51.6146 117.435 51.7613 117.472C51.9081 117.497 52.0487 117.527 52.1832 117.564C52.3299 117.6 52.4583 117.637 52.5684 117.674C52.6907 117.711 52.7824 117.735 52.8435 117.747C52.8924 117.772 52.923 117.772 52.9352 117.747C52.9597 117.723 52.978 117.698 52.9903 117.674C53.0147 117.637 53.0392 117.607 53.0636 117.582C53.1003 117.545 53.1553 117.527 53.2287 117.527C53.3021 117.527 53.351 117.521 53.3755 117.509C53.4121 117.484 53.4427 117.466 53.4672 117.454C53.4916 117.429 53.5222 117.411 53.5589 117.399C53.6078 117.374 53.6812 117.356 53.779 117.344C53.9869 117.344 54.1214 117.368 54.1825 117.417C54.2559 117.454 54.3109 117.539 54.3476 117.674C54.3598 117.711 54.4149 117.949 54.5127 118.389C54.6227 118.829 54.7634 119.392 54.9346 120.077C55.118 120.749 55.3198 121.507 55.5399 122.351C55.7722 123.183 56.0106 124.008 56.2552 124.827C56.512 125.647 56.7688 126.417 57.0256 127.139C57.2946 127.86 57.5514 128.447 57.796 128.899C57.906 128.667 58.065 128.325 58.2729 127.872C58.493 127.42 58.7376 126.9 59.0066 126.313C59.2878 125.726 59.5874 125.096 59.9054 124.424C60.2355 123.739 60.5596 123.06 60.8775 122.388C61.2077 121.703 61.5195 121.043 61.813 120.407C62.1187 119.759 62.3938 119.178 62.6384 118.664C62.8952 118.151 63.103 117.729 63.262 117.399C63.4332 117.056 63.5433 116.848 63.5922 116.775C63.6411 116.689 63.6778 116.641 63.7022 116.628C63.7389 116.604 63.7756 116.598 63.8123 116.61C63.849 116.622 63.8857 116.647 63.9223 116.683C63.959 116.72 64.0079 116.751 64.0691 116.775C64.1791 116.836 64.2953 116.91 64.4176 116.995C64.5399 117.081 64.6499 117.172 64.7477 117.27C64.8578 117.368 64.9373 117.472 64.9862 117.582C65.0351 117.692 65.0351 117.796 64.9862 117.894ZM77.0188 121.691C77.031 122.119 76.9944 122.645 76.9088 123.268C76.8232 123.88 76.7253 124.54 76.6153 125.249C76.5052 125.946 76.4013 126.662 76.3035 127.395C76.2056 128.129 76.1567 128.82 76.1567 129.468C76.1567 129.896 76.1873 130.306 76.2484 130.697C76.3096 131.076 76.4135 131.406 76.5602 131.687C76.6458 131.846 76.6886 131.987 76.6886 132.109C76.7009 132.232 76.6948 132.342 76.6703 132.439C76.6458 132.525 76.6214 132.598 76.5969 132.66C76.5725 132.733 76.5725 132.8 76.5969 132.861C76.6214 132.922 76.6153 132.99 76.5786 133.063C76.5419 133.149 76.4869 133.222 76.4135 133.283C76.3401 133.357 76.2545 133.405 76.1567 133.43C76.0711 133.467 75.9916 133.461 75.9183 133.412C75.7838 133.326 75.6737 133.277 75.5881 133.265C75.5147 133.253 75.4475 133.253 75.3863 133.265C75.3374 133.289 75.2885 133.314 75.2396 133.338C75.2029 133.363 75.154 133.363 75.0929 133.338C74.885 133.228 74.6588 133.1 74.4142 132.953C74.1696 132.806 74.0107 132.647 73.9373 132.476C73.8884 132.403 73.8395 132.28 73.7905 132.109C73.7539 131.938 73.7172 131.736 73.6805 131.504C73.656 131.272 73.6316 131.021 73.6071 130.752C73.5827 130.483 73.5643 130.22 73.5521 129.963C73.1486 130.721 72.7145 131.351 72.2498 131.852C71.7973 132.354 71.3388 132.751 70.8741 133.045C70.4217 133.35 69.9692 133.564 69.5168 133.687C69.0765 133.809 68.673 133.87 68.3062 133.87C67.9271 133.87 67.5908 133.821 67.2973 133.723C67.0161 133.626 66.796 133.509 66.637 133.375C66.0378 132.776 65.6098 132.293 65.353 131.926C65.1085 131.547 64.9984 131.241 65.0229 131.009C65.084 130.226 65.2736 129.505 65.5915 128.844C65.9094 128.184 66.3068 127.579 66.7837 127.028C67.2607 126.466 67.7926 125.965 68.3795 125.524C68.9787 125.072 69.584 124.675 70.1954 124.332C70.8191 123.977 71.4305 123.684 72.0297 123.452C72.6289 123.207 73.173 123.011 73.6621 122.865C73.6377 122.204 73.6071 121.63 73.5704 121.141C73.546 120.639 73.5032 120.272 73.442 120.04C73.2586 119.282 72.9774 118.719 72.5983 118.352C72.2192 117.973 71.7607 117.784 71.2226 117.784C70.8802 117.784 70.5317 117.912 70.1771 118.169C69.8347 118.426 69.5229 118.774 69.2416 119.215C68.9604 119.655 68.728 120.162 68.5446 120.737C68.3734 121.312 68.2817 121.917 68.2695 122.553C68.2695 122.712 68.2756 122.865 68.2878 123.011C68.3001 123.158 68.3184 123.311 68.3429 123.47C68.3551 123.556 68.3245 123.617 68.2511 123.653C68.19 123.69 68.1105 123.721 68.0127 123.745C67.9149 123.757 67.8109 123.77 67.7009 123.782C67.5908 123.794 67.4991 123.812 67.4257 123.837C67.3646 123.861 67.3157 123.88 67.279 123.892C67.2423 123.892 67.2056 123.886 67.1689 123.874C67.1323 123.849 67.0833 123.812 67.0222 123.763C66.9733 123.715 66.8999 123.653 66.8021 123.58C66.7043 123.507 66.6003 123.446 66.4903 123.397C66.3924 123.348 66.3007 123.305 66.2151 123.268C66.1418 123.232 66.0745 123.201 66.0134 123.177C65.9645 123.14 65.94 123.097 65.94 123.048C65.94 122.29 66.1051 121.507 66.4352 120.7C66.7776 119.893 67.2301 119.16 67.7926 118.499C68.3673 117.827 69.0276 117.276 69.7736 116.848C70.5317 116.42 71.3327 116.206 72.1764 116.206C72.8612 116.206 73.4543 116.31 73.9556 116.518C74.457 116.726 74.885 116.995 75.2396 117.325C75.5942 117.655 75.8816 118.022 76.1017 118.426C76.334 118.829 76.5113 119.239 76.6336 119.655C76.7681 120.058 76.8598 120.444 76.9088 120.81C76.9699 121.165 77.0066 121.458 77.0188 121.691ZM73.6988 124.956C73.332 125.09 72.9285 125.268 72.4882 125.488C72.048 125.708 71.6017 125.971 71.1492 126.276C70.6968 126.57 70.2443 126.912 69.7919 127.304C69.3395 127.695 68.9176 128.129 68.5263 128.606C68.0616 129.156 67.7253 129.645 67.5174 130.073C67.3096 130.501 67.1812 130.868 67.1323 131.174C67.0833 131.467 67.0956 131.7 67.1689 131.871C67.2423 132.042 67.3279 132.146 67.4257 132.183C67.8048 132.329 68.1961 132.348 68.5996 132.238C69.0154 132.115 69.4251 131.908 69.8286 131.614C70.2443 131.308 70.6418 130.948 71.0208 130.532C71.4121 130.104 71.779 129.67 72.1214 129.23C72.4638 128.777 72.7695 128.337 73.0385 127.909C73.3075 127.469 73.5276 127.09 73.6988 126.772V124.956ZM99.4882 108.503C99.3904 109.004 99.152 109.499 98.7729 109.988C98.406 110.465 97.9903 110.875 97.5256 111.217C97.4645 111.278 97.3422 111.346 97.1588 111.419C96.9876 111.492 96.798 111.572 96.5901 111.658C96.3945 111.731 96.1988 111.798 96.0032 111.859C95.8075 111.92 95.6547 111.957 95.5446 111.969C95.4468 111.994 95.3673 111.988 95.3062 111.951C95.2573 111.914 95.2084 111.872 95.1594 111.823C95.1105 111.774 95.0494 111.731 94.976 111.694C94.9149 111.645 94.8232 111.621 94.7009 111.621C94.5541 111.621 94.4624 111.59 94.4257 111.529C94.4013 111.456 94.4196 111.327 94.4808 111.144C94.5052 111.083 94.548 110.997 94.6092 110.887C94.6703 110.777 94.7681 110.636 94.9026 110.465C95.0005 110.355 95.08 110.233 95.1411 110.098C95.2145 109.964 95.2267 109.842 95.1778 109.732C95.1411 109.609 95.0249 109.511 94.8293 109.438C94.6336 109.365 94.3279 109.328 93.9122 109.328C93.4842 109.328 92.9339 109.383 92.2613 109.493C91.5276 109.591 90.7634 109.774 89.9685 110.043C89.1859 110.312 88.4217 110.624 87.6757 110.979C86.942 111.333 86.2634 111.713 85.6397 112.116C85.0161 112.52 84.5025 112.917 84.099 113.308C83.7077 113.687 83.457 114.048 83.3469 114.391C83.2369 114.721 83.3286 114.99 83.6221 115.198C83.8789 115.381 84.2702 115.54 84.796 115.675C85.3218 115.797 85.9271 115.913 86.6119 116.023C87.2967 116.121 88.0304 116.231 88.813 116.353C89.5956 116.463 90.3721 116.598 91.1425 116.757C91.9251 116.916 92.6649 117.111 93.3619 117.344C94.0711 117.576 94.6948 117.863 95.2328 118.206C95.6119 118.463 95.9298 118.707 96.1866 118.939C96.4434 119.172 96.6513 119.404 96.8103 119.636C96.9692 119.857 97.0976 120.077 97.1954 120.297C97.2933 120.505 97.3789 120.719 97.4522 120.939C97.5012 121.073 97.5868 121.226 97.709 121.397C97.8435 121.556 97.9842 121.752 98.1309 121.984C98.2776 122.217 98.4122 122.486 98.5344 122.791C98.6567 123.085 98.7362 123.433 98.7729 123.837C98.8218 124.644 98.6567 125.408 98.2776 126.13C97.9108 126.851 97.4278 127.518 96.8286 128.129C96.2416 128.74 95.5874 129.291 94.866 129.78C94.1445 130.257 93.4536 130.654 92.7933 130.972C92.2185 131.253 91.6071 131.516 90.959 131.761C90.3109 132.005 89.6445 132.219 88.9597 132.403C88.2749 132.574 87.5779 132.708 86.8687 132.806C86.1717 132.916 85.4808 132.971 84.796 132.971C83.6588 132.971 82.5888 132.812 81.5861 132.494C80.5956 132.189 79.7335 131.669 78.9998 130.935C78.6452 130.556 78.3884 130.177 78.2294 129.798C78.0704 129.407 77.991 129.022 77.991 128.643C77.991 128.19 78.0827 127.75 78.2661 127.322C78.4495 126.894 78.688 126.49 78.9814 126.111C79.2749 125.732 79.599 125.396 79.9536 125.102C80.3082 124.797 80.6567 124.552 80.9991 124.369C81.476 124.1 81.9713 123.843 82.4848 123.598C83.0107 123.342 83.5365 123.115 84.0623 122.92C84.5881 122.712 85.1139 122.541 85.6397 122.406C86.1656 122.272 86.673 122.186 87.1622 122.149C87.37 122.125 87.6329 122.1 87.9509 122.076C88.2688 122.052 88.5684 122.039 88.8497 122.039C89.0331 122.039 89.1859 122.088 89.3082 122.186C89.4305 122.284 89.4794 122.369 89.455 122.443C89.3938 122.577 89.2838 122.645 89.1248 122.645C88.9781 122.645 88.8007 122.669 88.5929 122.718C88.3605 122.779 88.1282 122.822 87.8959 122.846C87.6635 122.871 87.4556 122.914 87.2722 122.975C85.8782 123.293 84.6982 123.696 83.7321 124.185C82.7783 124.675 82.0141 125.17 81.4393 125.671C80.8768 126.172 80.4916 126.649 80.2838 127.102C80.0759 127.542 80.0147 127.878 80.1003 128.111C80.2226 128.441 80.4488 128.698 80.779 128.881C81.1092 129.064 81.4821 129.199 81.8979 129.285C82.3136 129.358 82.7355 129.401 83.1635 129.413C83.5915 129.425 83.9584 129.419 84.2641 129.395C84.9733 129.358 85.762 129.254 86.6302 129.083C87.5107 128.912 88.3972 128.685 89.2899 128.404C90.1948 128.123 91.0752 127.793 91.9312 127.414C92.7872 127.022 93.5453 126.6 94.2056 126.148C94.866 125.683 95.3979 125.188 95.8014 124.662C96.205 124.124 96.4067 123.562 96.4067 122.975C96.4067 122.779 96.3762 122.59 96.315 122.406C96.2661 122.211 96.1927 122.009 96.0949 121.801C95.9115 121.446 95.563 121.147 95.0494 120.902C94.5358 120.645 93.9183 120.431 93.1968 120.26C92.4876 120.077 91.7111 119.918 90.8673 119.783C90.0358 119.636 89.2104 119.49 88.3911 119.343C87.584 119.196 86.8137 119.031 86.08 118.848C85.3463 118.664 84.7287 118.438 84.2274 118.169C83.6649 117.863 83.2491 117.564 82.9801 117.27C82.7233 116.965 82.5766 116.586 82.5399 116.133C82.5276 116.084 82.491 115.999 82.4298 115.876C82.3687 115.754 82.2953 115.626 82.2097 115.491C82.1363 115.357 82.063 115.228 81.9896 115.106C81.9162 114.984 81.8612 114.886 81.8245 114.812C81.6289 114.458 81.531 114.073 81.531 113.657C81.531 113.192 81.635 112.715 81.8429 112.226C82.063 111.737 82.332 111.315 82.6499 110.961C83.2369 110.288 84.0073 109.664 84.9611 109.09C85.9271 108.515 86.9787 108.013 88.116 107.586C89.2532 107.158 90.421 106.815 91.6194 106.558C92.83 106.289 93.9733 106.136 95.0494 106.1C95.4896 106.088 95.9848 106.118 96.5351 106.191C97.0854 106.265 97.5929 106.399 98.0575 106.595C98.5344 106.778 98.9135 107.029 99.1948 107.347C99.476 107.653 99.5738 108.038 99.4882 108.503ZM114.401 126.808C114.401 127.505 114.248 128.215 113.942 128.936C113.636 129.658 113.202 130.318 112.64 130.917C112.089 131.504 111.417 131.987 110.622 132.366C109.827 132.745 108.935 132.935 107.944 132.935C107.137 132.935 106.318 132.764 105.486 132.421C104.667 132.079 103.927 131.59 103.267 130.954C102.606 130.306 102.068 129.523 101.653 128.606C101.237 127.689 101.029 126.662 101.029 125.524C101.029 124.399 101.243 123.336 101.671 122.333C102.111 121.318 102.686 120.437 103.395 119.691C104.104 118.933 104.911 118.334 105.816 117.894C106.733 117.454 107.675 117.234 108.641 117.234C109.534 117.234 110.286 117.356 110.897 117.6C111.521 117.833 112.022 118.114 112.401 118.444C112.78 118.762 113.049 119.092 113.208 119.435C113.38 119.777 113.465 120.052 113.465 120.26C113.465 120.725 113.367 121.104 113.172 121.397C112.976 121.691 112.75 121.911 112.493 122.058C112.248 122.204 112.01 122.29 111.778 122.314C111.558 122.327 111.417 122.284 111.356 122.186C111.307 122.137 111.252 122.113 111.191 122.113C111.142 122.113 111.087 122.125 111.026 122.149C110.964 122.174 110.903 122.198 110.842 122.223C110.793 122.247 110.75 122.247 110.714 122.223C110.653 122.198 110.647 122.143 110.695 122.058C110.757 121.972 110.787 121.899 110.787 121.838C110.787 121.727 110.781 121.605 110.769 121.471C110.769 121.324 110.799 121.171 110.861 121.012C110.971 120.792 111.013 120.554 110.989 120.297C110.977 120.028 110.885 119.777 110.714 119.545C110.555 119.312 110.298 119.117 109.943 118.958C109.601 118.799 109.155 118.719 108.604 118.719C108.213 118.719 107.748 118.848 107.21 119.105C106.672 119.361 106.159 119.765 105.67 120.315C105.193 120.853 104.783 121.544 104.441 122.388C104.111 123.219 103.945 124.216 103.945 125.378C103.945 125.879 104.007 126.405 104.129 126.955C104.263 127.505 104.496 128.013 104.826 128.477C105.156 128.942 105.602 129.327 106.165 129.633C106.727 129.927 107.443 130.073 108.311 130.073C108.886 130.073 109.411 129.994 109.888 129.835C110.378 129.676 110.818 129.474 111.209 129.23C111.6 128.985 111.949 128.716 112.255 128.422C112.56 128.129 112.817 127.854 113.025 127.597C113.233 127.328 113.392 127.096 113.502 126.9C113.624 126.704 113.697 126.582 113.722 126.533C113.771 126.472 113.832 126.429 113.905 126.405C113.979 126.368 114.052 126.362 114.125 126.386C114.199 126.399 114.26 126.441 114.309 126.515C114.37 126.576 114.401 126.674 114.401 126.808ZM125.534 119.251C125.522 119.606 125.486 119.961 125.424 120.315C125.375 120.658 125.302 120.988 125.204 121.306C125.106 121.611 124.984 121.886 124.837 122.131C124.703 122.376 124.55 122.571 124.379 122.718C124.232 122.84 124.116 122.901 124.03 122.901C123.945 122.901 123.871 122.877 123.81 122.828C123.761 122.779 123.719 122.724 123.682 122.663C123.645 122.602 123.596 122.565 123.535 122.553C123.486 122.541 123.419 122.547 123.333 122.571C123.26 122.583 123.181 122.583 123.095 122.571C123.022 122.559 122.948 122.516 122.875 122.443C122.814 122.357 122.771 122.211 122.746 122.003C122.722 121.77 122.728 121.471 122.765 121.104C122.814 120.725 122.838 120.358 122.838 120.003C122.838 119.685 122.801 119.422 122.728 119.215C122.667 118.994 122.551 118.884 122.38 118.884C122.294 118.884 122.141 118.952 121.921 119.086C121.713 119.208 121.481 119.477 121.224 119.893C120.967 120.309 120.71 120.914 120.454 121.709C120.197 122.492 119.989 123.537 119.83 124.846C119.83 126.533 119.842 127.891 119.867 128.918C119.891 129.945 119.903 130.746 119.903 131.321C119.903 131.81 119.891 132.158 119.867 132.366C119.842 132.574 119.781 132.708 119.683 132.77C119.622 132.806 119.5 132.849 119.316 132.898C119.145 132.959 118.956 133.014 118.748 133.063C118.552 133.112 118.363 133.155 118.179 133.191C117.996 133.228 117.88 133.24 117.831 133.228C117.794 133.216 117.727 133.173 117.629 133.1C117.531 133.039 117.427 132.959 117.317 132.861C117.219 132.764 117.128 132.66 117.042 132.55C116.956 132.452 116.907 132.366 116.895 132.293C116.871 132.17 116.859 131.895 116.859 131.467C116.871 131.027 116.877 130.501 116.877 129.89C116.889 129.278 116.901 128.612 116.914 127.891C116.926 127.157 116.932 126.429 116.932 125.708C116.932 125.243 116.944 124.73 116.969 124.167C117.005 123.592 117.042 123.011 117.079 122.425C117.128 121.838 117.176 121.263 117.225 120.7C117.274 120.138 117.317 119.636 117.354 119.196C117.403 118.744 117.439 118.371 117.464 118.077C117.5 117.772 117.525 117.588 117.537 117.527C117.549 117.429 117.592 117.393 117.666 117.417C117.751 117.441 117.837 117.484 117.922 117.545C118.02 117.607 118.106 117.662 118.179 117.711C118.253 117.759 118.301 117.759 118.326 117.711C118.35 117.6 118.442 117.588 118.601 117.674C118.76 117.747 118.907 117.833 119.041 117.931C119.09 117.992 119.145 118.047 119.206 118.096C119.28 118.132 119.347 118.187 119.408 118.261C119.469 118.322 119.518 118.408 119.555 118.518C119.604 118.628 119.628 118.774 119.628 118.958C119.628 119.129 119.64 119.386 119.665 119.728C119.689 120.071 119.72 120.474 119.757 120.939C119.891 120.499 120.05 120.034 120.234 119.545C120.429 119.056 120.661 118.609 120.931 118.206C121.2 117.79 121.517 117.448 121.884 117.179C122.251 116.91 122.691 116.775 123.205 116.775C123.486 116.775 123.767 116.83 124.049 116.94C124.33 117.05 124.581 117.215 124.801 117.435C125.033 117.643 125.217 117.9 125.351 118.206C125.486 118.511 125.547 118.86 125.534 119.251ZM131.569 108.503C131.581 108.747 131.569 109.022 131.532 109.328C131.508 109.622 131.459 109.909 131.386 110.19C131.325 110.471 131.233 110.722 131.111 110.942C131 111.162 130.866 111.315 130.707 111.401C130.303 111.609 129.949 111.713 129.643 111.713C129.399 111.713 129.185 111.658 129.001 111.547C128.83 111.425 128.659 111.291 128.488 111.144C128.243 110.948 128.035 110.691 127.864 110.374C127.705 110.056 127.625 109.75 127.625 109.456C127.625 109.224 127.662 108.943 127.736 108.613C127.821 108.27 127.925 107.94 128.047 107.622C128.17 107.304 128.298 107.017 128.433 106.76C128.579 106.491 128.72 106.308 128.854 106.21C129.062 106.039 129.252 105.947 129.423 105.935C129.606 105.91 129.753 105.916 129.863 105.953C130.132 106.014 130.371 106.094 130.579 106.191C130.786 106.277 130.958 106.418 131.092 106.613C131.239 106.797 131.349 107.041 131.422 107.347C131.496 107.653 131.545 108.038 131.569 108.503ZM130.065 116.702C130.126 116.763 130.169 116.965 130.193 117.307C130.23 117.649 130.248 118.096 130.248 118.646C130.248 119.013 130.242 119.41 130.23 119.838C130.218 120.266 130.2 120.706 130.175 121.159C130.163 121.611 130.145 122.07 130.12 122.535C130.096 122.987 130.077 123.421 130.065 123.837C130.028 124.522 130.004 125.158 129.992 125.744C129.992 126.319 129.992 126.876 129.992 127.414C129.992 128.123 129.998 128.771 130.01 129.358C130.022 129.945 130.028 130.434 130.028 130.825C130.028 131.253 130.01 131.583 129.973 131.816C129.949 132.036 129.888 132.158 129.79 132.183C129.68 132.207 129.588 132.262 129.515 132.348C129.441 132.421 129.374 132.494 129.313 132.568C129.252 132.641 129.178 132.702 129.093 132.751C129.02 132.812 128.928 132.831 128.818 132.806C128.757 132.794 128.653 132.739 128.506 132.641C128.359 132.543 128.2 132.427 128.029 132.293C127.87 132.146 127.717 131.981 127.57 131.797C127.424 131.614 127.326 131.425 127.277 131.229C127.253 131.131 127.228 130.935 127.204 130.642C127.191 130.348 127.179 129.994 127.167 129.578C127.155 129.162 127.142 128.704 127.13 128.202C127.118 127.689 127.106 127.175 127.094 126.662C127.094 126.136 127.094 125.622 127.094 125.121C127.094 124.619 127.094 124.167 127.094 123.763C127.094 123.14 127.112 122.504 127.149 121.856C127.197 121.208 127.246 120.602 127.295 120.04C127.356 119.477 127.411 118.988 127.46 118.573C127.522 118.145 127.564 117.845 127.589 117.674C127.638 117.38 127.687 117.154 127.736 116.995C127.797 116.824 127.858 116.702 127.919 116.628C127.992 116.555 128.06 116.512 128.121 116.5C128.194 116.475 128.267 116.457 128.341 116.445C128.488 116.42 128.653 116.414 128.836 116.427C129.032 116.439 129.215 116.457 129.386 116.482C129.558 116.506 129.704 116.543 129.827 116.592C129.961 116.628 130.041 116.665 130.065 116.702ZM137.274 117.032C137.249 117.117 137.231 117.289 137.219 117.545C137.206 117.802 137.188 118.12 137.164 118.499C137.689 118.352 138.227 118.236 138.778 118.151C139.328 118.065 139.89 118.022 140.465 118.022C141.101 118.022 141.737 118.096 142.373 118.242C143.009 118.377 143.602 118.615 144.152 118.958C144.58 119.215 144.941 119.624 145.234 120.187C145.54 120.749 145.791 121.355 145.986 122.003C146.096 122.382 146.206 122.804 146.316 123.268C146.426 123.721 146.481 124.222 146.481 124.772C146.481 125.237 146.42 125.72 146.298 126.221C146.188 126.723 145.986 127.242 145.693 127.78C145.399 128.306 145.002 128.85 144.5 129.413C143.999 129.963 143.357 130.52 142.575 131.082C141.816 131.632 141.138 132.054 140.539 132.348C139.952 132.629 139.45 132.825 139.034 132.935C138.619 133.045 138.295 133.094 138.062 133.081C137.842 133.081 137.714 133.069 137.677 133.045C137.567 132.971 137.457 132.831 137.347 132.623C137.237 132.427 137.084 132.213 136.888 131.981C136.827 131.908 136.772 131.834 136.723 131.761C136.674 131.675 136.619 131.577 136.558 131.467C136.522 132.641 136.491 133.791 136.467 134.916C136.454 136.041 136.448 137.092 136.448 138.071C136.448 138.682 136.454 139.251 136.467 139.776C136.479 140.314 136.497 140.797 136.522 141.225C136.522 141.384 136.528 141.537 136.54 141.684C136.564 141.843 136.57 141.984 136.558 142.106C136.558 142.228 136.534 142.326 136.485 142.399C136.436 142.473 136.344 142.509 136.21 142.509C135.965 142.509 135.776 142.564 135.641 142.675C135.519 142.797 135.372 142.98 135.201 143.225C135.103 143.335 134.999 143.414 134.889 143.463C134.779 143.524 134.663 143.524 134.541 143.463C134.431 143.414 134.314 143.298 134.192 143.115C134.082 142.944 133.978 142.681 133.88 142.326C133.844 142.179 133.807 141.984 133.77 141.739C133.746 141.507 133.721 141.207 133.697 140.84C133.685 140.486 133.672 140.052 133.66 139.538C133.66 139.037 133.66 138.437 133.66 137.74L133.734 131.394C133.758 129.792 133.819 128.233 133.917 126.717C134.015 125.2 134.131 123.776 134.265 122.443C133.96 122.565 133.678 122.657 133.422 122.718C133.165 122.779 133.006 122.791 132.945 122.755C132.822 122.706 132.743 122.651 132.706 122.59C132.67 122.528 132.645 122.473 132.633 122.425C132.621 122.363 132.602 122.314 132.578 122.278C132.566 122.229 132.517 122.198 132.431 122.186C132.346 122.174 132.272 122.137 132.211 122.076C132.15 122.015 132.107 121.954 132.083 121.893C132.07 121.831 132.077 121.776 132.101 121.727C132.138 121.666 132.205 121.63 132.303 121.617C132.388 121.605 132.401 121.575 132.339 121.526C132.278 121.465 132.217 121.391 132.156 121.306C132.107 121.208 132.095 121.092 132.119 120.957C132.144 120.81 132.297 120.645 132.578 120.462C132.725 120.34 132.981 120.187 133.348 120.003C133.715 119.808 134.155 119.594 134.669 119.361C134.803 118.408 134.938 117.631 135.072 117.032C135.219 116.42 135.348 116.047 135.458 115.913C135.519 115.852 135.562 115.797 135.586 115.748C135.611 115.699 135.635 115.656 135.659 115.619C135.684 115.583 135.714 115.552 135.751 115.528C135.788 115.503 135.855 115.479 135.953 115.454C136.039 115.442 136.112 115.461 136.173 115.509C136.234 115.558 136.289 115.626 136.338 115.711C136.399 115.785 136.46 115.858 136.522 115.931C136.583 116.005 136.656 116.047 136.742 116.06C136.913 116.084 137.047 116.176 137.145 116.335C137.255 116.482 137.298 116.714 137.274 117.032ZM140.795 120.609C140.245 120.609 139.658 120.67 139.034 120.792C138.411 120.914 137.72 121.116 136.962 121.397L136.632 129.358C136.742 129.395 136.864 129.419 136.998 129.431C137.133 129.431 137.286 129.431 137.457 129.431C137.861 129.431 138.325 129.376 138.851 129.266C139.389 129.156 139.933 128.991 140.484 128.771C141.034 128.539 141.578 128.264 142.116 127.946C142.654 127.615 143.131 127.236 143.547 126.808C143.975 126.38 144.317 125.903 144.574 125.378C144.831 124.852 144.965 124.277 144.977 123.653C144.99 123.287 144.904 122.926 144.721 122.571C144.549 122.204 144.286 121.874 143.932 121.581C143.589 121.287 143.155 121.055 142.63 120.884C142.104 120.7 141.492 120.609 140.795 120.609ZM154.094 110.869C154.094 110.942 154.081 111.138 154.057 111.456C154.032 111.761 153.996 112.171 153.947 112.685C153.91 113.198 153.861 113.797 153.8 114.482C153.739 115.155 153.678 115.882 153.617 116.665C154.387 116.567 155.115 116.494 155.799 116.445C156.496 116.384 157.083 116.353 157.56 116.353C157.719 116.353 157.86 116.384 157.982 116.445C158.104 116.506 158.202 116.579 158.276 116.665C158.361 116.738 158.428 116.824 158.477 116.922C158.526 117.007 158.557 117.081 158.569 117.142C158.569 117.203 158.575 117.264 158.587 117.325C158.6 117.374 158.606 117.429 158.606 117.49C158.606 117.735 158.496 117.98 158.276 118.224C158.068 118.469 157.75 118.622 157.322 118.683L153.415 119.105C153.354 119.985 153.299 120.89 153.25 121.819C153.201 122.749 153.152 123.678 153.103 124.607C153.066 125.524 153.036 126.429 153.011 127.322C152.987 128.215 152.975 129.058 152.975 129.853C152.975 130.367 152.987 130.783 153.011 131.1C153.036 131.418 153.048 131.626 153.048 131.724C153.048 131.932 153.005 132.14 152.92 132.348C152.846 132.543 152.755 132.721 152.645 132.88C152.547 133.051 152.437 133.185 152.314 133.283C152.204 133.393 152.113 133.448 152.039 133.448C151.599 133.448 151.25 133.308 150.994 133.026C150.737 132.757 150.541 132.391 150.407 131.926C150.284 131.461 150.205 130.929 150.168 130.33C150.132 129.731 150.113 129.107 150.113 128.459C150.113 126.931 150.156 125.402 150.242 123.874C150.327 122.333 150.45 120.853 150.609 119.435L148.316 119.71C148.279 119.71 148.242 119.716 148.206 119.728C148.169 119.74 148.126 119.747 148.077 119.747C147.845 119.747 147.661 119.691 147.527 119.581C147.38 119.471 147.27 119.343 147.197 119.196C147.123 119.05 147.081 118.903 147.068 118.756C147.044 118.597 147.032 118.475 147.032 118.389C147.032 118.218 147.056 118.059 147.105 117.912C147.154 117.766 147.246 117.674 147.38 117.637C147.637 117.539 148.083 117.435 148.719 117.325C149.367 117.203 150.095 117.081 150.902 116.958C151.036 115.968 151.171 115.063 151.306 114.244C151.452 113.412 151.593 112.697 151.727 112.098C151.862 111.486 151.984 111.016 152.094 110.685C152.217 110.343 152.32 110.172 152.406 110.172C152.431 110.172 152.461 110.178 152.498 110.19C152.534 110.202 152.565 110.208 152.589 110.208C152.663 110.208 152.718 110.172 152.755 110.098C152.803 110.013 152.889 109.97 153.011 109.97C153.121 109.97 153.238 110.007 153.36 110.08C153.494 110.141 153.611 110.221 153.708 110.319C153.818 110.416 153.91 110.52 153.984 110.63C154.057 110.728 154.094 110.808 154.094 110.869Z" fill="white"/>
<g clip-path="url(#clip0_58_113)">
<path d="M66.0874 50.3923C66.0874 47.7883 68.2008 45.6749 70.8048 45.6749H104.5C107.104 45.6749 109.218 47.7883 109.218 50.3923V55.7836C109.218 56.3198 109.005 56.8341 108.626 57.2132C108.247 57.5924 107.732 57.8054 107.196 57.8054C106.66 57.8054 106.146 57.5924 105.767 57.2132C105.387 56.8341 105.174 56.3198 105.174 55.7836V50.3923C105.174 50.2136 105.103 50.0422 104.977 49.9158C104.851 49.7894 104.679 49.7184 104.5 49.7184H70.8048C70.6261 49.7184 70.4546 49.7894 70.3283 49.9158C70.2019 50.0422 70.1309 50.2136 70.1309 50.3923V84.088C70.1309 84.46 70.4328 84.7619 70.8048 84.7619H107.196C107.732 84.7619 108.247 84.9749 108.626 85.354C109.005 85.7332 109.218 86.2474 109.218 86.7836C109.218 87.3198 109.005 87.8341 108.626 88.2132C108.247 88.5924 107.732 88.8054 107.196 88.8054H70.8048C69.5537 88.8054 68.3538 88.3084 67.4691 87.4237C66.5844 86.539 66.0874 85.3391 66.0874 84.088V50.3923ZM88.3265 61.1749C88.8627 61.1749 89.377 61.3879 89.7561 61.7671C90.1353 62.1462 90.3483 62.6605 90.3483 63.1967V73.9793C90.3483 76.6884 89.6043 78.7182 88.0705 79.996C86.6067 81.2171 84.833 81.3923 83.6091 81.3923C83.0729 81.3923 82.5587 81.1793 82.1796 80.8002C81.8004 80.421 81.5874 79.9068 81.5874 79.3706C81.5874 78.8344 81.8004 78.3202 82.1796 77.941C82.5587 77.5619 83.0729 77.3488 83.6091 77.3488C84.5418 77.3488 85.1268 77.1871 85.4826 76.8906C85.7684 76.6534 86.3048 75.9875 86.3048 73.9793V63.1967C86.3048 62.6605 86.5178 62.1462 86.897 61.7671C87.2761 61.3879 87.7903 61.1749 88.3265 61.1749ZM96.4836 63.4123C97.6104 62.0699 99.3814 61.1749 101.805 61.1749C104.056 61.1749 105.754 61.9459 106.9 63.1562C107.255 63.5482 107.442 64.0636 107.421 64.592C107.401 65.1204 107.174 65.6198 106.79 65.983C106.405 66.3462 105.894 66.5443 105.365 66.5349C104.837 66.5256 104.333 66.3094 103.961 65.9328C103.665 65.6201 103.072 65.2184 101.805 65.2184C100.457 65.2184 99.8639 65.6713 99.5782 66.0136C99.2927 66.3606 99.1281 66.7912 99.1092 67.2402C99.1092 67.5205 99.2251 68.0488 99.5782 68.4667C99.8666 68.809 100.454 69.2619 101.805 69.2619C102.01 69.2619 102.206 69.2915 102.392 69.3481C104.18 69.6015 105.53 70.3995 106.452 71.4993C107.514 72.7662 107.87 74.2596 107.87 75.3271C107.87 76.3946 107.514 77.888 106.452 79.1549C105.325 80.4974 103.554 81.3923 101.131 81.3923C98.88 81.3923 97.1818 80.6214 96.0361 79.411C95.6811 79.0191 95.4938 78.5037 95.5143 77.9752C95.5348 77.4468 95.7616 76.9475 96.1459 76.5843C96.5303 76.2211 97.0417 76.0229 97.5704 76.0323C98.0991 76.0417 98.6031 76.2579 98.9744 76.6345C99.2709 76.9472 99.8639 77.3488 101.131 77.3488C102.479 77.3488 103.072 76.896 103.358 76.5536C103.643 76.2066 103.808 75.7761 103.827 75.3271C103.827 75.0468 103.711 74.5184 103.358 74.1006C103.069 73.7582 102.481 73.3054 101.131 73.3054C100.932 73.3058 100.734 73.2767 100.543 73.2191C98.756 72.963 97.4055 72.1678 96.4836 71.068C95.5854 69.9927 95.0847 68.6411 95.0657 67.2402C95.0657 66.1727 95.4215 64.6793 96.4836 63.4123Z" fill="#8612BC" fill-opacity="0.74"/>
</g>
<defs>
<clipPath id="clip0_58_113">
<rect width="43.1304" height="43.1304" fill="white" transform="translate(66.0874 45.6749)"/>
</clipPath>
</defs>
</svg>
