<svg width="152" height="153" viewBox="0 0 152 153" fill="none" xmlns="http://www.w3.org/2000/svg">
<circle cx="75.9135" cy="76.8054" r="75.8261" fill="#E93838"/>
<path d="M70.5331 105.679C70.5331 106.453 70.3632 107.241 70.0236 108.043C69.6839 108.845 69.2016 109.578 68.5766 110.244C67.9651 110.896 67.2179 111.433 66.3347 111.854C65.4516 112.275 64.4597 112.486 63.3592 112.486C62.4624 112.486 61.5521 112.296 60.6282 111.915C59.7179 111.535 58.8958 110.991 58.1622 110.285C57.4285 109.565 56.8306 108.695 56.3687 107.676C55.9067 106.657 55.6757 105.516 55.6757 104.252C55.6757 103.002 55.9135 101.82 56.3891 100.706C56.8782 99.5784 57.5168 98.6002 58.3048 97.7714C59.0929 96.929 59.9896 96.2632 60.995 95.7741C62.0141 95.285 63.0603 95.0404 64.1336 95.0404C65.1255 95.0404 65.9611 95.1763 66.6404 95.448C67.3334 95.7062 67.8904 96.0187 68.3116 96.3855C68.7328 96.7388 69.0317 97.1056 69.2084 97.4861C69.3986 97.8665 69.4937 98.1722 69.4937 98.4032C69.4937 98.9195 69.385 99.3407 69.1676 99.6668C68.9502 99.9929 68.6988 100.237 68.4135 100.4C68.1418 100.564 67.8768 100.659 67.6187 100.686C67.3741 100.699 67.2179 100.652 67.1499 100.543C67.0956 100.489 67.0344 100.462 66.9665 100.462C66.9122 100.462 66.851 100.475 66.7831 100.502C66.7151 100.53 66.6472 100.557 66.5793 100.584C66.5249 100.611 66.4774 100.611 66.4366 100.584C66.3687 100.557 66.3619 100.496 66.4162 100.4C66.4842 100.305 66.5181 100.224 66.5181 100.156C66.5181 100.034 66.5113 99.8977 66.4978 99.7483C66.4978 99.5852 66.5317 99.4154 66.5997 99.2388C66.7219 98.9942 66.7695 98.7293 66.7423 98.4439C66.7287 98.145 66.6268 97.8665 66.4366 97.6083C66.26 97.3502 65.9747 97.1328 65.5806 96.9562C65.2002 96.7795 64.7043 96.6912 64.0929 96.6912C63.6581 96.6912 63.1418 96.8339 62.5439 97.1192C61.9461 97.4045 61.3755 97.8529 60.832 98.4643C60.3021 99.0621 59.8469 99.8298 59.4665 100.767C59.0997 101.691 58.9162 102.799 58.9162 104.089C58.9162 104.646 58.9842 105.231 59.12 105.842C59.2695 106.453 59.5276 107.017 59.8945 107.534C60.2613 108.05 60.7573 108.478 61.3823 108.818C62.0073 109.144 62.8021 109.307 63.7668 109.307C64.4054 109.307 64.9896 109.218 65.5195 109.042C66.063 108.865 66.5521 108.641 66.9869 108.369C67.4217 108.097 67.8089 107.799 68.1486 107.472C68.4882 107.146 68.7736 106.841 69.0045 106.555C69.2355 106.256 69.4122 105.998 69.5344 105.781C69.6703 105.564 69.7518 105.428 69.779 105.373C69.8334 105.305 69.9013 105.258 69.9828 105.231C70.0643 105.19 70.1459 105.183 70.2274 105.21C70.3089 105.224 70.3768 105.271 70.4312 105.353C70.4991 105.421 70.5331 105.53 70.5331 105.679ZM85.6554 95.9168C85.6961 95.9983 85.7165 96.0798 85.7165 96.1613C85.7301 96.2428 85.7369 96.338 85.7369 96.4467C85.7369 96.8814 85.5059 97.3366 85.044 97.8121C84.5956 98.2877 83.8823 98.7225 82.904 99.1165C82.7002 99.198 82.5168 99.2388 82.3537 99.2388C82.1499 99.2388 81.9733 99.1844 81.8238 99.0757C81.688 98.9534 81.62 98.8312 81.62 98.7089C81.62 98.6274 81.6676 98.5323 81.7627 98.4236C81.8714 98.3149 81.9801 98.2062 82.0888 98.0975C82.2111 97.9888 82.3198 97.8869 82.4149 97.7918C82.5236 97.6967 82.5779 97.6219 82.5779 97.5676C82.5779 97.4589 82.4896 97.4045 82.313 97.4045C82.0412 97.4045 81.6948 97.4861 81.2736 97.6491C80.8524 97.7986 80.404 98.0024 79.9285 98.2605C79.4665 98.5051 78.991 98.7768 78.5018 99.0757C78.0263 99.3611 77.5983 99.6464 77.2179 99.9317C76.8374 100.203 76.5249 100.448 76.2804 100.665C76.0494 100.883 75.9339 101.039 75.9339 101.134C75.9339 101.189 75.9882 101.216 76.0969 101.216H76.688C77.0548 101.216 77.5236 101.236 78.0942 101.277C78.6785 101.318 79.2899 101.399 79.9285 101.521C80.5671 101.63 81.2056 101.793 81.8442 102.011C82.4964 102.214 83.0738 102.493 83.5766 102.846C84.0929 103.199 84.5141 103.627 84.8402 104.13C85.1662 104.633 85.3293 105.231 85.3293 105.924C85.3293 106.277 85.2681 106.657 85.1459 107.065C85.0372 107.459 84.8334 107.866 84.5344 108.288C84.2491 108.695 83.8551 109.116 83.3524 109.551C82.8497 109.972 82.2111 110.394 81.4366 110.815C80.2681 111.44 79.1744 111.902 78.1554 112.201C77.1499 112.5 76.2396 112.649 75.4244 112.649C74.3646 112.649 73.529 112.411 72.9176 111.936C72.3062 111.46 72.0005 110.781 72.0005 109.898C72.0005 109.246 72.1228 108.689 72.3673 108.227C72.6255 107.765 72.9244 107.384 73.2641 107.085C73.6037 106.773 73.9434 106.549 74.2831 106.413C74.6228 106.263 74.8809 106.182 75.0575 106.168C75.1391 106.168 75.207 106.161 75.2613 106.148C75.3293 106.134 75.3972 106.127 75.4651 106.127C75.5874 106.127 75.6486 106.202 75.6486 106.352V106.555C75.6486 106.637 75.669 106.712 75.7097 106.78C75.7505 106.834 75.7709 106.895 75.7709 106.963C75.7709 107.044 75.669 107.167 75.4651 107.33C75.2749 107.493 75.0643 107.683 74.8334 107.9C74.6024 108.118 74.385 108.349 74.1812 108.593C73.991 108.838 73.8959 109.076 73.8959 109.307C73.8959 109.578 74.1132 109.714 74.548 109.714C75.0915 109.714 75.6622 109.612 76.26 109.409C76.8714 109.191 77.4624 108.919 78.0331 108.593C78.6173 108.267 79.1676 107.9 79.6839 107.493C80.2138 107.072 80.6757 106.664 81.0698 106.27C81.4638 105.876 81.7763 105.509 82.0073 105.169C82.2382 104.816 82.3537 104.538 82.3537 104.334C82.3537 104.089 82.2111 103.892 81.9257 103.743C81.654 103.593 81.2736 103.471 80.7844 103.376C80.3089 103.281 79.7518 103.22 79.1132 103.193C78.4747 103.152 77.8021 103.131 77.0956 103.131C76.3619 103.131 75.7505 103.165 75.2613 103.233C74.7858 103.301 74.4937 103.335 74.385 103.335C74.3035 103.335 74.1676 103.328 73.9774 103.315C73.8007 103.288 73.6173 103.227 73.4271 103.131C73.2505 103.023 73.0942 102.866 72.9584 102.663C72.8225 102.459 72.7546 102.167 72.7546 101.786C72.7546 101.528 72.8089 101.236 72.9176 100.91C73.0399 100.584 73.2437 100.237 73.529 99.8706C73.8279 99.4901 74.2287 99.0825 74.7315 98.6477C75.2478 98.213 75.8999 97.7578 76.688 97.2823C77.5168 96.7795 78.2912 96.3719 79.0113 96.0594C79.745 95.7333 80.404 95.482 80.9882 95.3053C81.5861 95.1287 82.1092 95.0132 82.5575 94.9589C83.0059 94.8909 83.3592 94.857 83.6173 94.857C84.2287 94.857 84.6839 94.9385 84.9828 95.1015C85.2817 95.251 85.5059 95.5227 85.6554 95.9168ZM100.125 95.9168C100.166 95.9983 100.187 96.0798 100.187 96.1613C100.2 96.2428 100.207 96.338 100.207 96.4467C100.207 96.8814 99.976 97.3366 99.5141 97.8121C99.0657 98.2877 98.3524 98.7225 97.3741 99.1165C97.1703 99.198 96.9869 99.2388 96.8239 99.2388C96.6201 99.2388 96.4434 99.1844 96.294 99.0757C96.1581 98.9534 96.0902 98.8312 96.0902 98.7089C96.0902 98.6274 96.1377 98.5323 96.2328 98.4236C96.3415 98.3149 96.4502 98.2062 96.5589 98.0975C96.6812 97.9888 96.7899 97.8869 96.885 97.7918C96.9937 97.6967 97.048 97.6219 97.048 97.5676C97.048 97.4589 96.9597 97.4045 96.7831 97.4045C96.5114 97.4045 96.1649 97.4861 95.7437 97.6491C95.3225 97.7986 94.8741 98.0024 94.3986 98.2605C93.9366 98.5051 93.4611 98.7768 92.972 99.0757C92.4964 99.3611 92.0684 99.6464 91.688 99.9317C91.3075 100.203 90.995 100.448 90.7505 100.665C90.5195 100.883 90.404 101.039 90.404 101.134C90.404 101.189 90.4584 101.216 90.5671 101.216H91.1581C91.5249 101.216 91.9937 101.236 92.5643 101.277C93.1486 101.318 93.76 101.399 94.3986 101.521C95.0372 101.63 95.6758 101.793 96.3143 102.011C96.9665 102.214 97.544 102.493 98.0467 102.846C98.563 103.199 98.9842 103.627 99.3103 104.13C99.6364 104.633 99.7994 105.231 99.7994 105.924C99.7994 106.277 99.7383 106.657 99.616 107.065C99.5073 107.459 99.3035 107.866 99.0046 108.288C98.7192 108.695 98.3252 109.116 97.8225 109.551C97.3198 109.972 96.6812 110.394 95.9067 110.815C94.7383 111.44 93.6445 111.902 92.6255 112.201C91.62 112.5 90.7097 112.649 89.8945 112.649C88.8347 112.649 87.9991 112.411 87.3877 111.936C86.7763 111.46 86.4706 110.781 86.4706 109.898C86.4706 109.246 86.5929 108.689 86.8374 108.227C87.0956 107.765 87.3945 107.384 87.7342 107.085C88.0739 106.773 88.4135 106.549 88.7532 106.413C89.0929 106.263 89.351 106.182 89.5277 106.168C89.6092 106.168 89.6771 106.161 89.7315 106.148C89.7994 106.134 89.8673 106.127 89.9353 106.127C90.0575 106.127 90.1187 106.202 90.1187 106.352V106.555C90.1187 106.637 90.1391 106.712 90.1798 106.78C90.2206 106.834 90.241 106.895 90.241 106.963C90.241 107.044 90.1391 107.167 89.9353 107.33C89.745 107.493 89.5344 107.683 89.3035 107.9C89.0725 108.118 88.8551 108.349 88.6513 108.593C88.4611 108.838 88.366 109.076 88.366 109.307C88.366 109.578 88.5834 109.714 89.0181 109.714C89.5616 109.714 90.1323 109.612 90.7301 109.409C91.3415 109.191 91.9325 108.919 92.5032 108.593C93.0874 108.267 93.6377 107.9 94.154 107.493C94.6839 107.072 95.1459 106.664 95.5399 106.27C95.9339 105.876 96.2464 105.509 96.4774 105.169C96.7084 104.816 96.8239 104.538 96.8239 104.334C96.8239 104.089 96.6812 103.892 96.3959 103.743C96.1241 103.593 95.7437 103.471 95.2546 103.376C94.779 103.281 94.222 103.22 93.5834 103.193C92.9448 103.152 92.2722 103.131 91.5657 103.131C90.832 103.131 90.2206 103.165 89.7315 103.233C89.2559 103.301 88.9638 103.335 88.8551 103.335C88.7736 103.335 88.6377 103.328 88.4475 103.315C88.2709 103.288 88.0874 103.227 87.8972 103.131C87.7206 103.023 87.5643 102.866 87.4285 102.663C87.2926 102.459 87.2247 102.167 87.2247 101.786C87.2247 101.528 87.279 101.236 87.3877 100.91C87.51 100.584 87.7138 100.237 87.9991 99.8706C88.298 99.4901 88.6989 99.0825 89.2016 98.6477C89.7179 98.213 90.37 97.7578 91.1581 97.2823C91.9869 96.7795 92.7614 96.3719 93.4815 96.0594C94.2152 95.7333 94.8741 95.482 95.4584 95.3053C96.0562 95.1287 96.5793 95.0132 97.0277 94.9589C97.476 94.8909 97.8293 94.857 98.0874 94.857C98.6989 94.857 99.154 94.9385 99.4529 95.1015C99.7518 95.251 99.976 95.5227 100.125 95.9168Z" fill="white"/>
<g clip-path="url(#clip0_56_73)">
<path d="M90.6091 26.0227H64.0004C57.517 26.0227 52.2612 31.2785 52.2612 37.7618V64.3705C52.2612 70.8539 57.517 76.1097 64.0004 76.1097H90.6091C97.0924 76.1097 102.348 70.8539 102.348 64.3705V37.7618C102.348 31.2785 97.0924 26.0227 90.6091 26.0227Z" fill="#0277BD" fill-opacity="0.69"/>
<path d="M62.7784 46.1066L63.3384 52.3562H77.3238V46.1066H62.7784ZM77.3236 33.4575H61.6528L62.221 39.707H77.3236V33.4575ZM77.3236 68.8395V62.3374L77.2962 62.3446L70.3361 60.4654L69.8912 55.4809H63.6176L64.4931 65.2937L77.2948 68.8475L77.3236 68.8395Z" fill="#EBEBEB"/>
<path d="M84.9983 52.3562L84.2728 60.4612L77.3027 62.3426V68.8444L90.1146 65.2937L90.2085 64.2377L91.6771 47.7849L91.8295 46.1066L92.9578 33.4575H77.3027V39.707H86.1088L85.5403 46.1066H77.3027V52.3562H84.9983Z" fill="white"/>
</g>
<defs>
<clipPath id="clip0_56_73">
<rect width="50.087" height="50.087" fill="white" transform="translate(52.2612 26.0227)"/>
</clipPath>
</defs>
</svg>
